<?xml version="1.0" encoding="UTF-8"?>
<svg id="Layer_2" data-name="Layer 2" xmlns="http://www.w3.org/2000/svg" viewBox="0 0 1203.98 276.75">
  <defs>
    <style>
      .cls-1 {
        fill: #ff0;
      }
    </style>
  </defs>
  <g id="Layer_1-2" data-name="Layer 1">
    <path class="cls-1" d="M0,0l2.05,10.68,2.24,11.69,1.14,5.96,7.88,5.32,5.46,3.68s1.72,3.73,3.61,7.89c5.72,7.39,11.11,14.53,16.2,21.38,4.84,3.89,9.63,7.4,10.85,7.4,1.44,0,6.2,11.41,10.27,21.88,3.45,8.9,6.4,17.12,6.4,17.12,0,0,3.48,1.55,7.71,3.44,3.46,1.53,7.43,3.29,10.41,4.6,2.48,1.09,4.28,1.87,4.55,1.96s.68,2.77,1.14,6.66c.45,3.76.94,8.64,1.38,13.37.81,8.56,1.48,16.64,1.48,16.64,0,0,7.02,3.42,13.91,6.75,4.38,2.12,8.71,4.21,11.13,5.35,1.1.52,1.81.85,1.96.9.37.13,3.22,4.45,6.69,9.87,3.2,5.03,6.93,10.99,9.68,15.4,2.33,3.75,3.96,6.39,3.96,6.39l11.98,3.88,19.71,6.39,3.31,1.07,2.3,1.45,10.68,6.72,23.02,14.49s18.69-1.77,34.22-3.2c1.3-.13,2.58-.25,3.82-.36,8.84-.81,15.92-1.44,16.63-1.44,1.24,0,17.89,1.93,30.34,3.39,8.41-.17,16.33-.49,23.59-.81,13.29-3.23,35.52-8.48,38.07-8.24,1.32.12,8.73,1.54,17.65,3.31,13.21-1.58,24.74-2.83,36.27-2.51h.03c11.79.32,23.59,2.28,37.22,7.19,4.6,1.65,8.99,3.5,13.2,5.51l8.31.46.65.04.31.43,4.91,6.75c11.84,7.23,21.8,15.49,30.01,23.51l5.86.57,2.26.22c1.23,1.2,2.41,2.41,3.55,3.6.43-1,.88-2.05,1.36-3.12,1.31-2.94,2.8-6.12,4.45-9.43,1.84.19,3.9.4,6.04.62,8.73.86,18.58,1.85,18.58,1.85l9.58-41.89h0c1.15-1.17,2.33-2.31,3.55-3.45,3.34-3.12,6.78-6.02,10.34-8.71l26.75-3.73,49.24-24.74,5.89-2.96h0l3.08-1.55s1.05.4,2.82,1.08c1.21.46,2.76,1.05,4.54,1.73h.01c11.72,4.46,33.43,12.66,34.41,12.66.87,0,21.99-7.83,36.93-13.1,1.05-.37,2.07-.73,3.05-1.07h0c6.35-2.21,11.03-3.74,11.56-3.61.57.15,4.61,2.16,9.84,4.83.78.4,1.6.82,2.43,1.25,10.9,5.6,25.06,13.03,25.06,13.03l49.35-7.35h0l3.68-.55,39.41-5.87s6.21,6.21,11.77,11.2h0c.32.29.64.57.95.85,3.35,2.95,6.29,5.28,7.27,5.28,1.54,0,17.31-.44,30.35-.82h.05c1.39-.04,2.74-.08,4.04-.12h.08c7.63-.22,13.48-.39,13.48-.39l12.22,3.87h.02l3.11.99h.02l46.41,14.69s8.77-2.53,17.91-5.13h0c.36-.11.72-.21,1.08-.31,9.26-2.63,18.56-5.22,19.22-5.22s11.09,5.48,21.63,11.1h0c.48.25.95.5,1.42.76,10.64,5.67,20.94,11.25,20.94,11.25,0,0,7.84-3.31,15.86-6.32.42-.16.84-.32,1.26-.48t.01,0h0c6.84-2.53,13.51-4.71,15.3-4.31,1.39.31,6.94,3.66,13.8,7.88.46.28.94.58,1.42.87,12.74,7.85,29.1,18.03,31.89,17.47,2.43-.49,9.12-6.69,15.19-12.14h0c.26-.24.53-.48.79-.71,4.71-4.21,8.91-7.79,10.24-7.6.62.1,2.92,1.2,6.21,2.91V0H0ZM560.33,214.64l.1-.42.5-.07c-.2.16-.4.33-.6.49Z"/>
  </g>
</svg>