<?xml version="1.0" encoding="UTF-8"?>
<svg id="Layer_2" data-name="Layer 2" xmlns="http://www.w3.org/2000/svg" viewBox="0 0 612.45 787">
  <defs>
    <style>
      .cls-1 {
        fill: #ff0;
      }
    </style>
  </defs>
  <g id="Layer_1-2" data-name="Layer 1">
    <path class="cls-1" d="M612.45,432.67l-24.66,12.33-3.84,15.69-3.5,14.31-37.94-4.24c6.1-.34,11.74-.26,16.78.04.97.15,1.89.3,2.75.45.05-.09.11-.17.16-.26-.95-.07-1.92-.14-2.91-.19-7.44-1.17-18.09-2.26-30.76-1.61l-1.74-.19-.45.32-6.13,4.38-12.09,8.63-26.5,5.26-18.83,3.74-7.65,14.34h-.01s-3.01,5.66-3.01,5.66c0,0-16.54,31.86-22.93,45.7-1.77,3.84-2.76,6.3-2.4,6.3.47,0,2.06,2.94,4.12,7.18,0,0,0,.01,0,.02,5.26,10.85,13.53,30.14,13.53,30.14l-6.53,30.06-1.8,8.27s1.31,1.9,3.14,4.63c4.17,6.21,11.06,16.72,11.53,19.04.41,2.06-.97,21.87-2.08,36.67-.68,9.11-1.26,16.33-1.26,16.33l9.48,6.44,7.19,4.89.64,11.8,1.03,19.2s8.92,6.69,14.84,11.83c2.95,2.55,5.16,4.72,5.16,5.5s-.44,3.04-1.07,5.72c-.44,1.88-.97,3.98-1.51,5.95H0V0h25.02l2.05,10.68,2.24,11.69,1.14,5.96,7.88,5.32c3.12,3.92,6.13,7.78,9.07,11.57,5.72,7.39,11.11,14.53,16.2,21.38,4.84,3.89,9.63,7.4,10.85,7.4,1.44,0,6.2,11.41,10.27,21.88,3.45,8.9,6.4,17.12,6.4,17.12,0,0,3.48,1.55,7.71,3.44,3.46,1.53,7.43,3.29,10.41,4.6,2.48,1.09,4.28,1.87,4.55,1.96s.68,2.77,1.14,6.66c.45,3.76.94,8.64,1.38,13.37.81,8.56,1.48,16.64,1.48,16.64,0,0,7.02,3.42,13.91,6.75,4.38,2.12,8.71,4.21,11.13,5.35,2.87,3.92,5.69,7.47,8.65,10.77,3.2,5.03,6.93,10.99,9.68,15.4,2.33,3.75,3.96,6.39,3.96,6.39l11.98,3.88,19.71,6.39c1.86.87,3.73,1.71,5.61,2.52l10.68,6.72,23.02,14.49s18.69-1.77,34.22-3.2c1.3-.13,2.58-.25,3.82-.36,8.84-.81,15.92-1.44,16.63-1.44,1.24,0,17.89,1.93,30.34,3.39-2.56.05-5.16.09-7.81.1,2.92.03,5.79.02,8.61-.01,7.23.85,12.86,1.52,12.86,1.52,0,0,3.39-.84,8.37-2.05.5-.12,1.02-.25,1.56-.37,13.29-3.23,35.52-8.48,38.07-8.24,1.32.12,8.73,1.54,17.65,3.31.9.18,1.82.36,2.75.55,12.29-1.48,23.05-2.8,33.52-3.06h.03c11.79.32,23.59,2.28,37.22,7.19,4.6,1.65,8.99,3.5,13.2,5.51l8.31.46c.32.15.64.3.96.47l4.91,6.75c11.84,7.23,21.8,15.49,30.01,23.51l5.86.57,2.26.22c1.23,1.2,2.41,2.41,3.55,3.6-.84,1.99-1.59,3.84-2.23,5.51,1.04,1.16,2.03,2.31,2.99,3.43.64.74,1.25,1.47,1.85,2.19.13-.41.27-.81.41-1.23l2.75,28.68s7.85,3.79,13.64,6.45c2.76,7.98,5.6,15.65,8.47,23.01,1.28,13.94,2.55,29.88,2.55,29.88,0,0,8.45,7.09,16.13,13.33,6.05,4.93,11.62,9.33,12.21,9.33,1.33,0,10.66,35.34,10.66,35.34Z"/>
  </g>
</svg>