<?xml version="1.0" encoding="UTF-8"?>
<svg id="Layer_2" data-name="Layer 2" xmlns="http://www.w3.org/2000/svg" viewBox="0 0 802.28 609.68">
  <defs>
    <style>
      .cls-1 {
        fill: #ff0;
      }
    </style>
  </defs>
  <g id="Layer_1-2" data-name="Layer 1">
    <path class="cls-1" d="M802.28,50.92v558.76H56.49c.54-1.97,1.07-4.07,1.51-5.95.63-2.68,1.07-4.91,1.07-5.72s-2.21-2.95-5.16-5.5c-5.92-5.14-14.84-11.83-14.84-11.83l-1.03-19.2-.64-11.8-7.19-4.89-9.48-6.44s.58-7.22,1.26-16.33c1.11-14.8,2.49-34.61,2.08-36.67-.47-2.32-7.36-12.83-11.53-19.04-1.83-2.73-3.14-4.63-3.14-4.63l1.8-8.27,6.53-30.06s-8.27-19.29-13.53-30.14c0-.01,0-.02,0-.02-2.06-4.24-3.65-7.18-4.12-7.18-.36,0,.63-2.46,2.4-6.3,6.39-13.84,22.93-45.7,22.93-45.7l3.01-5.65h.01s7.65-14.35,7.65-14.35l18.83-3.74,26.5-5.26,12.09-8.63,6.13-4.38c.73-.05,1.47-.09,2.19-.13,12.67-.65,23.32.44,30.76,1.61-5.04-.3-10.68-.38-16.78-.04l37.94,4.24,3.5-14.31,3.84-15.69,24.66-12.33s-9.33-35.34-10.66-35.34c-.59,0-6.16-4.4-12.21-9.33-7.68-6.24-16.13-13.33-16.13-13.33,0,0-1.27-15.94-2.55-29.88-2.87-7.36-5.71-15.03-8.47-23.01-5.79-2.66-13.64-6.45-13.64-6.45l-2.75-28.68c-.14.42-.28.82-.41,1.23-.6-.72-1.21-1.45-1.85-2.19-.96-1.12-1.95-2.27-2.99-3.43.64-1.67,1.39-3.52,2.23-5.51.43-1,.88-2.05,1.36-3.12,1.31-2.94,2.8-6.12,4.45-9.43,1.84.19,3.9.4,6.04.62,8.73.86,18.58,1.85,18.58,1.85l9.58-41.89h0c1.15-1.17,2.33-2.31,3.55-3.45,3.34-3.12,6.78-6.02,10.34-8.71l26.75-3.73,49.24-24.74,5.89-2.96h0l3.08-1.55s1.05.4,2.82,1.08c1.21.46,2.76,1.05,4.54,1.73h.01c11.72,4.46,33.43,12.66,34.41,12.66.87,0,21.99-7.83,36.93-13.1,1.05-.37,2.07-.73,3.05-1.07h0c6.35-2.21,11.03-3.74,11.56-3.61.57.15,4.61,2.16,9.84,4.83.78.4,1.6.82,2.43,1.25,10.9,5.6,25.06,13.03,25.06,13.03l49.35-7.35h0l3.68-.55,39.41-5.87s6.21,6.21,11.77,11.2h0c.32.29.64.57.95.85,3.35,2.95,6.29,5.28,7.27,5.28,1.54,0,17.31-.44,30.35-.82h.05c1.39-.04,2.74-.08,4.04-.12h.08c7.63-.22,13.48-.39,13.48-.39l12.22,3.87h.02l3.11.99h.02l46.41,14.69s8.77-2.53,17.91-5.13h0c.36-.11.72-.21,1.08-.31,9.26-2.63,18.56-5.22,19.22-5.22s11.09,5.48,21.63,11.1h0c.48.25.95.5,1.42.76,10.64,5.67,20.94,11.25,20.94,11.25,0,0,7.84-3.31,15.86-6.32.42-.16.84-.32,1.26-.48t.01,0h0c6.84-2.53,13.51-4.71,15.3-4.31,1.39.31,6.94,3.66,13.8,7.88.46.28.94.58,1.42.87,12.74,7.85,29.1,18.03,31.89,17.47,2.43-.49,9.12-6.69,15.19-12.14h0c.26-.24.53-.48.79-.71,4.71-4.21,8.91-7.79,10.24-7.6.62.1,2.92,1.2,6.21,2.91Z"/>
  </g>
</svg>