<svg width="57" height="48" viewBox="0 0 57 48" fill="none" xmlns="http://www.w3.org/2000/svg">
<path d="M39.4079 20.7615C35.5119 23.956 31.632 27.2107 27.8059 30.551C27.9116 30.2815 27.649 30.291 27.5249 30.5995C27.3964 30.9111 27.2695 31.0851 27.0213 31.143C27.6511 29.7629 26.4663 31.2221 25.5836 31.9547C23.9426 33.3259 22.3356 34.4845 20.7335 35.6592C19.9339 36.2487 19.133 36.8457 18.3335 37.4352C17.5519 38.0316 14.2568 39.8794 13.8843 40.376C13.7732 40.5258 13.6271 40.5702 13.4955 40.663C13.4428 40.7001 13.388 40.7063 13.3476 40.7607C12.9545 41.2653 12.5546 41.6577 12.1534 41.9925C11.7584 42.3359 11.3652 42.626 10.9676 42.9193C9.10954 44.3459 7.30696 45.5903 5.58091 46.6638C5.41682 46.7665 5.25323 46.8232 5.08261 46.898C5.09016 46.8342 5.08587 46.7722 5.09649 46.7127C5.82277 46.1683 6.52231 45.6232 7.27308 45.1136C7.31921 45.0486 7.30522 45.0194 7.29431 44.9946C6.37975 45.4116 5.53601 45.9478 4.6783 46.4548C4.12417 46.7868 3.5977 47.0929 3.05807 47.4082C2.99797 47.4441 2.93398 47.4371 2.80111 47.4723C2.97205 47.2023 3.08277 47.0332 3.19176 46.8524C3.1989 46.7693 3.14196 46.7444 3.09073 46.709C2.96878 46.769 2.91347 46.821 2.85684 46.8804C2.79408 46.9311 2.76948 46.9615 2.74448 46.9726C2.65101 47.045 2.59437 47.1044 2.53773 47.1638C2.47497 47.2145 2.44732 47.2405 2.42844 47.2603C2.36568 47.3111 2.34547 47.3383 2.32353 47.3538C2.26648 47.394 2.23883 47.42 2.21863 47.4472C2.16291 47.48 2.13831 47.5103 2.11811 47.5376C2.06106 47.5778 2.03953 47.6125 2.01932 47.6397C1.96054 47.6681 1.93728 47.691 1.9184 47.7108C1.92503 47.6736 1.93167 47.6365 1.9383 47.5993C1.99667 47.5516 2.0182 47.517 2.03535 47.4854C2.09066 47.4334 2.11831 47.4074 2.14025 47.3919C2.19117 47.343 2.21709 47.3053 2.23689 47.2588C2.29485 47.1919 2.32118 47.1734 2.34618 47.1623C2.40017 47.1177 2.42782 47.0917 2.44976 47.0763C2.54457 46.9964 2.6012 46.937 2.65478 46.8733C2.71795 46.8417 2.74254 46.8114 2.76581 46.7885C2.86061 46.7087 2.91725 46.6493 2.97389 46.5898C3.29381 46.3449 3.55016 46.1122 3.82446 45.8863C4.6684 45.22 4.06264 44.9383 2.18709 46.3122C1.50388 46.7872 0.869343 47.2474 0.204089 47.7293C0.11592 47.772 0.0895934 47.7905 0.0514274 47.8109C0.0252011 47.7644 0.0185613 47.8016 0.00141711 47.8332C0.00233562 47.8065 0.00764525 47.7768 0.0129518 47.747L-0.000211211 47.7563C0.0463229 47.7105 0.0630592 47.6597 0.08153 47.6207C0.419719 47.1873 0.755251 46.7687 1.08773 46.3459C1.42673 45.9509 1.77319 45.5572 2.10648 45.1728C2.54253 44.6639 3.01655 44.2648 3.51087 43.7734C3.40086 43.4868 3.51404 43.1535 3.7065 42.8488C4.07826 42.2487 4.45615 41.6573 4.83097 41.0616C5.09722 40.6659 5.36346 40.2702 5.62052 39.8614C5.99269 39.2806 6.34741 38.9265 6.6706 39.1148C6.78183 39.1795 6.9144 39.06 7.05451 38.8768C7.383 38.4762 7.70098 38.0701 8.03386 37.6664C8.09632 37.5314 8.10428 37.4868 8.11224 37.4421C7.29902 37.8073 6.50232 38.2517 5.69604 38.664C5.4701 38.7907 5.21652 38.9434 5.0763 38.6327C5.39306 37.8893 5.85126 37.5144 6.24823 37.0525C6.76857 36.4582 8.728 34.9797 8.77995 34.8391C8.9419 34.4259 9.13253 34.1745 9.39346 34.0881C9.77941 33.9461 10.1618 33.8457 10.5628 33.576C11.3487 33.0416 12.164 32.493 12.9688 31.8737C15.9293 29.6442 18.9316 27.5021 21.9554 25.3904C23.1442 24.5331 24.3755 23.6523 25.5862 22.7795C25.7881 22.6372 25.9689 22.4837 25.9576 22.1602C26.472 21.9861 26.9208 22.0079 27.5275 21.1447C27.4682 21.4985 27.5808 21.4907 27.7709 21.3502C28.3676 20.9296 28.9626 20.5623 29.5568 20.0915C30.6123 19.2501 31.6771 18.3566 32.7409 17.4898C32.8445 17.4037 32.9472 17.3444 33.0731 17.2621C33.2138 16.9679 33.3752 16.6657 33.5054 16.3658C33.6232 16.1137 33.6327 15.9315 33.4622 15.9412C33.3284 16.003 33.2582 16.0524 33.1911 16.1063C33.0485 16.1742 32.9607 16.2361 32.8625 16.2923C32.7875 16.3257 32.7484 16.3728 32.7049 16.4229C32.7005 16.426 32.6944 16.4173 32.6869 16.4161C32.723 16.3647 32.7502 16.3195 32.7849 16.2755C32.8727 16.2136 32.9087 16.1622 32.946 16.1034C32.9395 16.0755 32.9198 16.0569 32.9168 16.0525C32.8835 16.024 32.8331 16.027 32.7936 16.0548C32.9972 15.9244 33.2929 15.7289 33.6483 15.4784C34.0358 15.1988 34.2079 15.0515 34.5001 14.8325C35.0513 14.4311 35.4782 14.1887 35.7436 14.0342C36.6715 13.4777 40.1201 11.3071 43.5273 8.44415C43.8017 8.21831 44.0071 8.03452 44.1326 7.93305C42.903 7.98699 41.4436 8.12488 39.9292 8.39906C39.6631 8.45011 39.4561 8.49194 39.3334 8.51345C39.3931 8.45838 39.4264 8.42185 39.4186 8.40139C39.4059 8.36479 39.3156 8.37644 39.1358 8.43816C39.3355 8.26489 39.5634 8.01977 39.5307 7.88025C39.5077 7.77298 39.3468 7.74981 39.2622 7.75092C38.7928 7.73719 38.2712 7.77979 37.7389 7.88189C35.8346 8.25528 34.0047 8.49179 32.1923 8.71593C32.1192 8.69599 32.0837 8.70151 32.0451 8.70269C32.0162 8.67103 31.9618 8.69637 31.9105 8.72604C31.9513 8.69077 31.9952 8.65984 32.0404 8.62148C32.103 8.63583 32.1368 8.61853 32.175 8.59813C32.3359 8.55622 32.439 8.51608 32.557 8.47845C32.6421 8.43147 32.6491 8.4135 32.6561 8.39554C32.7507 8.16633 32.5929 8.21259 32.4863 8.22916C31.8721 8.3175 31.264 8.41451 30.6427 8.52081C30.2907 8.58041 29.9245 8.67594 29.4738 8.77258C29.7547 8.50956 29.9496 8.32017 30.2029 8.08315C29.0878 8.35545 28.0254 8.59065 27.0527 8.64559C28.8259 7.97446 28.2742 7.86267 27.9533 7.91984C27.011 8.0833 26.0868 8.25362 25.1753 8.39543C24.789 8.45312 24.4283 8.45381 24.3123 8.0935C24.777 7.74645 25.2358 7.54011 25.6805 7.3697C27.4077 6.6985 27.5412 6.55241 26.1076 6.99718C25.5634 7.1662 25.017 7.30423 24.47 7.55321C23.2322 8.12658 22.2505 8.03832 21.2537 8.35729C20.9677 8.4548 20.6981 8.48229 20.5101 8.50432C20.7245 8.18417 21.0673 8.11154 21.3867 7.97751C23.1976 7.26677 25.2179 6.69458 27.1969 6.13844C28.1222 5.87639 29.0623 5.61683 29.995 5.35604C30.1205 5.31965 29.1924 5.3821 28.5031 5.56888C26.9929 5.97014 25.4831 6.39062 24.0065 6.83966C23.9491 6.86065 23.8926 6.85499 23.8453 6.79727C24.0028 6.7318 24.1585 6.65455 24.3072 6.59527C25.0317 6.31866 25.7698 6.05199 26.508 5.78532C26.4958 5.70286 26.4108 5.68475 26.3126 5.67593C26.3241 5.65487 26.3399 5.63072 26.3408 5.60406L26.8582 5.49946C27.0296 5.46315 27.1871 5.39768 27.334 5.32662C28.2177 5.06141 29.054 4.80357 29.8964 4.55441C29.9443 4.43609 29.9317 4.39949 29.9064 4.3263C30.0335 4.3017 30.1221 4.27829 30.3054 4.24013C30.14 4.35022 30.0829 4.39042 30.0184 4.42937C30.1124 4.59068 30.3748 4.43177 30.6164 4.34597C30.6967 4.28287 30.6828 4.25371 30.6828 4.25371C30.6363 4.23443 30.6039 4.2443 30.5815 4.24055C30.507 4.22804 30.4698 4.22178 30.4281 4.21862C30.4751 4.19204 30.5176 4.16854 30.5558 4.14815C30.6329 4.14578 30.6566 4.1421 30.6878 4.13967C31.3525 3.98322 31.9932 3.81124 32.6294 3.64235C33.1442 3.55263 33.6168 3.44053 34.0983 3.32224C34.6802 3.17869 35.2752 3.02585 35.8602 2.88664C37.8733 2.3975 39.8978 1.88731 41.8963 1.47996C43.3687 1.18341 44.783 1.01879 46.2333 0.802781C46.3398 0.786205 47.1495 0.742184 47.2794 0.637623C47.4137 0.529968 47.4945 0.420986 47.7638 0.309195C48.6322 0.236739 49.5081 0.165541 50.3796 0.0974282C51.2603 0.0423469 52.1686 -0.0387302 52.9983 0.0201673C53.202 0.0390703 53.4247 0.0381703 53.5749 0.120839C53.7515 0.184951 53.9131 0.246558 54.044 0.329817L54.8718 0.78667C54.8718 0.78667 55.7795 1.09611 55.7839 1.09302L55.7992 1.11473C55.9086 1.23267 56.0976 1.46355 56.0976 1.46355C56.1925 1.59821 56.2725 1.73036 56.3397 1.891C56.4646 2.18005 56.6119 2.47285 56.7389 2.7929L56.8332 3.03851L56.888 3.31195C56.9364 3.49241 56.9497 3.6976 56.9761 3.89352C57.0467 4.70193 56.9738 5.60497 56.8895 6.52907C56.7978 7.45191 56.6753 8.3964 56.5485 9.34399L56.5041 9.70034L56.4819 9.91107L56.4453 10.2879L56.3679 11.0446C56.2578 10.8232 56.0796 10.9618 56.2023 11.2198C56.3251 11.4779 56.3555 11.6515 56.2163 11.8081C55.9634 11.2256 55.8686 12.1442 55.7362 13.0372C55.4837 14.7104 55.075 16.2273 54.6632 17.7397C54.2488 19.2671 53.8086 20.7671 53.3731 22.2833C53.3214 22.2938 53.3235 22.3248 53.3182 22.3545C53.3117 22.3266 53.3008 22.3018 53.2899 22.277C53.3137 22.2082 53.2958 22.1363 53.2662 22.0011C53.1138 22.167 52.9966 22.3081 52.8688 22.4437C52.9029 22.7903 53.126 23.0881 53.0738 23.3589C53.0042 23.577 52.9693 23.7512 52.9327 23.9135C52.8194 24.3119 52.7399 24.693 52.6574 25.0698C52.6314 25.1726 52.6391 25.2582 52.6612 25.3921C52.7752 25.3768 52.8761 25.3707 52.9782 25.3573L53.0394 25.4441C52.8935 25.703 52.7462 25.9693 52.5963 26.2505C52.4417 25.8914 52.4347 25.6298 52.5474 25.0628C52.662 24.6569 52.734 24.2746 52.8152 23.9053C52.8563 23.7398 52.8666 23.596 52.8694 23.451C52.8085 23.1689 52.7733 22.9791 52.7438 22.7789C52.547 23.0866 52.4543 23.477 52.4737 23.9705C52.4813 24.1211 52.3988 24.2183 52.3478 24.3323C52.328 24.3787 52.2841 24.4097 52.2897 24.4642C52.2907 25.4907 51.9898 26.2099 51.716 26.949C51.057 28.7072 50.2835 30.3121 49.3481 31.706C49.2633 31.8373 49.1496 31.9369 49.0526 32.0509L48.9546 31.9119C49.2897 31.2596 49.619 30.618 49.9466 29.9645C49.9467 29.8994 49.9212 29.8913 49.9015 29.8727C49.3794 30.5203 48.9308 31.207 48.4651 31.8603C48.1668 32.2851 47.844 32.6751 47.5304 33.0782C47.4927 33.1178 47.4396 33.1357 47.3431 33.2037C47.3645 32.9546 47.3731 32.799 47.3874 32.6329C47.352 32.5733 47.288 32.5664 47.2284 32.5564C47.1485 32.6387 47.1274 32.6926 47.108 32.7583C47.075 32.814 47.0741 32.8407 47.0552 32.8605C47.0139 32.9416 46.9884 32.9986 46.9659 33.06C46.9373 33.1126 46.932 33.1423 46.9162 33.1665C46.8876 33.2191 46.8867 33.2458 46.8678 33.2656C46.8332 33.3096 46.8278 33.3393 46.8195 33.3647C46.7817 33.4043 46.7733 33.4297 46.768 33.4595C46.729 33.5065 46.7311 33.5375 46.7214 33.5704C46.6775 33.6013 46.6705 33.6192 46.6665 33.6416C46.6556 33.6167 46.646 33.5845 46.6351 33.5597C46.6636 33.507 46.6615 33.476 46.6712 33.4432C46.7028 33.3949 46.7037 33.3683 46.7226 33.3484C46.7543 33.3001 46.7491 33.2648 46.7557 33.2276C46.7795 33.1589 46.7865 33.1409 46.8054 33.1211C46.837 33.0728 46.8379 33.0461 46.8568 33.0263C46.8951 32.9408 46.9175 32.8795 46.9356 32.8213C46.9778 32.7786 46.9756 32.7476 46.9914 32.7234C47.0297 32.6379 47.0552 32.5809 47.0746 32.5152C47.2306 32.2427 47.3472 31.9981 47.465 31.746C47.8261 30.9909 48.1731 30.2718 48.4653 29.4936C48.5943 29.1362 48.6485 28.6819 48.7377 28.268L48.8631 27.6725C48.837 27.5608 48.8138 27.5187 48.7893 27.4839C47.9849 29.2406 47.2242 31.0315 46.2619 32.5549C45.92 33.095 45.5309 33.5772 45.1659 34.0751C45.1075 34.1227 45.0842 34.1456 45.0697 34.1623C45.0246 34.1356 45.0268 34.1666 45.0303 34.1902C45.018 34.1728 45.0071 34.148 44.9992 34.1275L44.9861 34.1368C45.0164 34.0959 45.0081 34.0562 45.006 34.0252C45.2303 33.2625 45.4191 32.5053 45.6293 31.7785C45.7633 31.307 45.9262 30.8672 46.0953 30.3709C45.8452 30.2025 45.7759 29.9458 45.7628 29.6755C45.7426 29.1437 45.7193 28.6074 45.6978 28.083C45.6782 27.7197 45.6647 27.3651 45.6421 26.9975C45.5999 26.4811 45.6737 26.1105 46.0419 26.1111C46.1769 26.107 46.2069 25.9818 46.212 25.8027C46.2245 25.4103 46.24 25.0223 46.2524 24.6299C46.2232 24.514 46.1987 24.4792 46.1773 24.4488C45.7631 25.0073 45.3883 25.6031 45.0056 26.1783C44.8962 26.34 44.7846 26.5357 44.4859 26.3821C44.3084 25.7855 44.4287 25.3691 44.4711 24.9167C44.5241 24.3397 45.1317 22.6112 45.0894 22.5045C44.9488 22.1745 44.9333 21.9383 45.0826 21.7681C45.2868 21.5266 45.5151 21.3007 45.655 20.9681C45.9261 20.3089 46.1709 19.6033 46.3824 18.8691C46.9448 16.8993 47.5129 14.9191 48.0468 12.937C47.0188 13.8826 45.989 14.8164 44.9646 15.7205C43.5306 16.9847 42.085 18.1206 40.6599 19.3136C40.5519 19.4027 40.451 19.4738 40.2623 19.6068C40.421 19.3194 40.5221 19.1181 40.6232 18.9168" fill="#3F7798"/>
</svg>
