<svg width="51" height="34" viewBox="0 0 51 34" fill="none" xmlns="http://www.w3.org/2000/svg">
<path d="M50.1276 0.0948263C50.1276 0.0632176 50.1276 0.0474124 50.1381 0.0158037C50.1223 0.0421443 50.1171 0.0737544 50.0909 0.0316094C50.0594 0.0474138 50.0384 0.0632167 49.9598 0.100094C49.3777 0.521543 48.7956 0.900847 48.224 1.35917C47.1437 2.21261 46.0845 3.20828 45.0147 4.23557C45.6702 3.36106 46.3099 2.49709 46.934 1.65419C47.107 1.48561 47.2853 1.31703 47.4951 1.13791C47.5528 1.07996 47.6 1.03255 47.6786 0.942994C47.6996 0.921921 47.7206 0.89558 47.773 0.863971C47.8202 0.806022 47.8674 0.748073 47.9513 0.669051L48.0405 0.584762C48.0405 0.584762 48.0824 0.553153 48.1348 0.489935C48.1558 0.453058 48.1716 0.416181 48.224 0.374036C48.245 0.358232 48.266 0.331891 48.3131 0.289746C48.3341 0.258137 48.3551 0.226529 48.4023 0.179116C48.4075 0.147507 48.4128 0.110629 48.4233 0.0790206C48.4023 0.100093 48.3813 0.121167 48.3341 0.142239C48.3131 0.16858 48.2922 0.205456 48.245 0.242333C48.224 0.263405 48.203 0.295015 48.1558 0.321356C48.1349 0.347696 48.1139 0.374036 48.0614 0.410913C48.0405 0.426717 48.0195 0.453059 47.9723 0.500472C47.9513 0.521544 47.9251 0.547884 47.8779 0.600565C47.8254 0.653246 47.7835 0.711196 47.6996 0.779681C47.6734 0.795486 47.6577 0.821826 47.6052 0.874508C47.5528 0.932457 47.5056 0.985138 47.4007 1.04309C47.3483 1.01675 47.3063 0.990405 47.3063 0.916652C47.4007 0.748072 47.4951 0.584762 47.6367 0.331892C47.5161 0.368769 47.4636 0.368769 47.4164 0.405645C46.9392 0.721733 46.4568 1.02728 45.9743 1.37498C45.2349 1.91233 44.4903 2.48128 43.7037 2.97649C43.6932 2.95541 43.6827 2.92907 43.7141 2.86586C44.3382 2.30217 44.9622 1.73848 45.5863 1.16425V0.990407C45.4342 1.0747 45.2874 1.14318 45.1405 1.25381C43.6093 2.40226 42.099 3.80885 40.5939 5.39982C39.9594 6.06887 39.3144 6.71158 38.7585 7.77574C38.7323 7.83369 38.6799 7.84423 38.6379 7.89164C38.5383 7.99174 38.4124 8.06549 38.3338 8.21826C38.0821 8.73454 37.7884 9.09804 37.4528 9.35091C37.5367 9.13492 37.6101 8.92419 37.715 8.60811C37.7989 8.4606 37.8828 8.31309 38.0034 8.16032C38.2761 7.80208 38.5435 7.43858 38.8582 7.05401C39.262 6.51666 39.3983 6.23745 39.4612 5.816C39.1833 6.04253 38.9211 6.27433 38.6537 6.49559C38.6537 6.53247 38.6537 6.56934 38.6537 6.60095C38.7428 6.62202 38.8372 6.64837 38.9421 6.66944C38.8844 6.81168 38.8477 6.91177 38.769 7.0066C38.4963 7.36483 38.2236 7.72833 37.909 8.10237C37.7884 8.26041 37.6625 8.42372 37.4842 8.62918C37.2902 8.88732 37.3164 9.27716 37.1591 9.64593C36.9756 9.74602 36.7973 9.84612 36.5875 9.96728C36.6347 9.80924 36.6609 9.73548 36.7134 9.67226C36.7186 9.64066 36.7239 9.60905 36.7291 9.58271C36.7134 9.61432 36.6924 9.65119 36.6452 9.64066C35.4496 11.0525 34.2539 12.4486 33.0531 13.8657C31.8679 15.2775 30.6828 16.6841 29.5396 18.3067C28.926 19.1812 28.2233 20.7722 28.4541 19.3867C28.2495 19.5026 28.1761 19.6922 28.1342 19.9978C28.0975 20.3086 27.872 20.3824 27.9034 20.1137L26.8022 21.7942L26.5295 22.2157L26.3932 22.4316C26.3564 22.4791 26.3669 22.4685 26.3669 22.4738V22.4843C26.3669 22.4843 26.3774 22.5475 26.3774 22.5844C26.3722 22.7425 26.3197 22.9585 26.2148 23.2482C26.1309 23.2482 26.0156 23.2113 25.874 23.1376C25.7953 23.1007 25.7219 23.0533 25.6328 22.9953L25.5017 22.9058C25.5017 22.9058 23.7344 21.4044 23.6453 21.3148C22.4654 20.0768 21.3484 18.8335 20.0951 17.6061C18.4013 15.9413 16.6078 14.2924 14.8563 12.6277C14.3424 12.143 13.8232 11.6531 13.3093 11.1684C12.895 10.7786 12.4808 10.3835 12.0612 9.93567C11.4949 9.40886 10.9338 8.88732 10.3569 8.32363C10.336 8.29729 10.315 8.27095 10.2573 8.20246C10.2101 8.17085 10.1681 8.14451 10.1157 8.1129C10.1419 8.15505 10.1629 8.19192 10.1996 8.26568C10.2154 8.29729 10.2416 8.31836 10.2625 8.37104C10.2625 8.37104 10.2468 8.39738 10.1524 8.35524C9.91643 8.17085 9.61754 7.99174 9.68047 7.82316C9.75389 7.86003 9.82203 7.90218 10.0161 8.00754C9.85874 7.8495 9.78535 7.77048 9.67522 7.65985C9.63851 7.72306 9.61752 7.7494 9.49691 7.76521C8.98824 7.30688 8.46908 6.84855 7.94992 6.37442C7.69296 6.14789 7.44126 5.9161 7.17906 5.67376C7.02174 5.55787 6.86442 5.44197 6.72284 5.28392L6.29282 4.8414C6.29282 4.8414 6.24562 4.8414 6.2194 4.84667C6.2666 4.9415 6.31904 5.03632 6.26136 5.089L4.16375 3.31365C4.01168 3.19248 3.85435 3.06604 3.69703 2.95015C3.68654 3.0239 3.71801 3.07658 3.7652 3.12926C5.09718 4.39361 6.42917 5.65796 7.76639 6.91704C8.37994 7.49653 7.27344 6.70105 6.44489 5.9319C4.66717 4.26191 2.89995 2.59718 1.11698 0.921921C0.786605 0.611102 0.513914 0.268674 0 0C0.209761 0.305551 0.419514 0.611101 0.713179 0.916652C1.66235 1.91759 2.23396 2.93961 3.51875 3.91948C4.09035 4.35147 4.55706 4.83086 5.05524 5.28392C6.361 6.47979 6.16171 6.42711 4.47838 5.03632C4.04313 4.67809 3.57643 4.31459 2.9891 4.00904C2.78982 4.28825 3.03104 4.65702 3.33519 5.01525C4.05886 5.85288 4.82449 6.69578 5.59536 7.53341C5.8628 7.82842 6.16171 8.10763 6.34525 8.40792C6.40293 8.50274 6.45538 8.61337 6.54977 8.71874C5.97818 8.27621 5.19682 7.63877 4.42595 7.0066C5.1339 7.94432 6.04636 8.86624 7.02175 9.82504C6.66516 9.69334 6.38721 9.59325 5.99391 9.45627C6.38197 9.84085 6.70187 10.1569 6.99029 10.473C7.49896 11.0262 7.99713 11.5688 8.49007 12.1114C8.57397 12.2062 8.72604 12.3379 8.48482 12.3643C8.4586 12.3643 8.43762 12.3643 8.35372 12.3063C8.24359 12.2168 8.13872 12.1272 7.99713 11.9955C7.95518 11.9692 7.91848 11.9428 7.88178 11.8849C7.82409 11.8585 7.7664 11.8322 7.71396 11.8059C7.77165 11.848 7.83456 11.8901 7.82407 11.927C7.85029 11.9639 7.88175 11.9955 7.91846 12.0798C9.35007 13.7234 10.8027 15.3671 12.4178 16.995C12.8741 17.4585 13.2621 17.9327 13.5872 18.391C13.6449 18.47 13.7498 18.6386 13.6869 18.7176C13.603 18.823 13.2674 18.7229 12.9947 18.6281C13.1625 18.7703 13.2412 18.8599 13.2202 18.8809C13.2097 18.8967 13.1625 18.8862 13.0786 18.8599C13.1782 18.96 13.3565 19.1443 13.582 19.3656C16.4085 22.2631 18.5848 25.2606 19.1354 26.0667C19.2927 26.3037 19.534 26.6725 19.9325 27.1466C20.2996 27.5839 20.5198 27.8473 20.997 28.4215C21.4638 28.9905 21.8414 29.4751 22.1036 29.8123C22.0668 29.7543 22.0458 29.6911 22.0511 29.6542C22.0511 29.6437 22.0563 29.6226 22.0826 29.6121C22.1665 29.6806 22.2399 29.7438 22.3605 29.8808C22.4234 29.9335 22.4864 29.9861 22.5598 30.0441C22.5598 30.0335 22.565 30.0177 22.5493 30.0072C22.4811 29.9387 22.3972 29.8755 22.3238 29.7438C22.2084 29.5963 22.0826 29.4435 21.9357 29.2223C21.8361 29.1064 21.747 28.9957 21.6054 28.7797C21.511 28.5216 21.705 28.569 22.0301 28.7639C22.4077 28.9957 22.7905 29.2275 23.1261 29.4224C23.2677 29.6016 23.3778 29.7596 23.5089 29.9124C24.4948 31.0292 25.4912 32.1619 26.4613 33.2734C26.776 32.8151 27.0854 32.3726 27.3843 31.9301C28.0503 30.9818 28.669 30.2127 29.3298 29.3382C29.5343 29.0642 29.6602 28.9852 29.5291 29.5489C29.9171 28.7639 30.2056 28.353 30.494 28.0422C30.7719 27.7366 31.0446 27.547 31.3383 27.2731C31.3383 27.0729 31.3855 26.899 31.4641 26.741C31.5375 26.5882 31.6739 26.4038 31.7158 26.3459C32.5444 25.2922 33.3782 24.207 34.2225 23.1903C36.3463 20.6405 38.4911 18.1223 40.6464 15.5989C41.2337 14.9088 41.8315 14.2661 42.4293 13.6708C42.7335 13.3652 43.0482 13.2124 43.3628 13.0281C43.5778 12.9069 43.6984 12.654 43.7613 12.2589C43.7876 12.1325 43.8085 12.006 43.84 11.8533C44.0445 11.8691 44.1022 11.5688 44.1809 11.2896C44.2595 11.0156 44.3015 10.6837 44.5165 10.4836C44.4798 10.8049 44.4483 11.0683 44.4116 11.416C44.8783 11.1473 45.2559 10.531 45.623 9.94094C45.9009 9.48788 46.2418 9.08751 46.4148 8.40265C46.247 8.14451 45.5233 7.91798 45.7646 7.3701C45.9429 6.97499 46.1211 6.60095 46.3047 6.21111C46.5721 5.64742 46.8396 5.08373 47.107 4.51478C47.2434 4.22503 47.322 3.93002 47.1962 3.67715C47.6052 3.20828 47.9775 2.79737 48.3394 2.34431C48.8952 1.63312 49.4721 0.906117 50.0542 0.163312C50.0699 0.121167 50.0856 0.0842889 50.1328 0.0421439H50.1171L50.1276 0.0948263ZM6.81722 8.96634C6.89589 9.00848 6.9798 9.04009 7.08992 9.06643C7.12139 9.07697 7.18432 9.14545 7.22102 9.17706C7.60384 9.54583 7.3626 9.39306 6.81722 8.96634Z" fill="white"/>
</svg>
