<svg preserveAspectRatio="none" width="100%" height="100%" overflow="visible" style="display: block;" viewBox="0 0 233 60" fill="none" xmlns="http://www.w3.org/2000/svg">
<path id="Vector" d="M219.526 57.8937C144.091 60.1598 88.5071 59.6601 13.3916 58.1222C8.7822 57.762 4.25135 56.4565 1.81468 53.6985C-1.07113 50.8823 0.287561 45.525 0.545825 41.0974C0.877076 37.0687 1.42729 32.8503 1.45536 28.9456C1.2364 22.8601 0.197727 16.3716 0.00683611 10.2202C-0.217741 4.68474 5.11036 0.694845 13.1278 0.272613C85.6662 1.10158 145 -0.397534 217.69 0.106045C220.739 0.284234 223.81 0.79556 226.185 2.12036C231.21 4.77383 231.355 9.32929 231.692 13.3347C232.035 18.0141 232.697 22.8058 232.776 27.4504C232.613 32.7806 232.04 38.6724 231.698 44.1266C231.367 47.5897 231.518 51.045 229.514 53.3808C227.538 55.9103 223.681 57.4288 219.627 57.8859L219.526 57.8975V57.8937Z" fill="var(--fill-0, #459BB0)"/>
</svg>
