<svg preserveAspectRatio="none" width="100%" height="100%" overflow="visible" style="display: block;" viewBox="0 0 170 58" fill="none" xmlns="http://www.w3.org/2000/svg">
<g id="Group">
<path id="Vector" d="M169.76 9.45062L169.76 45.927H161.181L161.181 9.47836C161.49 9.38822 169.165 9.35818 169.76 9.45062Z" fill="var(--fill-0, white)"/>
<path id="Vector_2" d="M158.505 9.40244L158.505 45.8558C158.172 45.9436 150.943 45.9852 149.91 45.8974L149.91 9.40244H158.505Z" fill="var(--fill-0, white)"/>
<path id="Vector_3" d="M147.223 9.42944H138.628L138.628 45.9036H147.223L147.223 9.42944Z" fill="var(--fill-0, white)"/>
<path id="Vector_4" d="M131.004 45.1757C130.983 45.2265 130.981 45.2427 130.972 45.2519C130.963 45.2612 130.944 45.2704 130.93 45.2704C129.363 45.2774 127.793 45.2843 126.226 45.2889H121.223C120.777 44.3968 120.337 43.5232 119.901 42.6496C119.445 41.7298 119.001 40.803 118.527 39.8947C118.368 39.592 118.382 39.3701 118.56 39.0697C120.002 36.6938 121.424 34.3064 122.853 31.9213C122.917 31.8127 122.996 31.7156 123.091 31.577C123.176 31.6648 123.264 31.7295 123.313 31.815C124.402 33.7032 125.481 35.5983 126.572 37.4865C127.858 39.7168 129.152 41.9424 130.442 44.1726C130.639 44.5124 130.826 44.8567 131.006 45.1757H131.004Z" fill="var(--fill-0, white)"/>
<path id="Vector_5" d="M136.492 0.0416004C136.446 0.0832007 136.439 0.115557 136.432 0.147912C135.879 0.85743 135.387 1.55077 134.869 2.22562C134.534 2.66473 134.166 3.07612 133.782 3.54065C134.069 3.64697 134.085 3.86421 134.014 4.10457C133.879 4.57142 133.732 5.03827 133.593 5.5028C133.498 5.82174 133.399 6.13605 133.318 6.4573C133.207 6.91028 132.985 7.24309 132.483 7.30086C132.301 7.32166 132.215 7.44184 132.15 7.59669C132.005 7.94567 131.854 8.29465 131.709 8.64132C131.716 8.73608 131.736 8.7615 131.755 8.78923C132.511 8.23225 133.214 7.64753 133.93 7.08131C134.136 6.91953 134.351 6.73233 134.707 6.82246C134.76 7.32397 134.457 7.71456 134.254 8.11669C133.99 8.63901 133.725 9.18212 133.167 9.54959C133.07 9.31848 132.996 9.13821 132.909 8.92328C132.691 9.14052 132.774 9.3647 132.784 9.56808C132.793 9.77609 132.842 9.98871 132.543 10.0627C132.571 10.1713 132.587 10.2614 132.613 10.3492C132.689 10.622 132.631 10.8323 132.379 11.001C132.014 11.2483 131.625 11.4817 131.327 11.7983C130.731 12.4246 130.164 13.0833 129.628 13.7651C127.661 16.2588 125.7 18.7571 123.756 21.2647C122.984 22.2654 122.256 23.2985 121.507 24.3154C121.384 24.4818 121.289 24.6459 121.546 24.78C121.088 25.1243 120.554 25.3554 120.506 26.0534C120.309 25.8639 120.184 25.9309 120.071 26.0904C119.713 26.5896 119.311 27.0633 118.989 27.5857C118.418 28.5124 117.893 29.4669 117.348 30.4076C117.295 30.5 117.221 30.5809 117.142 30.6826C117.207 30.8837 117.265 31.0986 117.341 31.302C117.406 31.473 117.53 31.5539 117.718 31.4614C117.826 31.3644 117.863 31.3043 117.903 31.2442C118.009 31.1425 118.067 31.0639 118.125 30.99C118.189 30.9345 118.194 30.8906 118.203 30.849C118.203 30.8421 118.224 30.842 118.233 30.8397C118.233 30.879 118.229 30.916 118.226 30.9507C118.18 31.0223 118.178 31.0662 118.178 31.1125C118.256 31.1309 118.349 31.1009 118.395 31.0362C119.459 29.6033 120.529 28.1773 121.574 26.7305C123.139 24.5696 124.665 22.381 126.244 20.2316C127.522 18.4891 128.868 16.795 130.16 15.0593C130.828 14.1603 131.443 13.222 132.081 12.3045C131.991 12.286 131.868 12.3183 131.804 12.3946C131.399 12.8661 131.011 13.3491 130.615 13.8275C129.633 15.064 128.696 16.2588 127.776 17.4606C126.595 19.0044 125.421 20.5552 124.246 22.1037C123.724 22.7831 123.257 23.4326 122.79 24.0797C122.515 24.5072 122.249 24.8608 121.939 25.189C122.059 24.7938 122.297 24.4749 122.545 24.1606C123.058 23.4279 123.534 22.7346 124.008 22.0436C124.588 21.2578 125.088 20.4882 125.64 19.7625C126.877 18.1401 128.149 16.5477 129.385 14.923C129.695 14.5185 130.06 14.1695 130.372 13.7697C131.036 13.0463 131.646 12.3553 132.257 11.6666C132.573 11.4031 132.761 11.0541 133.225 10.9686C133.105 11.454 132.867 11.8053 132.661 12.1681C131.591 14.0401 130.305 15.7665 129.02 17.4883C127.64 19.3395 126.232 21.17 124.857 23.0235C123.442 24.9256 122.055 26.8461 120.647 28.7551C119.803 29.8991 119.005 31.0732 118.298 32.3119C117.517 33.6847 116.67 35.0183 115.829 36.3564C114.724 38.1082 113.598 39.8462 112.475 41.5865C111.524 43.061 110.556 44.5239 109.613 46.0008C108.854 47.1864 108.121 48.3882 107.377 49.5807C107.206 49.8557 107.079 50.0822 106.952 50.311C106.917 50.2925 106.882 50.2764 106.848 50.2602C106.938 50.0614 107.03 49.8627 107.123 49.6639C107.315 49.3288 107.458 49.0307 107.604 48.7325C107.698 48.5384 107.807 48.3627 107.777 48.1131C107.749 47.8913 107.93 47.7202 108.133 47.6024C108.32 47.4914 108.406 47.3274 108.498 47.1101C108.674 46.6918 109.005 46.3382 109.09 45.8667C109.09 45.8528 109.109 45.8367 109.12 45.832C109.555 45.7049 109.578 45.2889 109.754 44.97C110.003 44.5147 110.311 44.0918 110.586 43.648C110.933 43.0841 111.279 42.5179 111.605 41.9401C111.809 41.5819 111.825 41.1844 111.693 40.7938C111.538 40.3385 111.235 40.2484 110.933 40.6204C110.586 41.0457 110.271 41.5102 110.026 42.0002C109.155 43.7405 108.149 45.3999 107.12 47.0477C107.042 47.1124 107.021 47.1471 106.998 47.1794C106.94 47.2002 106.933 47.2534 106.929 47.3042C106.919 47.2626 106.91 47.2187 106.899 47.1771C106.954 47.124 106.956 47.0893 106.959 47.0546C107.023 46.9067 107.058 46.8027 107.09 46.6964C107.095 46.6201 107.077 46.6086 107.06 46.597C106.841 46.4907 106.79 46.6363 106.73 46.7357C106.401 47.2927 106.076 47.8497 105.761 48.4159C105.578 48.7395 105.424 49.0792 105.216 49.4952C105.095 49.2155 105.012 49.0191 104.903 48.7603C104.416 49.7933 103.923 50.7756 103.253 51.6607C103.782 49.9597 104.564 48.3674 105.283 46.7473C105.278 46.6779 105.25 46.6779 105.22 46.6779C104.589 47.399 104.233 48.2241 103.863 49.0445C103.845 49.0861 103.808 49.1508 103.822 49.1739C104.053 49.5091 103.768 49.7124 103.597 49.895C103.357 50.1585 103.216 50.4682 103.045 50.7663C102.548 51.6284 102.048 52.4881 101.517 53.3294C101.29 53.6853 100.999 54.0158 100.476 54.0689C100.425 53.5998 100.534 53.1606 100.666 52.7354C101.172 51.0991 101.937 49.5715 102.663 48.0299C103.361 46.5439 104.027 45.0416 104.691 43.5394C104.82 43.2482 104.88 42.927 104.973 42.6196C104.943 42.608 104.91 42.5965 104.88 42.5849C104.698 42.9454 104.508 43.306 104.335 43.6711C103.613 45.2173 102.871 46.7542 102.182 48.3142C101.602 49.6269 101.084 50.9674 100.543 52.3009C100.338 52.8117 100.083 53.3155 99.9562 53.8494C99.6695 55.0581 98.7864 55.9178 98.2223 56.9648C98.0536 57.2791 97.8178 57.5587 97.582 57.8384C97.5404 57.4224 97.7738 57.0942 97.9195 56.7521C98.7055 54.9056 99.5123 53.0705 100.31 51.2309C100.68 50.3757 101.043 49.516 101.408 48.6563C101.457 48.5407 101.496 48.4205 101.54 48.3026C101.524 48.201 101.5 48.1686 101.477 48.1316C101.142 48.7371 100.858 49.3681 100.578 50.0036C99.9654 51.3926 99.3551 52.7793 98.7402 54.1683C98.7171 54.2238 98.6708 54.27 98.5668 54.3023C98.6038 54.1567 98.6338 54.0065 98.6801 53.8632C98.9089 53.1745 99.1401 52.4858 99.369 51.7971C99.2603 51.7971 99.1748 51.8733 99.0916 51.9519C99.0708 51.9404 99.05 51.9288 99.0268 51.9173C99.1101 51.7624 99.191 51.6076 99.2742 51.4527C99.3644 51.2933 99.3944 51.1476 99.4222 51.0044C99.7597 50.1932 100.051 49.4235 100.345 48.6516C100.238 48.5962 100.18 48.6031 100.074 48.6193C100.132 48.5037 100.173 48.4205 100.257 48.2518C100.271 48.4113 100.275 48.469 100.28 48.5268C100.543 48.4621 100.543 48.2102 100.603 47.9883C100.585 47.9144 100.539 47.9236 100.539 47.9236C100.486 47.9629 100.474 47.9906 100.453 48.0138C100.382 48.0762 100.347 48.1085 100.315 48.1432C100.315 48.1016 100.319 48.0623 100.321 48.0207C100.37 47.956 100.386 47.9282 100.407 47.9051C100.689 47.2996 100.936 46.7172 101.181 46.1371C101.433 45.6726 101.625 45.2427 101.817 44.8105C102.051 44.2767 102.282 43.7382 102.515 43.2066C103.315 41.3854 104.078 39.5458 104.931 37.75C105.56 36.4257 106.309 35.1569 107.005 33.865C107.056 33.7703 107.123 33.6824 107.227 33.5253C107.28 33.7333 107.315 33.8743 107.349 34.0199C107.881 34.2856 108.001 34.8819 108.35 35.2933C108.413 35.3488 108.436 35.3464 108.461 35.3464C108.138 34.4497 107.747 33.5345 107.335 32.5754C109.294 29.0833 111.27 25.5611 113.261 22.0158C113.335 22.1938 113.399 22.3486 113.489 22.5613C113.73 22.2793 113.626 22.0528 113.545 21.8448C113.469 21.6368 113.492 21.4866 113.739 21.3294C114.014 22.2886 114.278 23.2222 114.544 24.1536C114.608 24.223 114.648 24.223 114.687 24.2253C114.622 23.7376 114.521 23.2407 114.37 22.76C114.079 21.8194 114.329 20.9989 114.823 20.1947C115.746 18.6994 116.818 17.3173 117.891 15.9306C118.973 14.5324 120.071 13.1503 121.162 11.759C121.239 11.7405 121.25 11.7128 121.262 11.6851C121.266 11.7059 121.269 11.7267 121.273 11.7498C121.22 11.8145 121.22 11.8723 121.22 11.9901C121.472 11.8237 121.685 11.6851 121.9 11.5441C121.964 11.246 121.756 11.0125 121.921 10.7676C122.085 10.5619 122.189 10.407 122.295 10.2545C122.582 9.88471 122.811 9.54266 123.042 9.20061C123.113 9.10586 123.125 9.02959 123.141 8.91403C122.982 8.94408 122.841 8.9695 122.7 8.99492C122.681 8.97412 122.665 8.95101 122.646 8.9279C122.933 8.67368 123.22 8.41714 123.511 8.15598C123.61 8.44719 123.539 8.67599 123.194 9.18906C122.91 9.56577 122.683 9.90782 122.455 10.2476C122.341 10.3978 122.288 10.5249 122.235 10.652C122.228 10.8924 122.207 11.0588 122.189 11.2252C122.556 10.9247 122.813 10.5734 122.947 10.1389C122.989 10.0072 123.139 9.91013 123.243 9.80151C123.282 9.7576 123.349 9.72524 123.365 9.67671C123.691 8.77537 124.341 8.09589 124.958 7.40255C126.424 5.75934 128.001 4.22937 129.728 2.85887C129.892 2.72945 130.074 2.62545 130.248 2.50989C130.275 2.54456 130.301 2.58153 130.331 2.61851C129.67 3.24021 129.011 3.85959 128.352 4.48128C128.333 4.53675 128.361 4.546 128.389 4.55524C129.311 3.90812 130.141 3.23558 130.987 2.58616C131.533 2.16322 132.099 1.77033 132.661 1.3705C132.721 1.32659 132.798 1.30579 132.955 1.23183C132.853 1.45139 132.784 1.59468 132.719 1.74028C132.749 1.78882 132.83 1.78419 132.915 1.78188C133.045 1.69868 133.093 1.64553 133.14 1.59006C133.2 1.53459 133.216 1.50917 133.244 1.49068C133.332 1.41441 133.378 1.35895 133.426 1.30348C133.484 1.25032 133.503 1.2249 133.526 1.2041C133.577 1.15094 133.595 1.12783 133.621 1.10934C133.683 1.06312 133.701 1.04001 133.72 1.01459C133.785 0.975297 133.799 0.949875 133.817 0.924453C133.88 0.880541 133.893 0.852807 133.912 0.825074C133.977 0.790407 133.995 0.769607 134.014 0.746495C134.018 0.771918 134.021 0.795029 134.027 0.820452C133.974 0.871297 133.958 0.896719 133.944 0.924453C133.891 0.972986 133.87 0.998409 133.845 1.0169C133.792 1.06543 133.78 1.09548 133.769 1.12783C133.715 1.18792 133.695 1.21103 133.669 1.22721C133.616 1.27574 133.593 1.29886 133.57 1.31734C133.486 1.39823 133.44 1.45601 133.396 1.51148C133.329 1.55539 133.313 1.58081 133.292 1.60161C133.209 1.68713 133.158 1.74259 133.11 1.79806C132.816 2.06153 132.576 2.29726 132.331 2.53531C131.593 3.25638 130.897 3.9451 130.245 4.67311C129.945 5.00822 129.73 5.4196 129.476 5.79632C129.353 5.9789 129.23 6.16379 129.106 6.34637C129.106 6.4365 129.129 6.46886 129.152 6.4989C130.816 4.83026 132.432 3.13158 134.245 1.63859C134.885 1.10934 135.567 0.628628 136.233 0.124801C136.325 0.0739562 136.358 0.0508449 136.392 0.0300447C136.446 0.0439115 136.448 0.0231113 136.453 0C136.459 0.0184891 136.469 0.0323558 136.476 0.0508449L136.492 0.0416004Z" fill="var(--fill-0, white)"/>
<path id="Vector_6" d="M113.568 15.3527C112.368 17.3403 111.182 19.3394 109.994 21.3339C109.718 21.7961 109.448 22.2584 109.168 22.7183C109.106 22.82 109.025 22.9124 108.916 23.0603C108.213 21.84 107.536 20.6706 106.863 19.4966C106.283 18.4912 105.747 17.5413 105.204 16.5938C104.418 15.2233 103.631 13.8528 102.839 12.4846C102.3 11.5555 101.752 10.631 101.211 9.70429C101.144 9.58873 101.093 9.46162 101.015 9.29984H110.835C111.279 10.1758 111.732 11.0609 112.178 11.9484C112.647 12.8821 113.103 13.8181 113.581 14.7449C113.695 14.9667 113.702 15.1262 113.565 15.3504L113.568 15.3527Z" fill="var(--fill-0, white)"/>
<path id="Vector_7" d="M95.6461 39.0683V45.87H71.5595V9.37724H80.3328V39.0683H95.6461Z" fill="var(--fill-0, white)"/>
<path id="Vector_8" d="M68.8866 45.8825H59.4175C58.7078 43.613 57.9958 41.3434 57.2745 39.0462H48.9289C49.5808 36.7674 50.2166 34.5395 50.8662 32.2699H55.1684C53.8646 28.0683 52.5792 23.9337 51.2962 19.7991H51.1991C48.5058 28.4866 45.8149 37.1741 43.1216 45.8709H33.6872C38.1536 33.7028 42.6107 21.5532 47.0748 9.39434H55.388C55.5961 9.93977 55.8088 10.4967 56.0215 11.0514C56.5046 12.3665 56.9647 13.6098 57.4247 14.8532C57.8848 16.0966 58.3471 17.34 58.8049 18.5834C59.1609 19.5448 59.5146 20.5086 59.8683 21.4723C60.3445 22.7619 60.8254 24.0492 61.2993 25.3411C61.6484 26.2887 61.9952 27.2386 62.3442 28.1862C62.8205 29.4758 63.3013 30.7631 63.7776 32.0527C64.233 33.2822 64.6815 34.514 65.1369 35.7436C65.5692 36.913 66.0108 38.0778 66.4454 39.2472C66.9886 40.7125 67.5273 42.1777 68.0683 43.6453C68.2809 44.2254 68.4959 44.8009 68.7086 45.3763C68.7664 45.5358 68.8196 45.6976 68.8797 45.8825H68.8866Z" fill="var(--fill-0, white)"/>
<path id="Vector_9" d="M30.51 9.40424H21.7668V45.8901H30.51V9.40424Z" fill="var(--fill-0, white)"/>
<path id="Vector_10" d="M18.1337 23.8475V30.6631H8.838V45.8819C8.34328 45.8865 7.87398 45.8888 7.40469 45.8911C6.94464 45.8911 6.48459 45.8911 6.02455 45.8911H0V9.40064H8.81489V23.8475H18.1337Z" fill="var(--fill-0, white)"/>
</g>
</svg>
