<svg preserveAspectRatio="none" width="100%" height="100%" overflow="visible" style="display: block;" viewBox="0 0 191 5" fill="none" xmlns="http://www.w3.org/2000/svg">
<g id="Layer 1">
<path id="Vector" d="M176.741 2.98287C178.662 3.02026 180.412 3.06699 182.176 3.09502C184.893 3.13241 187.638 3.16044 190.512 3.20717C190.611 3.20717 190.711 3.20717 190.91 3.20717H190.853C190.853 3.20717 190.91 3.18848 190.953 3.17914C190.882 3.17914 190.825 3.17914 190.768 3.16044C190.654 3.16044 190.54 3.14175 190.242 3.12306C187.738 2.99222 185.291 2.84269 182.759 2.72119C175.632 2.38474 186.457 2.65577 179.089 2.41278C179.131 2.39409 179.188 2.38474 179.43 2.36605C180.141 2.36605 180.853 2.3754 181.564 2.38474C183.029 2.39409 184.523 2.38474 185.945 2.42213C189.032 2.49689 173.882 2.11372 177.097 2.22587C178.164 2.26325 179.217 2.30063 180.426 2.34736C180.653 2.34736 180.895 2.35671 181.265 2.3754C181.35 2.3754 181.45 2.3754 181.692 2.39409C181.919 2.39409 182.161 2.39409 182.517 2.41278C182.602 2.41278 182.702 2.41278 182.929 2.43147C183.015 2.43147 183.114 2.43147 183.37 2.45016C183.484 2.45016 183.584 2.45016 183.797 2.45016C183.897 2.45016 183.996 2.45016 184.224 2.46886C184.324 2.46886 184.423 2.46886 184.651 2.46886C184.708 2.46886 184.765 2.45016 184.836 2.45016C184.736 2.45016 184.651 2.45016 184.452 2.43147C184.338 2.43147 184.238 2.43147 184.025 2.42213C183.925 2.42213 183.826 2.42213 183.612 2.40344C183.513 2.40344 183.413 2.40344 183.186 2.38474C183.086 2.38474 183.001 2.38474 182.773 2.3754C182.673 2.3754 182.574 2.3754 182.332 2.35671C182.104 2.35671 181.863 2.34736 181.507 2.32867C181.407 2.32867 181.308 2.32867 181.066 2.30998C180.838 2.30998 180.611 2.30063 180.17 2.27259C180.027 2.24456 179.871 2.21652 179.956 2.18848C180.468 2.18848 180.981 2.16979 181.749 2.16044C181.279 2.12306 181.094 2.09502 180.881 2.08568C178.847 1.96418 191.991 2.56231 189.929 2.45951C186.728 2.29129 186.529 1.90811 183.2 1.71185C183.186 1.7025 183.157 1.68381 183.342 1.68381C186.159 1.78661 185.931 2.12306 188.748 2.22587C188.805 2.20717 188.862 2.18848 188.904 2.16979C188.293 2.13241 190.739 1.86138 190.099 1.824C183.442 1.48755 176.599 1.24456 169.628 1.06699C166.684 0.99222 163.739 0.898762 160.709 0.982875C160.552 0.982875 160.353 0.973529 160.154 0.964183C159.685 0.945491 159.158 0.917454 158.731 0.9268C157.309 0.973529 155.915 0.954837 154.478 0.889417C154.962 0.861379 155.459 0.833342 156.142 0.777267C156.583 0.777267 157.024 0.758575 157.622 0.777267C158.945 0.777267 160.268 0.795959 161.776 0.81465C163.767 0.823996 164.521 0.805304 165.161 0.702501C163.952 0.655772 162.772 0.599697 161.591 0.552968C161.562 0.562314 161.52 0.57166 161.491 0.590351C161.79 0.63708 162.103 0.683809 162.444 0.739884C162.103 0.758575 161.875 0.767921 161.491 0.767921C160.168 0.758575 158.831 0.74923 157.337 0.730538C156.74 0.730538 156.142 0.721192 155.303 0.702501C154.35 0.702501 154.051 0.823996 153.126 0.870725C152.387 0.823996 151.647 0.777267 150.765 0.721192C151.092 0.693155 151.249 0.683809 151.519 0.683809C151.576 0.683809 151.633 0.674463 151.675 0.665118C151.576 0.665118 151.49 0.665117 151.306 0.646426C145.658 0.552968 140.01 0.450164 134.348 0.366052C128.743 0.28194 123.138 0.188482 117.477 0.179136C114.432 0.179136 111.758 0.263248 109.638 0.581005C108.557 0.739884 107.362 0.889417 106.11 1.02026C106.053 1.00157 105.982 0.99222 106.068 0.954837C108.201 0.646426 110.335 0.34736 112.54 0.0296035C111.701 -0.0264713 111.246 0.00156608 110.79 0.0763324C110.349 0.151099 109.894 0.244557 108.714 0.216519C109.155 0.132407 109.467 0.0763324 109.837 0.0109119C96.7354 0.0669866 83.733 0.113716 70.8302 0.16979C68.8671 0.534276 66.9893 0.880071 65.0403 1.20717C64.9976 1.19783 64.955 1.18848 64.9977 1.1511C65.5525 0.9268 67.0035 0.74923 66.847 0.496893C67.1884 0.450164 67.5298 0.403435 68.0135 0.338015C67.4018 0.338015 67.0462 0.338015 66.7047 0.338015C61.9818 0.366052 57.2304 0.375398 52.5359 0.431473C46.1627 0.515585 39.818 0.646426 33.4591 0.74923C31.6097 0.777267 29.7319 0.81465 27.8683 0.852033C26.3604 0.880071 24.8525 0.898762 23.1454 0.908108C21.1395 0.945491 19.1195 0.982875 16.9714 1.01091C16.8718 1.01091 16.7722 1.01091 16.5161 1.01091C16.4023 1.01091 16.2743 1.0296 16.1605 1.03895C16.317 1.03895 16.4592 1.0483 16.7438 1.05764C16.8433 1.05764 16.9429 1.05764 17.1279 1.06699C17.1279 1.06699 17.2274 1.08568 17.0567 1.10437C16.3454 1.13241 15.6484 1.18848 15.0367 1.10437C15.1931 1.08568 15.3354 1.07633 15.7622 1.03895C15.1647 1.03895 14.866 1.0483 14.4392 1.05764C14.6668 1.09502 14.7806 1.11372 14.7948 1.16044C12.1773 1.22587 9.55973 1.29129 6.75725 1.33801C6.31625 1.35671 5.86103 1.38474 5.27777 1.38474C4.70874 1.38474 4.15393 1.38474 3.5849 1.39409C3.5849 1.40344 3.5849 1.41278 3.5849 1.42213C3.94054 1.43147 4.29619 1.45016 4.4669 1.48755C2.19077 1.55297 5.80412 1.45016 3.51377 1.51558C3.04432 1.53428 2.57487 1.55297 2.11964 1.57166C2.37571 1.5997 2.58909 1.60904 2.77403 1.60904C7.62503 1.52493 6.57232 1.61839 11.4233 1.54362C13.6425 1.50624 15.8618 1.46886 18.081 1.45951C18.0241 1.4782 17.9672 1.48755 17.7111 1.52493C17.3128 1.53428 16.9145 1.54362 16.5161 1.55297C13.5287 1.60904 10.5555 1.66512 7.58235 1.72119C1.18074 1.83334 9.95806 1.67446 3.55645 1.79596C2.37571 1.81465 1.08116 1.79596 0 1.90811C1.16652 1.93615 2.33303 1.95484 3.47109 1.95484C7.29783 1.9268 0 2.23521 3.81251 2.06699C5.50538 1.99222 3.25771 2.08568 5.0217 2.03895C9.60241 1.94549 14.1689 1.83334 18.7496 1.75858C24.1981 1.66512 29.675 1.5997 35.1519 1.52493C36.4465 1.50624 37.7553 1.49689 39.064 1.48755C39.0783 1.49689 39.1067 1.51558 39.1209 1.52493C38.1251 1.56231 37.1293 1.60904 36.1051 1.62773C30.8557 1.71185 25.5922 1.8053 20.3287 1.88007C14.866 1.95484 9.3748 2.01091 4.01167 2.18848C2.61755 2.23521 3.76984 2.30063 2.56064 2.42213C3.57067 2.5997 2.43261 2.62773 3.78406 2.63708C6.98486 2.64643 10.1999 2.63708 13.4007 2.63708C14.5103 2.63708 15.5915 2.61839 16.7295 2.64643C17.512 2.66512 18.5504 2.73054 19.091 2.57166C19.1337 2.56231 19.3755 2.56231 19.5178 2.56231C22.3914 2.51558 25.265 2.46886 28.3093 2.53428C28.3662 2.54362 28.4089 2.55297 28.224 2.57166C22.5621 2.66512 16.8576 2.73054 11.2811 2.91745C14.8375 2.96418 18.3655 2.93615 22.0358 2.88007C21.4952 2.97353 21.0969 3.0483 20.5278 3.16044C22.0215 3.14175 23.2165 3.12306 24.4115 3.12306C26.5027 3.11372 28.5796 3.11372 30.6566 3.10437C31.0265 3.10437 31.5244 3.09502 31.5955 3.19783C31.5955 3.19783 31.5955 3.21652 31.3679 3.23521C31.0265 3.24456 30.6708 3.2539 30.1587 3.26325C30.0591 3.26325 29.9595 3.27259 29.7177 3.26325C29.6181 3.27259 29.5185 3.29129 29.4189 3.30063C29.5612 3.29129 29.7319 3.28194 29.8742 3.30063C30.0022 3.30063 30.1302 3.30063 30.4432 3.31932C36.7025 3.33801 42.9619 3.33801 49.207 3.27259C50.971 3.2539 52.7777 3.27259 54.5275 3.30063C56.0639 3.32867 56.3057 3.45951 55.3099 3.61839C54.4563 3.75858 53.3183 3.83334 51.9953 3.84269C49.8614 3.84269 47.7133 3.84269 45.5794 3.84269C43.9008 3.84269 42.2222 3.824 40.5435 3.824C39.377 3.824 38.182 3.91745 37.1151 3.77727C37.0866 3.77727 37.0013 3.77727 36.9728 3.77727C35.5218 3.85203 33.9996 3.8053 32.5486 3.83334C31.7946 3.85203 31.1972 3.85203 30.5855 3.8053C29.9168 3.75858 29.1486 3.73054 28.5796 3.78661C27.9395 3.85203 27.2708 3.85203 26.5738 3.86138C25.5068 3.87073 24.4399 3.88942 23.2023 3.88942C22.5052 3.89876 21.7939 3.90811 21.0969 3.91745C21.0969 3.93615 21.1253 3.95484 21.1253 3.96418C21.9646 3.96418 22.8039 3.96418 23.8424 3.96418C28.3662 3.97353 32.9043 3.98287 37.4423 3.99222C43.0899 4.01091 48.7376 4.0483 54.3852 4.06699C61.0571 4.09502 67.729 4.12306 74.4009 4.14175C79.4937 4.1511 84.5866 4.16979 89.6652 4.16044C94.2601 4.1511 98.8266 4.17914 103.393 4.23521C111.004 4.32867 118.615 4.42213 126.211 4.51558C133.609 4.60904 141.006 4.73054 148.418 4.824C155.303 4.91745 162.217 5.01091 169.159 4.99222C170.496 4.99222 171.862 4.99222 173.412 4.93615C172.402 4.78661 171.136 4.79596 169.87 4.73054C166.954 4.65577 164.038 4.58101 160.936 4.49689C159.315 4.46886 157.75 4.41278 156.114 4.38474C149.57 4.29129 143.069 4.16979 136.525 4.07633C133.609 4.0296 130.65 4.02026 127.52 3.98287C124.831 3.96418 122.114 3.93615 119.241 3.90811C117.96 3.88942 116.68 3.87072 115.4 3.90811C116.822 3.94549 118.245 3.97353 119.881 3.97353C122.441 4.00157 125.016 4.0296 127.762 4.07633C133.993 4.16979 140.224 4.2539 146.455 4.34736C151.306 4.42213 156.157 4.49689 161.207 4.59035C163.184 4.62773 165.161 4.66512 167.139 4.71185C167.452 4.71185 167.751 4.75858 167.85 4.79596C164.251 4.76792 160.638 4.74923 157.053 4.69316C150.111 4.5997 143.197 4.4782 136.269 4.39409C127.705 4.29129 119.127 4.20717 110.563 4.11372C104.83 4.0483 99.1111 3.97353 93.3923 3.89876C93.1363 3.89876 92.8944 3.87072 92.8233 3.83334C92.9513 3.824 93.0794 3.81465 93.3497 3.81465C93.4492 3.81465 93.563 3.8053 93.6626 3.79596C93.6342 3.79596 93.6057 3.78661 93.5915 3.79596C93.4635 3.79596 93.3354 3.8053 93.0651 3.79596C92.7664 3.79596 92.4534 3.79596 91.9982 3.76792C91.7706 3.76792 91.543 3.76792 91.0878 3.74923C90.5187 3.7025 90.5329 3.63708 90.9028 3.57166C91.3438 3.49689 91.8417 3.43147 92.2827 3.35671C92.6953 3.35671 93.0367 3.3754 93.3781 3.3754C96.8776 3.3754 100.391 3.34736 103.891 3.35671C105.868 3.35671 107.846 3.40344 109.823 3.42213C110.449 3.42213 110.847 3.45951 110.648 3.57166C112.654 3.43147 114.176 3.57166 115.898 3.67446C115.841 3.55297 116.452 3.54362 117.121 3.55297C121.175 3.5997 125.23 3.64643 129.284 3.7025C139.441 3.86138 149.598 4.03895 159.741 4.20717C162.515 4.2539 165.275 4.31932 167.992 4.39409C169.358 4.43147 170.653 4.52493 171.947 4.60904C172.829 4.66512 173.512 4.63708 174.138 4.55297C174.337 4.52493 174.565 4.49689 174.821 4.45951C175.518 4.55297 176.03 4.48755 176.585 4.44082C177.125 4.39409 177.609 4.30998 178.576 4.34736C178.135 4.43147 177.751 4.49689 177.282 4.58101C179.217 4.7025 181.165 4.68381 183.043 4.66512C184.494 4.64643 183.826 4.78661 185.134 4.64643C184.793 4.49689 186.159 4.34736 185.376 4.30998C182.616 4.16979 179.842 4.03895 177.054 3.88007C177.097 3.87073 177.14 3.85203 177.381 3.83334C178.576 3.81465 179.8 3.78661 180.995 3.76792C181.535 3.75858 182.005 3.76792 182.36 3.824C183.356 3.99222 184.637 4.00157 186.073 3.94549C187.098 3.90811 188.122 3.87072 189.16 3.83334" fill="var(--fill-0, black)"/>
</g>
</svg>
