<?xml version="1.0" encoding="UTF-8"?>
<svg id="Layer_2" data-name="Layer 2" xmlns="http://www.w3.org/2000/svg" viewBox="0 0 457.51 43.86">
  <defs>
    <style>
      .cls-1 {
        fill: #fff;
      }
    </style>
  </defs>
  <g id="Layer_1-2" data-name="Layer 1">
    <path class="cls-1" d="M457.51,34.5c-2.31-.85-4.58-.36-6.85-.28-2.27.97-4.53-.75-6.84-.28-1.67.88-3.68-.25-5.31.09-1.16.28-1.8,1.95-3.07,1.08-2.26-.65-4.34.04-6.45.4-2.91,1.05-8.16-.67-10.04,1.21.07-.55-.19.32-.79,1.75-.36,1.09-.72,1.68-1.08,1.05-.57-.8-.74.38-1.39,1.34-1.49,2.68-3.95,2.2-5.71,1.62-.97.87-2.05-.5-3-.05-1.25-.46-2.19.16-3.57.57-2.33.01-4.65.88-6.98,0-2.33-.32-4.66,1.03-6.98.02-1.71-.14-3.41.37-5.12,0-3.27,2.06-6.37-.08-9.02-1.69-1.25-1.8-1.78-1.96-3.43-1.75-.53-1.47-1.14.92-1.65.09-.59,1.4-1.15-1.06-1.67-.93-.8.24-1.63-3.12-2.47-.37-1.36-1.79-2.34-.33-3.69-1.51-1.71-.08-3.56,2.4-5.23-.18-1.67-.69-2.92-3.09-4.6-2.53-.94-.86-1.95.8-2.9-.6-.95-.5-1.81-1.95-2.69-1.21-.95-.22-1.95.19-2.92-.09-1.23-.48-2.46-1.25-3.68-.01-1.67-2.03-2.92-.73-4.21.7-1.07.67-.43,1.23-1.8,1.03-.87-.44-1.86,1.06-2.73-.02-1.73.02-3.54-1.87-5.26.02-1.37-2.52-1.38,1-2.52-1.03-.7-1.99-1.19-.43-2.1-.75-1.28.22-2.15,1.15-3.59.62-1.46,1.43-3.27-.62-4.66-.1-.81-1.28-1.48-.05-2.27-1.34-1.2-.51-1.35.31-2.39-1.22-1.76-1.24-3.08-2.82-5.4-1.78-1.55.97-2.58,1.27-4.25,1.1-1.63.06-3.3,2.12-4.93-.06-1.39-.59-2.21-.58-3.52-.61-.94-2.09-2.49-2.13-3.25.54-.76,1.61-.72,1.62-1.45,2.28-.73-1.39-2.61,1.66-3.49.06-2.18.8-4.4-.49-6.62.09-2.22,2.33-4.42,0-6.55-.53-1.57.32-3.31-.51-4.75.38-1.05-1.02-2.13,3.1-3.19,2.16-1.03,1.37-1.03.84-1.74-.6-1.21-1.19-1.96-1.23-3.46-1.1-1.47.63-2.9.85-4.55.63-1.5-1.43-2.68-2.2-3.88-2.73-1.62-2.26-3.08-.63-4.88-1.18-1.34.05-2.72-1.66-4.16-.42-.08.19-1.09,2.14-1.23,1.16-.64,1.1-1.12.37-1.84,1.58-2.32-.87-4.86-.23-7.42,1.08-2.55-.26-5.11-1.91-7.48-1.12-1.75.11-3.54.7-5.3.03-1.83,1.51-4.04,2.08-5.78.1-1.03.6-1.57.79-2.84,1.07-1.29-.64-1.23-1.09-2.42.53-2.36.21-4.86,1.05-7.32.57-1.97,1.51-4.23.72-6.41.16-2.18-1.79-4.27-.35-5.91-1.71-.95.37-1.64-1.9-2.71-1.27-1.14-.76-1.63,1.57-2.7-1.61-1.81-1.56-3.41-2.13-5.57-1.25-1.48,1.22-2.96,2.12-4.44.01-1.65-.65-4.83-.41-5.74.64-.52.97-.11,1.62-1.05,2.56-.75.92-1.79,1.02-2.6.18-1.37.42-2.5-1.46-3.83.6-2.43,1.3-4.92-.5-7.3-.65-1.42.85-1.35.06-2.62,1.55-.84.3-1.53-.12-2.41.22-3.46-1.81-6.94-.78-10.4,0-1.74.31-3.87-1.72-5.32.53-.65,1-1.21,1.5-2.12,1.74-1.47.82-1.79-.87-3.02-2.1-1.02-1.55-1.92-.18-2.91.55-1.18,1.84-2.71.76-3.81.83-.45,2.07-1,1.15-1.29,1.19-.63-.02-1.21-.96-1.83.07-1.31-.86-1.87,1.18-3.25,1.17-1.1,1.41-2.46.09-3.53.07-.86,2.16-1.31,2.27-2.07,1.51-2.36,1.49-6.31.88-8.98.68-1.37.63-2.85-1.43-4.21.06-1.61-.94-2.78-2.04-4.32-1.25-1.49-1.23-3.15,2.72-4.61-.03-1.96.27-3.11-2.65-5.17-3.28-2.58-.8-5.04-1.3-7.74-1.78-1.23-.6-2.16-2.18-3.39-.52-2.66-1.78-4.94-.64-7.53-.13-2.83.72-5.27-.29-7.75-2.5-2.13-.46-4.44-.27-6.78-.87-2.33,1.5-4.69.02-6.92-.27-2.43-1.18-5.77-3.1-7.92-1.25-2.08,1.81-3.7,2.1-6.33,2.15-1.78-1.97-2.89,1.79-4.52,2.46-1.5,1.44-3.06.89-4.6.07-1.46,1.23-2.47-.53-4.06-.84-1-1.04-3.28.4-4.29-.03-1.8.22-3.49,2.37-5.19,3.47,0-.26.71-3.15,1.42-5.95.34-1.1.68-2.54.95-3.71V0h452.61v29.44c1.21,2.31,2.53,4.8,2.53,5.06Z"/>
  </g>
</svg>