<svg preserveAspectRatio="none" width="100%" height="100%" overflow="visible" style="display: block;" viewBox="0 0 57 59" fill="none" xmlns="http://www.w3.org/2000/svg">
<path id="Vector" d="M55.742 17.8992C52.7301 7.24664 40.173 1.7324 31.3373 0.465971C28.2555 0.02404 18.1771 -1.42048 10.0211 4.74676C-1.50323 13.4601 -3.14242 32.7896 5.38673 45.1175C10.7374 52.8546 21.4422 59.7803 31.957 57.6564C40.6028 55.9085 46.25 48.6232 48.0225 46.341C51.0376 42.4494 52.4236 38.8249 53.2732 36.5559C55.089 31.6913 57.6844 24.7557 55.7453 17.8992H55.742ZM33.2764 28.7166C30.1579 28.9441 27.0261 29.208 23.891 29.5345C24.0409 29.4355 23.9043 29.3465 23.7311 29.4586C23.5545 29.5707 23.4279 29.6136 23.2813 29.5543C24.0942 29.0793 22.9714 29.3959 22.2618 29.452C20.9391 29.5608 19.7097 29.574 18.477 29.5971C17.8606 29.6103 17.2409 29.6268 16.6245 29.64C16.0148 29.6631 13.6827 29.4223 13.3162 29.5411C13.2062 29.5773 13.1163 29.5477 13.0163 29.5477C12.9763 29.5477 12.9463 29.5312 12.9064 29.5444C12.5266 29.6598 12.1834 29.7159 11.8602 29.7422C11.537 29.7752 11.2339 29.7818 10.9273 29.7884C9.47472 29.8478 8.11538 29.8346 6.856 29.762C6.73606 29.7554 6.63278 29.7257 6.5195 29.7027C6.54616 29.673 6.56614 29.64 6.5928 29.6136C7.15586 29.5971 7.70559 29.5707 8.26864 29.5806C8.31529 29.5641 8.31862 29.5444 8.32195 29.5279C7.70892 29.4124 7.08922 29.3828 6.47286 29.3333C6.07306 29.3036 5.69657 29.2706 5.3101 29.2376C5.26678 29.2343 5.2368 29.208 5.15684 29.1783C5.34008 29.1024 5.45669 29.0563 5.57663 29.0035C5.60995 28.9639 5.58996 28.9309 5.57663 28.8947C5.49334 28.8815 5.4467 28.8881 5.39672 28.898C5.34674 28.9012 5.32342 28.9078 5.30677 28.9045C5.23347 28.9078 5.18349 28.9177 5.13352 28.9276C5.08354 28.9309 5.06022 28.9342 5.04356 28.9375C4.99359 28.9408 4.9736 28.9474 4.95694 28.9474C4.91362 28.9474 4.8903 28.9507 4.87031 28.9573C4.83033 28.954 4.80701 28.9606 4.78702 28.9672C4.74371 28.9672 4.72039 28.9771 4.7004 28.9837C4.66042 28.9771 4.64043 28.9804 4.62377 28.9837C4.64043 28.9672 4.65708 28.9507 4.67374 28.9342C4.72039 28.9309 4.74371 28.921 4.7637 28.9111C4.81034 28.9045 4.83366 28.9012 4.85032 28.9012C4.89363 28.8947 4.92029 28.8848 4.94694 28.8683C5.00025 28.8551 5.02024 28.8551 5.0369 28.8584C5.08021 28.8551 5.10353 28.8518 5.12019 28.8518C5.19682 28.8452 5.24679 28.8353 5.29677 28.8221C5.34008 28.8287 5.3634 28.8221 5.38339 28.8188C5.46002 28.8122 5.51 28.8023 5.55997 28.7924C5.80985 28.7825 6.02308 28.7561 6.24297 28.7396C6.90931 28.7034 6.70274 28.3439 5.26012 28.3703C4.74371 28.367 4.25728 28.3736 3.74753 28.3802C3.68756 28.3703 3.66757 28.3703 3.64092 28.367C3.64425 28.334 3.62759 28.3505 3.6076 28.3604C3.61759 28.3472 3.63092 28.334 3.64425 28.3208H3.63425C3.67423 28.3142 3.70089 28.2944 3.72421 28.2812C4.05072 28.1823 4.37056 28.0899 4.6904 27.9943C5.00358 27.9151 5.32009 27.8393 5.62661 27.7634C6.02974 27.6612 6.41289 27.6282 6.83935 27.5557C6.88599 27.371 7.06257 27.2424 7.26914 27.1566C7.67227 26.9851 8.07541 26.8202 8.47854 26.652C8.75507 26.5465 9.0316 26.4409 9.30813 26.3255C9.7046 26.1639 10.0111 26.1111 10.1077 26.3222C10.1411 26.3948 10.251 26.3816 10.3876 26.3387C10.6975 26.253 11.004 26.1606 11.3171 26.0749C11.3971 26.0287 11.4171 26.0089 11.4371 25.9891C10.894 25.8836 10.331 25.8242 9.77457 25.7451C9.61465 25.7286 9.43141 25.7154 9.47139 25.5076C9.89784 25.2438 10.2643 25.2174 10.6308 25.125C11.1072 25.0096 12.6298 24.9601 12.7065 24.9074C12.9364 24.7557 13.1229 24.6963 13.2862 24.7458C13.5327 24.8117 13.7626 24.8975 14.0625 24.9041C14.6522 24.914 15.2619 24.9272 15.8916 24.9008C18.1904 24.8282 20.4793 24.815 22.7682 24.8249C23.6777 24.815 24.6173 24.8084 25.5435 24.7985C25.6968 24.7985 25.8433 24.7854 25.9533 24.6172C26.2765 24.7128 26.4964 24.8843 27.1127 24.6633C26.9561 24.8216 27.0161 24.8579 27.1627 24.8546C27.6158 24.8546 28.0489 24.881 28.5187 24.8546C29.355 24.8051 30.2145 24.7326 31.0641 24.6732C31.1474 24.6666 31.2207 24.6732 31.314 24.6765C31.4906 24.5776 31.6805 24.4819 31.8537 24.3764C32.0037 24.2907 32.0736 24.2016 31.9837 24.1455C31.8937 24.1291 31.8404 24.1291 31.7871 24.1324C31.6905 24.1159 31.6238 24.1159 31.5539 24.1093C31.5039 24.0994 31.4673 24.1093 31.4273 24.1192C31.4239 24.1192 31.4239 24.1126 31.4206 24.1093C31.4573 24.0961 31.4872 24.0829 31.5206 24.073C31.5872 24.073 31.6238 24.0598 31.6638 24.0433C31.6705 24.0268 31.6672 24.0103 31.6672 24.007C31.6605 23.9806 31.6338 23.9642 31.6039 23.9642C31.7538 23.9708 31.9737 23.9773 32.2435 23.9773C32.5401 23.974 32.68 23.9609 32.9065 23.9543C33.3297 23.9477 33.6329 23.9773 33.8228 23.9938C34.4924 24.0433 37.0179 24.1752 39.7698 23.9411C39.9897 23.9246 40.1597 23.9048 40.2596 23.8982C39.6166 23.4859 38.827 23.0341 37.9607 22.6318C37.8075 22.5625 37.6875 22.5097 37.6176 22.4768C37.6675 22.4702 37.6975 22.4636 37.7009 22.4504C37.7075 22.4273 37.6575 22.4009 37.5443 22.3679C37.7075 22.3514 37.9108 22.3086 37.9441 22.2261C37.9707 22.1635 37.8974 22.0942 37.8541 22.0645C37.6209 21.8897 37.341 21.7248 37.0345 21.5863C35.9351 21.0949 34.9222 20.5606 33.9227 20.0264C33.8927 19.9901 33.8727 19.9802 33.8527 19.967C33.8494 19.9406 33.8128 19.934 33.7761 19.9307C33.8094 19.9274 33.8428 19.9274 33.8794 19.9241C33.9061 19.9538 33.9294 19.9571 33.956 19.9604C34.0527 19.9967 34.1193 20.0132 34.1926 20.0362C34.2525 20.0428 34.2625 20.0362 34.2725 20.0297C34.4025 19.9472 34.3059 19.9142 34.2459 19.8845C33.9027 19.7097 33.5596 19.5416 33.2064 19.3734C33.0065 19.2777 32.7866 19.1953 32.5234 19.0831C32.76 19.0502 32.9265 19.0238 33.1398 18.9941C32.4768 18.7335 31.8537 18.473 31.3406 18.1531C32.4801 18.4466 32.2402 18.1927 32.057 18.1069C31.5206 17.853 30.9908 17.6089 30.4777 17.355C30.2612 17.2461 30.0779 17.1175 30.1479 16.8933C30.5077 16.8834 30.8142 16.9427 31.1008 17.0153C32.2169 17.2923 32.3368 17.2659 31.4506 16.979C31.1141 16.8702 30.7876 16.7449 30.4211 16.6756C29.5882 16.5239 29.1217 16.1281 28.502 15.9335C28.3221 15.8808 28.1755 15.7983 28.0723 15.7423C28.2955 15.6565 28.4954 15.7423 28.7053 15.7884C29.878 16.0754 31.1074 16.5074 32.3102 16.9328C32.8732 17.1307 33.443 17.3352 34.0093 17.5364C34.086 17.5628 33.5929 17.2626 33.1764 17.1109C32.2669 16.7745 31.3506 16.448 30.4411 16.1479C30.4044 16.138 30.3778 16.1149 30.3745 16.0688C30.4777 16.0919 30.5844 16.1083 30.681 16.1314C31.1474 16.2502 31.6172 16.3788 32.087 16.5074C32.1103 16.4612 32.0736 16.4216 32.027 16.3821C32.0403 16.3755 32.057 16.3689 32.067 16.3557L32.3668 16.4876C32.4668 16.5305 32.57 16.5536 32.67 16.5701C33.2131 16.7515 33.7295 16.9196 34.2459 17.0944C34.3125 17.0516 34.3192 17.0285 34.3325 16.9823C34.4058 17.0153 34.4591 17.0351 34.5657 17.0812C34.4425 17.078 34.3991 17.078 34.3525 17.0747C34.3425 17.1901 34.5324 17.2033 34.6857 17.2461C34.749 17.2429 34.7523 17.2231 34.7523 17.2231C34.7356 17.1967 34.7157 17.1901 34.7057 17.1802C34.6723 17.1472 34.6557 17.1307 34.6357 17.1142C34.669 17.1175 34.699 17.1208 34.7257 17.1241C34.7656 17.1505 34.779 17.1571 34.7956 17.167C35.1888 17.3253 35.5752 17.4671 35.9584 17.6089C36.2516 17.7474 36.5314 17.8596 36.818 17.9717C37.1645 18.1069 37.521 18.2421 37.8674 18.3807C39.0635 18.8523 40.2729 19.3173 41.4324 19.8252C42.2853 20.2011 43.0616 20.6233 43.8745 21.0322C43.9345 21.0619 44.3609 21.3291 44.4642 21.3225C44.5708 21.3159 44.6508 21.2895 44.8274 21.3291C45.2938 21.6028 45.7636 21.8798 46.23 22.1569C46.6964 22.4438 47.1862 22.7274 47.586 23.0539C47.6826 23.1364 47.7959 23.2155 47.8425 23.3112C47.9092 23.4068 47.9691 23.4958 48.0058 23.5849L48.2623 24.1126C48.2623 24.1126 48.6122 24.5941 48.6155 24.5941V24.6106C48.6288 24.7095 48.6422 24.8942 48.6422 24.8942C48.6422 24.9964 48.6355 25.0921 48.6122 25.1976C48.5722 25.3889 48.5422 25.5901 48.4922 25.7978L48.4522 25.9561L48.3823 26.1144C48.3423 26.2233 48.2757 26.3321 48.219 26.4409C47.9658 26.8763 47.606 27.3083 47.2328 27.747C46.8564 28.1823 46.4566 28.6176 46.0534 29.053L45.9035 29.2179L45.8169 29.3168L45.6636 29.4949L45.3538 29.8511C45.3771 29.6994 45.2372 29.706 45.2072 29.8808C45.1772 30.0555 45.1305 30.1545 45.0039 30.1842C45.0839 29.7983 44.7074 30.2303 44.3209 30.636C43.5946 31.3945 42.845 32.0178 42.0954 32.6379C41.3391 33.2645 40.5794 33.868 39.8165 34.4815C39.7865 34.4683 39.7765 34.4847 39.7632 34.4979C39.7698 34.4814 39.7732 34.465 39.7765 34.4485C39.8132 34.4221 39.8298 34.3792 39.8631 34.3001C39.7265 34.3297 39.6166 34.3594 39.5033 34.3825C39.3967 34.5705 39.4034 34.8014 39.2801 34.9201C39.1668 35.0058 39.0868 35.0817 39.0102 35.1509C38.8103 35.3125 38.6337 35.4774 38.4572 35.639C38.4072 35.6819 38.3805 35.7281 38.3439 35.8039C38.4072 35.8369 38.4605 35.8699 38.5171 35.8996V35.9655C38.3505 36.0447 38.1806 36.1271 38.004 36.2162C38.054 35.9787 38.144 35.8435 38.4038 35.5962C38.6071 35.4313 38.7803 35.2631 38.9536 35.1048C39.0335 35.0355 39.0902 34.9663 39.1435 34.8937C39.2134 34.7288 39.2634 34.62 39.3201 34.5078C39.1102 34.5936 38.9236 34.7585 38.757 35.0157C38.707 35.0949 38.6304 35.1147 38.5638 35.1542C38.5371 35.1707 38.5038 35.1707 38.4871 35.2004C38.1207 35.7215 37.7109 35.9787 37.3077 36.2558C36.3449 36.9121 35.3787 37.4496 34.4058 37.8223C34.3159 37.8586 34.2226 37.8685 34.1326 37.8916V37.786C34.5357 37.575 34.9322 37.3672 35.332 37.1528C35.3553 37.1198 35.3454 37.1067 35.342 37.0902C34.8456 37.232 34.3725 37.42 33.9027 37.5849C33.5995 37.6937 33.2964 37.7761 32.9932 37.8685C32.9599 37.8751 32.9265 37.8652 32.8532 37.8652C32.9532 37.7465 33.0132 37.6706 33.0798 37.5915C33.0831 37.5486 33.0531 37.5222 33.0265 37.4958C32.9565 37.509 32.9265 37.5288 32.8932 37.5552C32.8566 37.5717 32.8466 37.5849 32.8299 37.5882C32.7799 37.6145 32.7466 37.6343 32.7133 37.6574C32.68 37.6739 32.6667 37.6871 32.65 37.6937C32.6167 37.7102 32.6067 37.7234 32.59 37.7267C32.5567 37.7366 32.5434 37.7498 32.5301 37.7597C32.4967 37.7662 32.4834 37.7761 32.4701 37.7893C32.4334 37.7992 32.4235 37.8157 32.4068 37.8289C32.3735 37.8289 32.3635 37.8355 32.3535 37.8454C32.3568 37.8289 32.3635 37.8091 32.3668 37.7926C32.4001 37.7761 32.4101 37.7597 32.4268 37.7465C32.4601 37.7333 32.4701 37.7201 32.4868 37.7168C32.5201 37.7036 32.5301 37.6838 32.5467 37.6673C32.5834 37.6409 32.5934 37.6343 32.61 37.631C32.6433 37.6178 32.6533 37.6046 32.67 37.6013C32.72 37.5717 32.7533 37.5486 32.7833 37.5255C32.8199 37.5189 32.8299 37.5024 32.8466 37.4958C32.8966 37.4661 32.9299 37.4463 32.9632 37.42C33.1398 37.3375 33.2864 37.2551 33.4363 37.1693C33.8894 36.9154 34.3225 36.6746 34.749 36.3844C34.9422 36.2492 35.1321 36.0381 35.3254 35.86L35.6019 35.6028C35.6285 35.5368 35.6319 35.5071 35.6319 35.4807C34.5957 36.0843 33.5696 36.7208 32.5367 37.1495C32.1702 37.3012 31.8004 37.4068 31.4373 37.5288C31.3906 37.5321 31.3706 37.5354 31.3573 37.5387C31.344 37.509 31.334 37.5255 31.3273 37.5387C31.3273 37.5255 31.3307 37.509 31.334 37.4958H31.324C31.354 37.4859 31.364 37.4628 31.374 37.4463C31.7604 37.1396 32.1269 36.823 32.4934 36.5295C32.73 36.3382 32.9699 36.1733 33.2331 35.982C33.1664 35.8072 33.2231 35.6522 33.313 35.5104C33.4929 35.2334 33.6728 34.9531 33.8494 34.6793C33.9694 34.488 34.0893 34.3034 34.2092 34.1088C34.3725 33.8317 34.5424 33.6701 34.729 33.8021C34.799 33.8482 34.8589 33.7955 34.9256 33.7064C35.0722 33.5118 35.2187 33.3206 35.3653 33.126C35.392 33.0567 35.392 33.0303 35.392 33.0072C34.9822 33.1425 34.5791 33.3107 34.1793 33.4657C34.066 33.5085 33.9394 33.5679 33.8428 33.3832C33.966 33.0171 34.1759 32.8489 34.3592 32.6346C34.5924 32.3608 35.5186 31.7012 35.5353 31.632C35.5819 31.4143 35.6585 31.289 35.7951 31.256C35.985 31.2065 36.1816 31.1736 36.3715 31.0548C36.7447 30.8174 37.1211 30.5469 37.491 30.2501C38.4805 29.452 39.4767 28.6506 40.4562 27.836C39.5966 27.9481 38.7404 28.0537 37.8974 28.146C36.718 28.2746 35.5786 28.334 34.4291 28.4296C34.3425 28.4362 34.2659 28.4362 34.1226 28.4362C34.3059 28.3472 34.4291 28.2812 34.5524 28.2153" fill="var(--fill-0, #459BB0)"/>
</svg>
