<svg width="728" height="108" viewBox="0 0 728 108" fill="none" xmlns="http://www.w3.org/2000/svg">
<path d="M713.19 104.161C632.84 108.313 94.4086 107.019 14.391 104.365C9.4801 103.727 4.65091 101.397 2.04933 96.466C-1.03082 91.4314 0.404823 81.8449 0.670292 73.9232C1.01438 66.7152 1.59129 59.1673 1.61269 52.1814C1.3662 41.2941 0.245667 29.6871 0.0289364 18.6819C-0.222337 8.77873 5.44457 1.63355 13.9839 0.867751C91.255 2.25683 633.677 -0.0307755 711.108 0.775959C714.356 1.0908 717.629 2.00162 720.161 4.36873C725.52 9.10952 725.685 17.2594 726.053 24.425C726.428 32.7964 727.144 41.3683 727.238 49.6777C727.076 59.2141 726.479 69.7559 726.126 79.5143C725.78 85.7105 725.949 91.8921 723.819 96.0737C721.72 100.602 717.614 103.324 713.297 104.147L713.19 104.167L713.19 104.161Z" fill="#181818"/>
</svg>
