<svg preserveAspectRatio="none" width="100%" height="100%" overflow="visible" style="display: block;" viewBox="0 0 185 52" fill="none" xmlns="http://www.w3.org/2000/svg">
<g id="Group">
<path id="Vector" d="M0 1.65246C0.0786011 1.5161 0.189567 1.43521 0.233492 1.3289C0.462359 0.769607 0.894666 0.450671 1.44719 0.284269C2.02282 0.108623 2.61002 0 3.21802 0C45.5702 0.00231113 87.9223 0.00231102 130.274 0.00462215C130.508 0.00462215 130.751 0.0138667 130.977 0.0739561C131.342 0.171024 131.534 0.480715 131.49 0.822763C131.449 1.1417 131.153 1.39361 130.792 1.40979C130.649 1.41672 130.508 1.40979 130.365 1.40979C87.9963 1.40979 45.6279 1.40979 3.26195 1.41441C2.88512 1.41441 2.50368 1.45832 2.13379 1.52766C1.68761 1.61086 1.45874 1.91593 1.44025 2.36198C1.43563 2.45673 1.44025 2.55149 1.44025 2.64625C1.44025 18.0892 1.44025 33.5345 1.43563 48.9775C1.43563 49.3219 1.4888 49.6408 1.65062 49.9343C1.83557 50.2717 2.09911 50.5029 2.52217 50.4705C2.69556 50.4566 2.87125 50.4705 3.04464 50.4705C35.9693 50.4705 68.8939 50.4705 101.818 50.4705C101.946 50.4705 102.073 50.4705 102.198 50.4705C102.63 50.4797 102.861 50.7155 102.863 51.1477C102.863 51.5498 102.639 51.7809 102.221 51.8017C102.11 51.8063 101.999 51.8017 101.888 51.8017C68.7251 51.8017 35.5624 51.7994 2.40196 51.8156C1.57202 51.8156 0.56639 51.254 0.277416 50.3734C0.235803 50.244 0.136396 50.1331 0.034677 49.999C0.0046236 33.8881 0.00462359 17.7934 0.00462359 1.65246H0Z" fill="var(--fill-0, white)"/>
<path id="Vector_2" d="M184.725 50.038C184.642 50.3315 184.598 50.6065 184.468 50.8284C184.103 51.457 183.564 51.8083 182.804 51.806C172.505 51.8014 162.208 51.8037 151.909 51.8037C140.865 51.8037 129.824 51.8037 118.781 51.8037C118.638 51.8037 118.494 51.8106 118.353 51.8037C118.006 51.7852 117.759 51.5518 117.72 51.2167C117.683 50.907 117.953 50.5418 118.277 50.4864C118.432 50.4609 118.594 50.4748 118.751 50.4748C131.505 50.4748 144.259 50.4748 157.011 50.4748C165.44 50.4748 173.869 50.4748 182.298 50.4748C183.132 50.4748 183.342 50.2714 183.384 49.4209C183.389 49.3262 183.384 49.2314 183.384 49.1367C183.384 33.837 183.384 18.5373 183.379 3.2376C183.379 2.89324 183.345 2.54195 183.275 2.20453C183.204 1.86248 182.989 1.60132 182.628 1.52505C182.383 1.4719 182.129 1.43723 181.879 1.43723C170.947 1.43261 160.016 1.43261 149.084 1.43261C148.941 1.43261 148.797 1.44185 148.656 1.42799C148.393 1.40487 148.166 1.20843 148.115 0.975005C148.034 0.600601 148.115 0.330199 148.409 0.205398C148.603 0.122197 148.834 0.0875301 149.049 0.0875301C160.107 0.0829078 171.166 0.0852189 182.224 0.0782855C182.802 0.0782855 183.326 0.249309 183.796 0.533578C184.156 0.750825 184.411 1.11598 184.538 1.53892C184.589 1.70532 184.623 1.87403 184.693 2.06586C184.718 18.0589 184.718 34.0288 184.718 50.0426L184.725 50.038Z" fill="var(--fill-0, white)"/>
</g>
</svg>
