<svg width="268" height="64" viewBox="0 0 268 64" fill="none" xmlns="http://www.w3.org/2000/svg">
<path d="M251.911 61.8895C165.213 64.312 101.332 63.7778 15.0023 62.1338C9.70467 61.7487 5.36981 62.0761 2.56938 59.1277C-0.747265 56.1171 -0.0159709 52.1455 0.280849 47.4123C0.661553 43.1056 1.25174 35.1176 1.28401 30.9435C1.03236 24.4379 1.02448 17.8191 0.805095 11.2431C0.546991 5.32553 5.48466 0.742803 14.699 0.291429C98.0667 1.17761 166.259 -0.424972 249.801 0.113364C253.304 0.303852 256.834 0.85047 259.563 2.26671C265.338 5.10333 265.506 9.9732 265.893 14.255C266.287 19.2574 267.048 24.3799 267.139 29.345C266.951 35.0431 266.293 41.3416 265.9 47.1722C265.519 50.8743 265.693 54.5681 263.39 57.0652C261.118 59.7693 256.686 61.3926 252.027 61.8812L251.911 61.8936V61.8895Z" fill="#181818"/>
</svg>
