<svg preserveAspectRatio="none" width="100%" height="100%" overflow="visible" style="display: block;" viewBox="0 0 232 5" fill="none" xmlns="http://www.w3.org/2000/svg">
<g id="Layer 1">
<path id="Vector" d="M214.404 2.98287C216.734 3.02026 218.856 3.06699 220.996 3.09502C224.292 3.13241 227.623 3.16044 231.109 3.20717C231.23 3.20717 231.351 3.20717 231.592 3.20717H231.523C231.523 3.20717 231.592 3.18848 231.644 3.17914C231.558 3.17914 231.489 3.17914 231.42 3.16044C231.282 3.16044 231.144 3.14175 230.781 3.12306C227.744 2.99222 224.776 2.84269 221.704 2.72119C213.058 2.38474 226.191 2.65577 217.251 2.41278C217.303 2.39409 217.372 2.38474 217.666 2.36605C218.528 2.36605 219.391 2.3754 220.254 2.38474C222.032 2.39409 223.844 2.38474 225.569 2.42213C229.314 2.49689 210.935 2.11372 214.835 2.22587C216.13 2.26325 217.407 2.30063 218.874 2.34736C219.15 2.34736 219.443 2.35671 219.892 2.3754C219.995 2.3754 220.116 2.3754 220.41 2.39409C220.686 2.39409 220.979 2.39409 221.41 2.41278C221.514 2.41278 221.635 2.41278 221.911 2.43147C222.014 2.43147 222.135 2.43147 222.446 2.45016C222.584 2.45016 222.705 2.45016 222.964 2.45016C223.084 2.45016 223.205 2.45016 223.481 2.46886C223.602 2.46886 223.723 2.46886 223.999 2.46886C224.068 2.46886 224.137 2.45016 224.223 2.45016C224.103 2.45016 223.999 2.45016 223.757 2.43147C223.619 2.43147 223.499 2.43147 223.24 2.42213C223.119 2.42213 222.998 2.42213 222.739 2.40344C222.618 2.40344 222.498 2.40344 222.222 2.38474C222.101 2.38474 221.997 2.38474 221.721 2.3754C221.6 2.3754 221.479 2.3754 221.186 2.35671C220.91 2.35671 220.617 2.34736 220.185 2.32867C220.064 2.32867 219.944 2.32867 219.65 2.30998C219.374 2.30998 219.098 2.30063 218.563 2.27259C218.39 2.24456 218.201 2.21652 218.304 2.18848C218.925 2.18848 219.547 2.16979 220.479 2.16044C219.909 2.12306 219.685 2.09502 219.426 2.08568C216.958 1.96418 232.904 2.56231 230.401 2.45951C226.519 2.29129 226.277 1.90811 222.239 1.71185C222.222 1.7025 222.187 1.68381 222.411 1.68381C225.828 1.78661 225.552 2.12306 228.969 2.22587C229.038 2.20717 229.107 2.18848 229.159 2.16979C228.417 2.13241 231.385 1.86138 230.609 1.824C222.532 1.48755 214.231 1.24456 205.775 1.06699C202.203 0.99222 198.631 0.898762 194.955 0.982875C194.765 0.982875 194.524 0.973529 194.282 0.964183C193.713 0.945491 193.074 0.917454 192.556 0.9268C190.831 0.973529 189.139 0.954837 187.396 0.889417C187.983 0.861379 188.587 0.833342 189.416 0.777267C189.951 0.777267 190.485 0.758575 191.21 0.777267C192.815 0.777267 194.42 0.795959 196.249 0.81465C198.665 0.823996 199.58 0.805304 200.357 0.702501C198.89 0.655772 197.457 0.599697 196.025 0.552968C195.991 0.562314 195.939 0.57166 195.904 0.590351C196.267 0.63708 196.646 0.683809 197.06 0.739884C196.646 0.758575 196.37 0.767921 195.904 0.767921C194.299 0.758575 192.677 0.74923 190.865 0.730538C190.14 0.730538 189.416 0.721192 188.397 0.702501C187.241 0.702501 186.879 0.823996 185.757 0.870725C184.86 0.823996 183.962 0.777267 182.892 0.721192C183.289 0.693155 183.479 0.683809 183.807 0.683809C183.876 0.683809 183.945 0.674463 183.997 0.665118C183.876 0.665118 183.772 0.665117 183.548 0.646426C176.697 0.552968 169.846 0.450164 162.977 0.366052C156.178 0.28194 149.379 0.188482 142.51 0.179136C138.817 0.179136 135.573 0.263248 133.002 0.581005C131.69 0.739884 130.24 0.889417 128.722 1.02026C128.653 1.00157 128.566 0.99222 128.67 0.954837C131.259 0.646426 133.847 0.34736 136.522 0.0296035C135.504 -0.0264713 134.952 0.00156608 134.399 0.0763324C133.864 0.151099 133.312 0.244557 131.88 0.216519C132.415 0.132407 132.795 0.0763324 133.243 0.0109119C117.349 0.0669866 101.576 0.113716 85.9238 0.16979C83.5423 0.534276 81.2644 0.880071 78.9001 1.20717C78.8484 1.19783 78.7966 1.18848 78.8484 1.1511C79.5214 0.9268 81.2816 0.74923 81.0918 0.496893C81.506 0.450164 81.9201 0.403435 82.5069 0.338015C81.7648 0.338015 81.3334 0.338015 80.9192 0.338015C75.1898 0.366052 69.4259 0.375398 63.731 0.431473C55.9998 0.515585 48.303 0.646426 40.589 0.74923C38.3456 0.777267 36.0676 0.81465 33.8069 0.852033C31.9777 0.880071 30.1484 0.898762 28.0775 0.908108C25.6443 0.945491 23.1937 0.982875 20.5879 1.01091C20.4671 1.01091 20.3463 1.01091 20.0357 1.01091C19.8976 1.01091 19.7423 1.0296 19.6042 1.03895C19.7941 1.03895 19.9666 1.0483 20.3118 1.05764C20.4326 1.05764 20.5534 1.05764 20.7777 1.06699C20.7777 1.06699 20.8985 1.08568 20.6914 1.10437C19.8286 1.13241 18.983 1.18848 18.2409 1.10437C18.4307 1.08568 18.6033 1.07633 19.121 1.03895C18.3962 1.03895 18.0338 1.0483 17.5161 1.05764C17.7922 1.09502 17.9303 1.11372 17.9475 1.16044C14.7722 1.22587 11.5969 1.29129 8.19719 1.33801C7.66222 1.35671 7.10999 1.38474 6.40244 1.38474C5.71215 1.38474 5.03912 1.38474 4.34883 1.39409C4.34883 1.40344 4.34883 1.41278 4.34883 1.42213C4.78026 1.43147 5.21169 1.45016 5.41877 1.48755C2.65762 1.55297 7.04096 1.45016 4.26254 1.51558C3.69305 1.53428 3.12356 1.55297 2.57133 1.57166C2.88196 1.5997 3.14082 1.60904 3.36516 1.60904C9.24988 1.52493 7.97285 1.61839 13.8576 1.54362C16.5497 1.50624 19.2418 1.46886 21.934 1.45951C21.8649 1.4782 21.7959 1.48755 21.4853 1.52493C21.0021 1.53428 20.5189 1.54362 20.0357 1.55297C16.4116 1.60904 12.8049 1.66512 9.19811 1.72119C1.43235 1.83334 12.0801 1.67446 4.31431 1.79596C2.88196 1.81465 1.31155 1.79596 0 1.90811C1.41509 1.93615 2.83019 1.95484 4.21077 1.95484C8.85297 1.9268 0 2.23521 4.62494 2.06699C6.67855 1.99222 3.95191 2.08568 6.09181 2.03895C11.6486 1.94549 17.1882 1.83334 22.7451 1.75858C29.3546 1.66512 35.9986 1.5997 42.6427 1.52493C44.2131 1.50624 45.8007 1.49689 47.3884 1.48755C47.4057 1.49689 47.4402 1.51558 47.4574 1.52493C46.2494 1.56231 45.0414 1.60904 43.7989 1.62773C37.431 1.71185 31.0458 1.8053 24.6606 1.88007C18.0338 1.95484 11.3725 2.01091 4.86654 2.18848C3.17533 2.23521 4.57317 2.30063 3.1063 2.42213C4.33157 2.5997 2.95099 2.62773 4.59043 2.63708C8.47331 2.64643 12.3734 2.63708 16.2563 2.63708C17.6024 2.63708 18.9139 2.61839 20.2945 2.64643C21.2437 2.66512 22.5034 2.73054 23.1592 2.57166C23.211 2.56231 23.5044 2.56231 23.6769 2.56231C27.1629 2.51558 30.6489 2.46886 34.3419 2.53428C34.411 2.54362 34.4627 2.55297 34.2384 2.57166C27.37 2.66512 20.4498 2.73054 13.685 2.91745C17.9993 2.96418 22.2791 2.93615 26.7315 2.88007C26.0757 2.97353 25.5925 3.0483 24.9022 3.16044C26.7142 3.14175 28.1638 3.12306 29.6134 3.12306C32.1503 3.11372 34.6698 3.11372 37.1894 3.10437C37.6381 3.10437 38.2421 3.09502 38.3283 3.19783C38.3283 3.19783 38.3283 3.21652 38.0522 3.23521C37.6381 3.24456 37.2066 3.2539 36.5854 3.26325C36.4646 3.26325 36.3438 3.27259 36.0504 3.26325C35.9296 3.27259 35.8088 3.29129 35.688 3.30063C35.8606 3.29129 36.0676 3.28194 36.2402 3.30063C36.3955 3.30063 36.5508 3.30063 36.9305 3.31932C44.5237 3.33801 52.1169 3.33801 59.6928 3.27259C61.8327 3.2539 64.0244 3.27259 66.147 3.30063C68.0108 3.32867 68.3042 3.45951 67.0962 3.61839C66.0607 3.75858 64.6802 3.83334 63.0752 3.84269C60.4866 3.84269 57.8808 3.84269 55.2922 3.84269C53.2559 3.84269 51.2195 3.824 49.1832 3.824C47.7681 3.824 46.3184 3.91745 45.0242 3.77727C44.9896 3.77727 44.8861 3.77727 44.8516 3.77727C43.0913 3.85203 41.2448 3.8053 39.4846 3.83334C38.5699 3.85203 37.8451 3.85203 37.1031 3.8053C36.292 3.75858 35.3601 3.73054 34.6698 3.78661C33.8932 3.85203 33.0821 3.85203 32.2365 3.86138C30.9422 3.87073 29.648 3.88942 28.1466 3.88942C27.301 3.89876 26.4381 3.90811 25.5925 3.91745C25.5925 3.93615 25.627 3.95484 25.627 3.96418C26.6452 3.96418 27.6634 3.96418 28.9231 3.96418C34.4109 3.97353 39.916 3.98287 45.4211 3.99222C52.2722 4.01091 59.1233 4.0483 65.9744 4.06699C74.0681 4.09502 82.1617 4.12306 90.2554 4.14175C96.4335 4.1511 102.612 4.16979 108.772 4.16044C114.347 4.1511 119.886 4.17914 125.426 4.23521C134.658 4.32867 143.891 4.42213 153.106 4.51558C162.08 4.60904 171.054 4.73054 180.045 4.824C188.397 4.91745 196.784 5.01091 205.206 4.99222C206.828 4.99222 208.485 4.99222 210.366 4.93615C209.141 4.78661 207.605 4.79596 206.069 4.73054C202.531 4.65577 198.993 4.58101 195.231 4.49689C193.264 4.46886 191.366 4.41278 189.381 4.38474C181.443 4.29129 173.556 4.16979 165.618 4.07633C162.08 4.0296 158.491 4.02026 154.694 3.98287C151.432 3.96418 148.136 3.93615 144.65 3.90811C143.097 3.88942 141.544 3.87072 139.991 3.90811C141.717 3.94549 143.442 3.97353 145.427 3.97353C148.533 4.00157 151.657 4.0296 154.987 4.07633C162.546 4.16979 170.105 4.2539 177.663 4.34736C183.548 4.42213 189.433 4.49689 195.559 4.59035C197.958 4.62773 200.357 4.66512 202.755 4.71185C203.135 4.71185 203.497 4.75858 203.618 4.79596C199.252 4.76792 194.869 4.74923 190.52 4.69316C182.098 4.5997 173.711 4.4782 165.307 4.39409C154.918 4.29129 144.512 4.20717 134.123 4.11372C127.169 4.0483 120.231 3.97353 113.294 3.89876C112.983 3.89876 112.69 3.87072 112.604 3.83334C112.759 3.824 112.914 3.81465 113.242 3.81465C113.363 3.81465 113.501 3.8053 113.622 3.79596C113.587 3.79596 113.553 3.78661 113.535 3.79596C113.38 3.79596 113.225 3.8053 112.897 3.79596C112.534 3.79596 112.155 3.79596 111.603 3.76792C111.326 3.76792 111.05 3.76792 110.498 3.74923C109.808 3.7025 109.825 3.63708 110.274 3.57166C110.809 3.49689 111.413 3.43147 111.948 3.35671C112.448 3.35671 112.862 3.3754 113.277 3.3754C117.522 3.3754 121.784 3.34736 126.03 3.35671C128.428 3.35671 130.827 3.40344 133.226 3.42213C133.985 3.42213 134.468 3.45951 134.227 3.57166C136.66 3.43147 138.507 3.57166 140.595 3.67446C140.526 3.55297 141.268 3.54362 142.079 3.55297C146.997 3.5997 151.916 3.64643 156.834 3.7025C169.156 3.86138 181.477 4.03895 193.782 4.20717C197.147 4.2539 200.495 4.31932 203.791 4.39409C205.448 4.43147 207.018 4.52493 208.588 4.60904C209.658 4.66512 210.487 4.63708 211.246 4.55297C211.488 4.52493 211.764 4.49689 212.074 4.45951C212.92 4.55297 213.541 4.48755 214.214 4.44082C214.87 4.39409 215.457 4.30998 216.63 4.34736C216.095 4.43147 215.629 4.49689 215.06 4.58101C217.407 4.7025 219.771 4.68381 222.049 4.66512C223.809 4.64643 222.998 4.78661 224.586 4.64643C224.172 4.49689 225.828 4.34736 224.879 4.30998C221.531 4.16979 218.166 4.03895 214.784 3.88007C214.835 3.87073 214.887 3.85203 215.181 3.83334C216.63 3.81465 218.114 3.78661 219.564 3.76792C220.22 3.75858 220.789 3.76792 221.221 3.824C222.429 3.99222 223.982 4.00157 225.725 3.94549C226.967 3.90811 228.21 3.87072 229.47 3.83334" fill="var(--fill-0, black)"/>
</g>
</svg>
