<?xml version="1.0" encoding="UTF-8"?>
<svg id="Layer_2" data-name="Layer 2" xmlns="http://www.w3.org/2000/svg" viewBox="0 0 19.24 18.3">
  <defs>
    <style>
      .cls-1 {
        fill: #151515;
      }
    </style>
  </defs>
  <g id="Layer_1-2" data-name="Layer 1">
    <path class="cls-1" d="M9.55,13.65c.23-.24.49-.52.77-.82.07-.08.09-.11.14-.15.03-.02.08-.04.08-.13,0,0,0-.02.01-.02.04-.06-.1.06-.26.22-.43.42-.95.93-.81.81,0,0,0,0,0,.03-.46.54,1.12-.98.67-.4.35-.33.42-.44.55-.62,0,.07-.01.12-.02.19.06-.07.11-.14.14-.18.04-.04-.15.14-.35.33-.44.44-.91.9-.82.81.03-.03.07-.08.07-.02,0,0,0,.01-.02.04l-.1.12s-.02.03-.04.04c.04-.04.47-.46.95-.94.25-.25.49-.48.51-.5-.02.02-.26.26-.51.51-.48.48-.9.9-.95.95.01,0,.02-.02.04-.04.24-.25.48-.5.75-.79.15-.16.18-.2.24-.27.05-.07.11-.14.17-.21.06-.08.13-.15.2-.21.06-.05.09,0,.07.11-.02.1-.05.18-.1.24-.09.1-.16.19-.24.27-.11.12-.18.19-.32.33-.09.1-.19.26-.27.26,0,0,0,0-.01.01-.12.17-.24.27-.36.41.07-.07.45-.44.92-.91.24-.24.48-.48.46-.48-.03,0-.06.03-.08.08-.02.06-.04.08-.07.12-.04.05-.09.11-.12.15l-.08.1v.02s.11-.12.11-.12c.08-.08-.05.03-.19.17-.36.35-.78.76-.58.55.19-.19.37-.38.56-.57l.38-.4c.25-.27.5-.53.76-.8.18-.2.35-.39.57-.63.17-.2.34-.37.52-.54.44-.42.87-.84,1.32-1.27l.2-.19.1-.1s-.04-.07-.06-.1l-.38-.4c-.26-.27-.52-.54-.77-.81-.25-.27-.5-.54-.8-.79-.06-.05-.11-.1-.2-.15-.03.06.03.1.06.16.09.11.17.23.27.36.04.05.11.14.15.19.11.12.23.25.34.38.19.21.39.42.57.61.1.1.18.19.27.28l.14.14s.15.1.06.14c-.17.17-.34.34-.52.52-.08.08-.16.15-.24.26.09-.08.19-.16.29-.27.16-.16.32-.31.52-.49.09-.05.02-.1-.03-.15l-.14-.15-.28-.3-.58-.61c-.16-.18-.33-.37-.51-.58-.06-.08-.12-.15-.19-.24-.01-.01,0-.03,0-.04.14.14.26.27.41.42.13.14.26.28.39.43.23.25.46.49.68.71.14.15.28.29.42.44-.1.14-.28.29-.42.43-.28.27-.55.54-.83.81-.22.2-.44.41-.67.62,0,0-.02,0-.03,0,0,0,0-.02.02-.03v-.02s0,0,0,0c0,0,0,.02-.02.02-.01.01-.02.02-.04.03,0,0-.02.02-.04.03-.03,0-.03-.03-.03-.07,0-.05.02-.1.03-.15.02-.02.03-.02.04-.04.13-.15.28-.32.39-.45.08-.09.14-.13.24-.23.04-.03.06-.04.05.03.11-.19.2-.21.32-.28-.02-.05.01-.09.05-.13l.36-.34.18-.17s.04-.03.04-.04l-.04-.04-.08-.09c-.27-.29-.55-.59-.82-.9-.18-.2-.35-.4-.53-.61-.1-.11-.18-.22-.26-.33-.04-.06-.05-.11-.07-.17-.01-.04-.05-.06-.12-.07-.02,0-.04,0-.07-.01.01-.04-.04-.05-.08-.06-.04-.01-.1-.02-.13-.06.05,0,.1.01.16.02-.03-.09-.12-.16-.2-.23-.07-.05-.12-.11-.24-.15-.05.03-.03.07-.02.1.05.12.1.23.16.36,0,0-.02,0-.04,0l-.18-.13s-.04-.04-.03-.06c.04-.06-.01-.11-.1-.15-.08-.05-.21-.16-.31-.24-.16-.13-.32-.25-.48-.37-.08-.06-.17-.11-.23-.11-.14-.15-.28-.31-.39-.43-.21-.22-.4-.42-.63-.66-.01,0-.02-.02-.03-.03h0s-.02,0-.02,0c0,0,.02.01,0,.01,0,0,0,.02.02.04.13.19.27.4.38.57.37.53.92,1.17,1.3,1.66,0,0-.02,0-.04,0l-.15-.15c-.12-.12-.25-.24-.35-.35-.21-.24-.4-.48-.61-.73-.06-.08-.12-.15-.2-.26-.01-.02-.03-.03-.06-.07,0,0-.01-.01-.02-.03-.01-.01-.02-.02-.06-.06,0,0-.01-.02-.02-.03-.01-.01-.02-.02-.03-.03-.01,0-.02-.02-.03-.03,0-.01-.01-.01-.03-.03,0,0-.02-.02-.03-.03l-.03-.02s.01.01.02.03c0,0,.02.02.03.03,0,0,.02.02.02.03,0,0,.01.02.03.03.01.01.01.02.03.03,0,0,0,.01.03.03.01.01.02.02.05.06.01.01.01.01.03.03.02.02.03.04.05.07,0,0-.01.02-.03.01-.05-.04-.1-.08-.17-.15.01.03.01.05.02.06.1.16.21.33.3.47.16.25.34.49.5.75,0,0-.01,0-.03-.01l-.51-.65-.05-.02s.06.1.08.14c.18.26.37.52.58.78.12.14.22.27.32.39.06.08.11.15.15.21.09.12.17.24.34.34,0,0,0,.01.02.02.01.02.02.04.04.06.08.05.13.1.16.16-.03-.01-.07-.03-.12-.05-.02-.02-.04-.03-.07-.05-.05-.05-.09-.1-.16-.16-.08-.08-.12-.1-.19-.11l.08.15h.02s.03-.05.03-.05c.02.01.04.02.05.03.05.05.09.09.15.16.02.02.04.04.07.08.04.04.11.03.17.06,0,.03.02.07.03.11-.03,0-.04-.01-.05-.02h-.02s0,0,0,.01c.19.22.39.45.58.67l.15.16c.05.05.01.02.03.04,0,0,0,.01.02.02.01,0,.11,0,.23.06.07.03.11.08.13.13,0,0-.01,0-.02-.02-.07-.11-.2-.16-.39-.16-.03,0-.01,0,.03,0,.04,0,.09,0,.07.01-.04,0-.07-.01-.11-.01.02,0,.03.01.04.03v.03s-.17.21-.17.21l-.72.85c-.03.25-.07.49-.1.71,0,0,0,0,0-.02,0-.12.03-.26,0-.37,0-.03.01-.07.03-.12-.02.02-.03.03-.05.05-.17.21-.35.41-.52.64-.2.28-.45.62-.68.94-.04.05-.05.08-.11.15l-.23.27c-.14.16-.27.31-.38.44-.08.09.3-.27.7-.66.22-.2.46-.43.42-.37,0,0,0,0-.02.02v.03s0,0,.01-.01c0,0,0,0,.02-.01,0,0,0,0,0,.02-.02.04-.04.1-.08.08l.02-.06-.05.06s.02.01.03.03l-.14.21c-.05.07-.07.12-.21.28-.04.05-.07.1-.12.15l-.14.15v.02s.05-.04.07-.03"/>
    <path class="cls-1" d="M13.05,8.72c-.34,0-.72.02-1.12.03-.11,0-.16.01-.23,0-.04,0-.09-.03-.17.04,0,0-.02,0-.03,0-.09.01.13.02.39.03.6.01,1.32.02,1.15,0,0,0,0,0,.03-.02.71-.06-1.49-.1-.75-.19-.14,0-.26,0-.43,0-.15,0-.3.03-.46.05l.17-.12c-.1.01-.19.02-.26.03-.07,0,.24,0,.55.01.62,0,1.28,0,1.15.01-.04,0-.11,0-.06-.03,0,0,0,0,.04-.01.05,0,.1-.01.16-.02.01,0,.03,0,.05,0-.05,0-.66,0-1.34,0-.4,0-.79,0-.82,0,.02,0,.42,0,.82,0,.68,0,1.28,0,1.34,0-.01,0-.03,0-.06,0-.4.01-.8.02-1.28.03-.15.01-.31.03-.51.04-.12.01-.23.01-.33,0-.09,0-.07-.06.04-.13.09-.06.19-.09.27-.1.15,0,.28-.01.41-.02.16,0,.27,0,.48-.01.14,0,.32-.04.38,0,0,0,0,0,.02,0,.2-.03.36-.02.54-.04-.09,0-.63,0-1.29,0-.38,0-.78,0-.76.01.03.02.07.03.12,0,.06-.03.1-.03.15-.04.08,0,.16-.02.22-.02l.14-.02v-.02s-.16.01-.16.01c-.13,0,.06,0,.29.01.5,0,1.09.01.8.02-.27,0-.54,0-.8.01-.21,0-.41,0-.62.01-.42.01-.83.02-1.26.03-.31.01-.6.03-.98.04-.3.02-.58.02-.86.01-.46-.01-.92-.03-1.39-.04-.44-.02-.9-.04-1.34-.05-.42-.02-.84-.03-1.29,0-.09,0-.17,0-.29.04.02.06.11.05.17.07.16.02.32.04.51.06.08,0,.21.02.28.03.38.02.79.04,1.17.06.19,0,.35,0,.55,0,.17,0,.33,0,.51,0,.08,0,.15,0,.25-.01-.08-.01-.17-.02-.27-.01-.15,0-.3,0-.48-.01-.37-.02-.75-.03-1.12-.05-.28-.02-.57-.03-.88-.05-.12,0-.22-.02-.35-.03-.02,0-.03-.02-.02-.03.22,0,.43,0,.67,0,.41.02.85.04,1.25.05.53.01,1.05.02,1.57.03.34.01.69.02,1.04.03.02,0,.02.01.02.02-.01,0-.02,0-.04,0h-.03s0,.01,0,.01c0,0,.02,0,.03,0,.02,0,.04,0,.06,0,.01,0,.03,0,.05,0,.02.02,0,.04-.04.07-.05.03-.1.06-.15.09-.03,0-.04,0-.07,0-.23.01-.48.03-.68.04-.13,0-.24,0-.36,0-.04,0-.06-.01-.01-.06-.17.06-.22,0-.31-.02-.03.05-.07.05-.11.05-.25,0-.48-.01-.74-.02-.6-.03-1.2-.07-1.82-.11-.17,0-.33-.03-.48-.05-.08-.01-.14-.04-.2-.07-.04-.02-.09,0-.16.03-.02.01-.04.02-.07.04-.02-.04-.07,0-.12.01-.05.02-.1.06-.15.05.05-.03.09-.06.15-.1-.09-.04-.22-.03-.35-.02-.1.01-.19,0-.31.06-.02.06.03.07.07.09.14.05.26.09.42.14,0,0-.01.01-.03.02l-.25.04s-.07,0-.07-.02c-.02-.07-.1-.07-.21-.04-.1.02-.26.04-.39.05-.2.03-.4.05-.61.08-.1.01-.2.04-.24.09-.2,0-.42-.02-.58-.03-.31,0-.58-.01-.91-.02-.01,0-.03,0-.05,0h0s-.02,0-.02,0c.01,0,.02,0,.01,0,0,0,.02,0,.04.01.23.05.48.1.68.14.64.11,1.47.18,2.1.25,0,0-.01.01-.04.02h-.22c-.17,0-.34.01-.49,0-.32-.02-.63-.05-.95-.09-.1-.01-.19-.02-.33-.04-.02,0-.04,0-.09,0,0,0-.02,0-.04,0-.02,0-.03,0-.09,0-.01,0-.02,0-.04,0-.02,0-.02,0-.04,0-.01,0-.03,0-.05,0-.01,0-.02,0-.04,0-.01,0-.02,0-.05,0h-.03s.02.01.04.02c.01,0,.02,0,.04,0,.01,0,.02,0,.04,0,.01,0,.02,0,.04,0,.02,0,.02,0,.04,0,.01,0,.02,0,.04,0,.02,0,.03,0,.08,0,.02,0,.02,0,.04,0,.02,0,.05,0,.09.01,0,.01,0,.02-.02.03-.07,0-.13,0-.22.02.03.02.04.02.06.03.19.04.38.08.54.12.29.06.59.11.88.18,0,0,0,0-.03.01l-.83-.1-.05.02c.05.01.11.03.16.04.31.06.63.1.96.14.18.02.35.04.5.05.11.02.2.03.29.04.17.02.33.05.55,0,.01,0,.02,0,.03,0,.03,0,.05.02.08,0,.1-.02.19-.02.26,0-.04.01-.07.03-.14.05-.03,0-.06,0-.1,0-.08,0-.16,0-.26,0-.12,0-.18.01-.25.06l.19.05h.02s-.02-.07-.02-.07c.03,0,.05-.01.07-.01.08,0,.15,0,.25,0,.04,0,.07,0,.12,0,.06,0,.11-.05.18-.07.03.02.07.03.11.05-.03.01-.04.02-.06.02h-.02s.01,0,.02.01c.34.02.68.04,1.01.06.34.02.67.04,1.03.02.19,0,.39-.05.61-.19.11-.07.23-.13.35-.19,0,0,0,.01-.02.03-.22.13-.44.26-.66.39.04.02.07,0,.12-.02.05-.03.1-.07.17-.06-.05.03-.09.06-.13.09.85-.06,1.7-.12,2.54-.19.23-.15.45-.3.65-.43,0,0,0,0-.01.02-.1.09-.24.17-.3.27-.03.02-.07.04-.12.07.04,0,.05,0,.08,0,.31-.03.62-.04.94-.08.39-.06.87-.13,1.31-.19l.21-.03.35-.03c.21-.01.41-.03.58-.04.12-.01-.4-.02-.96-.03-.34-.01-.71-.02-.64-.03,0,0,.01,0,.03,0h.03s-.01-.01-.03-.02c0,0-.01,0-.02,0,0,0,0,0,.01-.02.05-.01.11-.04.13,0-.01,0-.03.01-.07.03.04,0,.06,0,.09,0,0-.01,0-.02,0-.04.15-.03.31-.05.46-.08l.19-.02c.06-.01.12-.02.19-.02h.2s.01-.02.01-.02c-.03,0-.07,0-.07-.02"/>
    <path class="cls-1" d="M1.56,10.85c.08.38.19.76.33,1.13l.07.19.11.26c.08.17.14.34.21.49.11.2.19.46.47.77.03.05.07.09.09.13.27.36-.44-.55-.85-1.83-.2-.6-.32-1.34-.3-1.15,0,0,0,0-.02-.03-.1-.35-.05.03,0,.41.05.38.16.76,0,.4.03.1.06.2.09.3l.07.21c.05.14.12.28.18.43.23.57.57,1.12.95,1.66-.21-.25-.37-.43-.58-.71.28.46.53.82.79,1.14.23.27-.86-.96-1.39-2.58-.22-.63-.33-1.32-.31-1.19.01.05.03.11-.02.07,0,0,0,0-.02-.04-.02-.05-.03-.1-.05-.16,0-.02-.01-.03-.02-.06,0,0,.03.17.09.43.04.27.15.61.26.97.35,1.04.93,2,1.45,2.65.26.33.5.58.67.76.18.16.26.25.27.25,0,0-.09-.09-.27-.25-.16-.18-.41-.43-.67-.75-.53-.65-1.11-1.61-1.46-2.65-.11-.35-.22-.7-.27-.96-.06-.26-.09-.42-.1-.43,0,.01,0,.03,0,.06.09.44.21.88.38,1.32.3.82.73,1.64,1.31,2.37.38.5.79.93,1.2,1.3.35.33.24.3-.23-.04-.4-.29-.78-.65-1.06-1.03-.48-.59-.85-1.24-1.15-1.92l-.17-.4c-.03-.07-.05-.13-.07-.2l-.03-.09c-.03-.1-.07-.2-.1-.3-.05-.14-.14-.32-.11-.4,0,0,0-.01,0-.02-.08-.21-.11-.38-.16-.58,0-.05.1.67.35,1.38.65,2.04,2.27,3.58,2.21,3.5-.11-.12-.25-.3-.46-.5-.24-.22-.37-.42-.53-.61-.23-.32-.46-.64-.67-1.04-.13-.23-.26-.46-.36-.7l-.04-.05c.11.29.26.55.43.87.38.61-.23-.27-.63-1.46-.18-.53-.31-1.17-.23-.86.06.29.17.57.26.85.38,1.09.96,2.1,1.71,2.96,1.51,1.75,3.7,2.9,6.01,3.12,1.76.16,3.57-.17,5.16-1.03,1.43-.78,2.59-1.87,3.41-3.14,1.39-2.11,1.82-4.83,1.17-7.27-.61-2.38-2.22-4.47-4.38-5.67C12.56.02,10.1-.34,7.7.34c-.46.14-.91.29-1.47.59.15,0,.55-.21.9-.29.86-.29,1.78-.45,2.73-.45.52-.01.98.03,1.51.11,2.11.29,4.04,1.37,5.42,2.94.62.71,1.18,1.54,1.57,2.48.34.83.56,1.71.65,2.65.01.41.05.82.03,1.32.05-.43.03-.89,0-1.44-.1-.83-.28-1.66-.61-2.49-.76-1.87-2.16-3.47-3.92-4.47C13.11.55,11.55.12,9.92.15c-.63.01-1.27.07-1.88.22-.1.02-.15.02-.13,0,1.18-.3,2.44-.35,3.61-.17,2.27.36,4.33,1.59,5.73,3.4.86,1.12,1.48,2.44,1.75,3.84.26,1.4.19,2.86-.2,4.22-.53,1.83-1.64,3.44-3.12,4.58-.07.05-.11.07-.1.04.06-.05.1-.08.16-.13.03-.03.07-.06.11-.09,0,0,0,0-.01,0-.04.04-.08.07-.14.11-.08.05-.15.11-.27.19-.06.04-.11.08-.23.16-.11.06-.04-.02.11-.17.18-.18.39-.35.55-.54.1-.09.17-.15.26-.23.87-.82,1.56-1.84,2.02-2.92.13-.3.23-.6.34-.9.08-.3.17-.6.23-.91.03-.2.06-.29.07-.05.09-.87.12-1.17.18-1.62-.05-.16-.07-.37-.08-.58-.07-1.29-.44-2.59-1.06-3.71C16.32,2.05,13.12.21,9.88.3c-.88,0-1.74.16-2.52.39-.4.11-.7.21-1.01.32-.22.06-.45.22-.73.42-.09.06-.18.13-.29.22-.11.03-.32.2-.52.37-.19.18-.39.37-.61.56.18-.21.34-.36.54-.58-.41.27-.95.74-1.38,1.27-.17.2-.33.4-.48.63-.16.22-.31.47-.44.76,0,.12.14-.09.26-.26.45-.59.95-1.16,1.53-1.6-.03.03-.05.07-.12.14-.31.3-.58.65-.84,1-.11.16-.2.28-.24.29-.11.03-.34.39-.59.9l-.05.13-.02.05-.04.1-.07.21c-.08.2-.11.41-.16.61-.03.11-.04.2,0,.26-.07.2-.13.37-.19.56-.1.29-.13.6-.21.91,0,.01,0,.03,0,.05h0s0,.02,0,.02c0-.01,0-.02,0-.01,0,0,0-.02.02-.04.09-.22.17-.44.26-.65.26-.59.52-1.24.91-1.82.05-.09.09-.19.15-.27-.02.04-.03.09-.06.16l-.14.29c-.07.15-.14.3-.2.44-.13.28-.27.55-.38.85-.04.1-.08.19-.12.3,0,.02-.01.05-.03.08,0,0,0,.02-.01.04,0,.02-.01.04-.02.08,0,0,0,.02-.01.04,0,.01,0,.02-.01.04,0,.01,0,.03,0,.05,0,.01,0,.02-.01.04,0,.01,0,.02,0,.04v.03s0-.02.02-.03c0-.01,0-.02.01-.04,0-.01,0-.02.01-.04,0-.01,0-.02.01-.04,0-.01,0-.02.01-.04,0,0,0-.02.01-.04,0-.02.01-.04.02-.08,0-.01,0-.02.01-.04,0-.02.01-.05.03-.08.01,0,.02,0,.03.02-.01.06-.01.12-.03.22.02-.03.03-.04.04-.06.07-.17.17-.32.25-.48.12-.26.28-.5.44-.73,0,0,0,.01,0,.03-.12.23-.25.46-.35.71v.05s.06-.09.09-.13c.12-.26.3-.52.44-.8.09-.15.16-.24.27-.44.22-.39.47-.76.76-1.12.49-.59,1.04-1.12,1.83-1.7.04-.03.08-.05.12-.07.1-.07.2-.11.32-.19.4-.26.76-.4,1.08-.51-.16.08-.32.17-.55.29-.13.05-.24.14-.39.21-.33.17-.64.39-.97.63-.44.34-.6.54-.79.78.22-.18.42-.38.66-.54l.04-.05s-.07.01-.11.02c.09-.08.15-.14.23-.21.3-.22.6-.44.96-.62.15-.08.29-.17.5-.25.24-.11.45-.26.75-.37.16-.04.31-.07.49-.09-.14.04-.19.06-.25.08-.02.01-.04.02-.06.03.03-.01.06-.02.08-.02,1.46-.39,3.04-.34,4.46.16,1.41.5,2.68,1.41,3.62,2.71.51.7.94,1.46,1.33,2.4.1.24.19.49.26.75.08.26.14.52.17.79,0,0-.01,0-.03-.07-.19-1.01-.57-1.96-1.13-2.8.05.17.15.3.25.49.1.19.24.4.3.7-.08-.21-.18-.35-.26-.51.69,1.75.68,3.79-.05,5.54-.72,1.76-2.15,3.22-3.9,3.99-.88.54-1.85.88-2.86,1.02,0,0,0,0,.06-.02.46-.09,1.1-.26,1.35-.41.15-.04.29-.11.51-.19-.17.04-.26.07-.36.1-1.39.32-2.85.26-4.25-.2-1.9-.62-3.6-2.06-4.54-3.91l-.19-.42-.09-.21-.06-.16-.13-.31c-.08-.17-.12-.34-.17-.53-.03-.11.05.39.22.9.5,1.61,1.76,2.95,1.5,2.66-.02-.02-.04-.04-.09-.1-.04-.03-.06-.07-.1-.1.03.03.04.07.09.12.02.02.03.03.07.08,0,0,0,.01-.06-.04-.18-.19-.37-.41-.39-.49.05.05.09.1.22.23-.12-.15-.18-.23-.27-.34,0,.03,0,.04-.05,0-.27-.37-.51-.75-.72-1.15l-.29-.63-.14-.35c-.03-.06-.06-.11-.08-.18l-.07-.19h-.02s.01.06,0,.06"/>
  </g>
</svg>