<?xml version="1.0" encoding="UTF-8"?>
<svg id="Layer_2" data-name="Layer 2" xmlns="http://www.w3.org/2000/svg" viewBox="0 0 12.21 7.66">
  <defs>
    <style>
      .cls-1 {
        fill: #151515;
      }
    </style>
  </defs>
  <g id="Layer_1-2" data-name="Layer 1">
    <path class="cls-1" d="M2.52,2.51s-.07-.1,0-.13c.16.08.25.18.35.27.13.12.28.24.34.36l-.22-.08c.05.06.12.09.19.12.06.03.13.06.13.11.04.02.06.03.09.04.09.04.15.08.18.13.04.08.08.16.14.25.14.17.28.34.44.51,0,0,0-.09.05-.04.03.03.48.49.95.98.21.22.43.44.61.62.05.05.1.09.12.1.01-.02.02-.03,0-.04-.03-.01.05-.03.09-.1-.02,0,.15-.17.22-.24.09-.09.17-.16.23-.22.27-.27.09-.17.09-.17l.33-.4c.28-.27.56-.55.85-.87.35-.38.54-.51.84-.83,0,0,.32-.32.38-.43.06-.1.29-.22.38-.35.08-.13.12-.16.2-.25s.31-.2.41-.3c.09-.1.39-.22.5-.33.11-.12.45-.43.54-.54.09-.11.45-.33.37-.24-.08.09-.05,0-.16.16-.11.15-.26.31-.38.43-.13.12-.3.33-.43.45-.13.12.05,0,.05,0l.93-.92.6-.44s-.01.04-.01.04c.01-.01.03-.02.03-.02,0,0-.25.24-.58.56-.23.23-.35.35-.48.48-.06.06-.07.07-.1.1-.15.13-.32.21-.34.29,0,0,0,.03,0,.03,0,0,.01,0,.05-.03.02-.02.03-.03.05-.04.05-.04.13-.09.15-.1.11-.06.28-.24.32-.28.15-.16.41-.43.76-.78.15-.13.19-.15.2-.14.02.02-.14.18-.26.43-.06.11-.09.21-.1.28.01,0,.05-.02.08-.05v.02s-.18.19-.18.19c-.06.06-.11.13-.16.19l-.16.18c-.13.17-.27.34-.4.51,0,.03,0,.03.02.04-.03.03-.04.05-.08.1.03-.05.03-.07.04-.09-.04,0-.08.07-.12.13-.01.02,0,.03,0,.03.01,0,.02-.01.02-.02.02-.01.03-.02.04-.03l-.02.04s-.02.02-.03.03c-.07.08.31-.28.66-.61.51-.49.98-.95.88-.84-.14.16-.31.35-.49.54l-.29.33-.18.22c-.4.49-.82,1.01-1.17,1.44-.29.35-.64.43-.93.76-.03.03-.04.04-.08.08.03-.07.05-.12.07-.16-.01-.13.13-.1.16-.25,0-.02,0-.03,0-.03-.11.3-.28.39-.4.72l-1.2,1.33-.6.67-1.13,1.2c.08-.12.14-.22.24-.36-.12.11-.2.24-.29.36l-.03-.02c-.1-.05-.17-.11-.25-.21.11.07.21.13.28.18.29-.35.52-.55.77-.94.02-.04.01-.05.01-.05-.17.25-.28.17-.45.43-.11.16-.22.32-.33.47-.27-.19-.54-.43-.8-.68-.23-.23-.44-.44-.66-.66-.16-.18-.33-.35-.49-.52-.32-.34-.51-.74-.84-1.09,0-.01,0-.02-.01-.02h.02s.03.04.07.06c-.03-.05-.05-.1-.07-.15-.09-.06-.18-.07-.24-.13-.06-.06-.09-.09-.12-.13-.1-.1-.17-.17-.25-.26-.02-.02-.04-.04-.08-.06l-.02.06h-.03s-.15-.23-.15-.23c.1.04.16.08.29.21.1.1.17.17.25.26.04.04.07.06.1.09.08.05.12.07.17.1-.06-.09-.14-.18-.26-.26-.04-.03-.05-.06-.08-.09,0-.01-.01-.02-.03-.03-.24-.19-.39-.37-.54-.55-.08-.1-.17-.21-.26-.32-.13-.15-.27-.31-.42-.49-.27-.33-.53-.65-.76-.96-.03-.05-.07-.11-.11-.17l.06.02.67.81s.03.02.04.02c-.22-.3-.44-.61-.66-.91-.12-.18-.26-.38-.4-.57-.01-.02-.02-.04-.04-.08.09.08.15.13.21.19.02.01.03,0,.04,0-.03-.04-.05-.06-.07-.09-.02-.03-.02-.03-.04-.04-.04-.05-.05-.06-.07-.08-.02-.03-.03-.03-.04-.04-.02-.02-.02-.02-.03-.04-.02-.02-.02-.03-.03-.04-.01-.02-.02-.03-.03-.04-.01-.02-.03-.03-.04-.04,0-.02-.02-.03-.03-.04l.03.02s.03.03.04.04c.02.02.02.03.03.04.02.02.03.03.04.04.02.02.02.03.04.04.02.02.02.03.03.04.04.05.06.06.07.08.02.02.02.03.03.04.04.04.06.06.07.08.11.13.18.22.26.32.26.31.52.6.78.91.12.14.29.29.44.44l.2.2s.04.02.05.02c-.53-.63-1.21-1.41-1.71-2.06C.39.56.21.3.04.06.02.03.01.03,0,.02c.01,0,0,0,0-.02h.03s0,0,0,0c.01.02.03.03.04.04.29.3.53.55.8.83.14.15.32.35.5.54.07,0,.17.07.28.15.21.17.4.33.6.49.13.1-.11.31.03.42.13.09.24.09.24.09-.11-.07.07.02.07.02l-.05-.07Z"/>
  </g>
</svg>