<?xml version="1.0" encoding="UTF-8"?>
<svg id="Layer_2" data-name="Layer 2" xmlns="http://www.w3.org/2000/svg" viewBox="0 0 12.97 6.73">
  <defs>
    <style>
      .cls-1 {
        fill: #151515;
      }
    </style>
  </defs>
  <g id="Layer_1-2" data-name="Layer 1">
    <path class="cls-1" d="M3.54,4.03s-.01,0-.03,0c.03.02.07.06.13.11.7.61,1.28,1.24,1.43,1.41.04.05.11.13.21.23.05.05.09.09.16.16.09.09.17.17.22.23-.02-.02-.03-.03-.03-.04,0,0,0,0,0,0,.02.02.04.03.07.06.02.01.03.02.05.04h0s-.04-.04-.06-.06c-.02-.02-.04-.04-.1-.11-.02-.02-.06-.06-.07-.08,0-.03.01-.04.09,0,.09.06.18.11.27.16.04.04.06.06.1.1.17.16.35.34.53.5.17-.18.33-.35.48-.51.17-.17.32-.31.47-.46.03-.03.06-.04.05.03.11-.19.2-.21.29-.26,0-.06.03-.09.07-.13.22-.21.44-.42.67-.65.55-.51,1.12-1.03,1.69-1.56.15-.14.31-.27.46-.4.08-.06.15-.09.22-.13.05-.03.09-.08.12-.16.01-.03.02-.05.04-.08.04,0,.07-.06.1-.11.03-.06.06-.12.11-.17-.02.07-.04.12-.07.19.11-.05.22-.18.32-.3.08-.09.17-.17.24-.32-.02-.05-.07-.02-.11,0-.15.09-.29.18-.46.29,0,0,0-.02.02-.04l.2-.25s.06-.06.08-.05c.06.03.13-.05.21-.16.06-.09.11-.16.17-.24.08-.12.16-.23.25-.35.04-.06.07-.12.06-.17.11-.09.22-.19.3-.27.16-.15.29-.28.46-.44,0,0,.01-.02.02-.02h0s0-.01,0-.01c0,0,0,.01-.01,0,0,0-.01,0-.03.01-.14.08-.29.17-.42.25-.4.26-.81.59-1.22.9,0-.01,0-.02.02-.05l.12-.12c.08-.08.16-.18.24-.24.17-.14.34-.28.52-.41.06-.04.11-.08.19-.14.01,0,.02-.02.05-.04,0,0,.01,0,.02-.02,0,0,.02-.02.05-.04,0,0,.01,0,.02-.02,0,0,.01-.01.02-.02,0,0,.01-.02.02-.02,0,0,.01,0,.02-.02,0,0,.01-.01.02-.02V0s0,0-.01.01c0,0-.01.01-.02.02,0,0-.01.01-.02.02,0,0-.01.01-.02.02,0,0-.01,0-.02.02,0,0,0,0-.02.02-.01,0-.02.01-.05.04,0,0,0,0-.02.02-.01.01-.03.02-.05.03,0,0-.02-.01-.01-.03.03-.04.06-.07.1-.12-.03,0-.04,0-.05.01-.12.07-.24.13-.34.19-.18.11-.36.22-.54.32,0,0,0,0,0-.02l.47-.34v-.04s-.07.04-.09.05c-.37.23-.75.52-1.14.85-.16.14-.33.27-.49.49,0,.01-.02.02-.03.02-.03.02-.06.04-.08.07-.08.11-.16.18-.24.23.03-.04.05-.08.09-.15.02-.03.05-.06.08-.09.07-.07.14-.14.23-.23.11-.11.15-.17.19-.26l-.2.14v.02s.05.01.05.01c-.02.03-.03.05-.05.07-.07.07-.14.14-.23.23-.03.03-.06.06-.11.11-.05.05-.07.13-.12.21-.04.02-.08.04-.13.07.02-.03.03-.05.04-.06v-.02s0,.01-.01.01c-.31.29-.63.58-.94.87-.31.29-.62.58-.94.91-.17.18-.32.38-.43.66-.06.14-.12.29-.19.43,0,0,0,0,0-.03.12-.28.23-.55.35-.84-.05.02-.07.06-.1.12-.02.06-.05.13-.11.19.02-.07.04-.11.06-.17l-.68.76-.17.19s-.02.03-.03.05l-.04.08s-.05-.02-.08-.04l-.03-.02-.11-.1-.22-.2c-.3-.11-.58-.22-.85-.31,0,0,0,0,.02,0,.14.03.31.11.43.1.04.02.08.04.14.06-.03-.03-.05-.05-.07-.07-.29-.26-.53-.47-.89-.78-.39-.32-.85-.7-1.29-1.05-.12-.1-.25-.21-.38-.31-.11-.09-.22-.18-.31-.26-.14-.12-.29-.23-.42-.34,0,0-.01-.01-.02-.03l-.03-.02s.01.01.02.03c0,0,.01.01.02.02,0,0,0,0-.02,0-.06-.04-.12-.08-.12-.11.02,0,.03.02.08.04-.04-.03-.06-.05-.09-.07,0,.01,0,.02-.03.02-.19-.15-.38-.3-.56-.44-.04-.02-.07-.05-.11-.08l-.11-.09s-.01,0-.01,0c.01.02.03.04.02.05l-.51-.38s-.07-.05-.11-.08c0,.01,0,.03.02.04l.98.8c.17.14.32.27.44.37-.01,0-.02,0-.05-.02-.03-.02-.06-.05-.09-.07-.2-.17-.41-.33-.61-.49C1.14.97.71.62.27.26c-.08-.07-.15-.14-.27-.2.06.06.11.13.19.19.24.21.4.43.71.64.13.09.25.19.37.29.32.26.66.53.95.76.39.32.73.61,1.09.91.09.08.17.15.25.22h-.02c-.08-.05-.18-.13-.23-.16-.36-.3-.72-.6-1.06-.87-.36-.3-.71-.61-1.12-.9-.1-.08-.22-.15-.35-.22-.03.06.04.13.12.21.17.16.37.34.57.53.07.06.14.12.19.18.04.04.07.1.18.13,0,0,.02.02.03.02.19.16.39.32.53.49,0,0,0,0-.02,0-.38-.31-.75-.63-1.17-.94.19.2.41.39.65.59-.08-.03-.14-.05-.23-.08.1.08.19.16.25.21.14.12.26.23.38.35.02.02.06.05.01.05,0,0,0,0-.03-.01l-.09-.07s-.02-.01-.03-.02l-.04-.02s.03.02.03.03c0,0,.01.01.03.03.36.35.73.69,1.14,1.04.11.1.21.2.3.29.02.02.04.05.03.07-.01.02-.08,0-.14-.02.04.03.06.05.06.05Z"/>
  </g>
</svg>