<?xml version="1.0" encoding="UTF-8"?>
<svg id="Layer_2" data-name="Layer 2" xmlns="http://www.w3.org/2000/svg" viewBox="0 0 11.63 20.96">
  <defs>
    <style>
      .cls-1 {
        fill: #151515;
      }
    </style>
  </defs>
  <g id="Layer_1-2" data-name="Layer 1">
    <path class="cls-1" d="M3.85,20.41c0-.23-.01-.46-.02-.7,0-.45,0-.89,0-1.3,0-.3.02-.65-.02-1.18,0-.07,0-.15,0-.21,0-.59-.02.9-.02,2.66,0,.38,0,.83,0,.72,0,0,0,0,0,.02.03.44.06-.93.12-.47,0-1.04-.02-2.19-.03-3.44.03.41.05.73.07,1.18,0-.68-.01-1.25-.02-1.77,0,.44,0,1.68,0,3.77,0,.39,0,.8,0,.72,0-.03,0-.07.02-.04,0,0,0,0,0,.03,0,.03,0,.06.01.1,0,0,0,.02,0,.03,0,0,0-.41,0-.84,0-2.78,0-5.57,0-5.62,0,.05,0,2.84,0,5.62,0,.43,0,.83,0,.84,0,0,0-.02,0-.04,0-.26-.01-.52-.02-.8,0-1.1-.02-2.27-.03-3.48,0-.82,0-1.57,0-2.28,0-.62.04-.48.08.25.04.63.06,1.27.06,1.86,0,.96,0,1.89.01,2.81,0,.36,0,.69,0,1.06,0,.09.03.2,0,.24h0c.02.14.01.23.02.35,0-.03,0-.39,0-.81,0-2.61,0-5.04,0-5.2-.01.2-.02.49,0,.84.01.51.02.72.02,1.01,0,.49,0,.99.01,1.53v.98s.02.08.02.08c0-.38,0-.75,0-1.2,0-.88,0,.43,0,1.96,0,.31,0,.68-.01.5,0-1.6,0-3.17-.01-4.77v-2.19s0-1.26,0-1.26v-.53s0-.26,0-.26h-.26s-.96,0-.96,0h-1.71s-.2,0-.2,0c0,0-.04.01-.03,0v-.42c0-.26,0-.53,0-.8v-1.28s.02-.03.05-.03h.7c.67,0,1.36,0,2.05,0h.2s.1,0,.1,0h.05s0-.03,0-.05v-.4s0-.73,0-.73v-.87s0-.12,0-.12c0-1.04-.05-1.97.24-2.81.25-.85.78-1.54,1.48-1.99.52-.32,1.13-.51,1.76-.59.62-.1,1.31.02,1.99.07l.95.08c.1.01.08-.02.07.14v1.91s0,.06-.03.05h-.19s-.56,0-.56,0c-.22,0-.28-.01-.57-.02-.48,0-.95.17-1.34.45-.61.44-.98,1.18-.95,1.93v1.72s0,.7,0,.7v.42s0,.1,0,.1c0,.02,0,.04,0,.05h.05s.21,0,.21,0h1.28s1.73,0,1.73,0c.08,0,.06,0,.08,0-.07.44-.14.87-.21,1.31l-.14.93-.04.23s0,.01-.01.01c-.59,0-1.19,0-1.8,0h-1c-.25-.08-.13.22-.16.36v.52c0,.4,0,.8,0,1.2,0,.58.01,1.09.02,1.97.04-.16.03-.73.04-1.18,0-.57.01-1.14.02-1.72-.51-1.5,1.35-.93,1.64-1.03.44,0,.85,0,1.29.01.04,0,.08,0,.07-.05.14-.9.29-1.79.43-2.68.08-.07-1.03-.03-1.74-.05h-1.51s-.09,0-.11-.01v-.12s0-.24,0-.24v-.49s0-.63,0-.63c0-.5,0-1.01,0-1.53.03-.62.36-1.24.89-1.63.21-.15.46-.28.74-.35.25-.07.52-.09.78-.06h.62s.48,0,.48,0c.03,0,.09.01.11-.01v-.12c0-.22,0-.46,0-.71,0-.26,0-.52,0-.8,0-.14,0-.28,0-.43,0-.06,0-.13,0-.21,0,.2,0,.39,0,.6,0,.3,0,.62,0,.98,0,.18,0,.37,0,.56,0,.07.01.15-.08.12h-.41c-.21,0-.43,0-.65,0-.02,0-.01,0-.04,0h-.1c-.07-.01-.13-.02-.2-.01-.13,0-.27.02-.4.05-.31.06-.6.19-.85.38-.58.41-.93,1.12-.91,1.83v1.72s0,.64,0,.64v.37s0,.09,0,.09c0,.04,0,.06.04.05h.19s1.19,0,1.19,0h1.73s.14,0,.14,0c.02.01.1-.02.07.03-.07.47-.15.94-.23,1.41-.05.31-.1.62-.15.93l-.04.28s-.01.07-.06.05c-.38,0-.79,0-1.19,0h-1.61s-.1-.02-.13,0v.13s0,.27,0,.27v.54s0,.64,0,.64c0,.13-.01.18-.02.16v-1.25s0-.46,0-.46c-.04-.11.11-.05.17-.06h.23s.82,0,.82,0c.58,0,1.16,0,1.73,0,.04.01.04-.02.04-.05.13-.85.27-1.69.4-2.54,0-.04-.06-.01-.09-.02h-.57s-1.35,0-1.35,0h-.99s-.31,0-.31,0c-.07.02-.06-.04-.06-.09v-.15s0-.61,0-.61v-1.45c0-.19,0-.41,0-.56-.01-.25.02-.49.09-.73.14-.48.43-.91.84-1.2.28-.2.61-.34.95-.4.17-.03.35-.04.52-.03h.13s.05.01.05.01h.21s.73,0,.73,0h.09s0-.06,0-.08V1.21c.03-.07-.06-.03-.12-.05l-.57-.05-1.22-.11c-1.14-.12-2.26.12-3.12.73-.87.61-1.37,1.63-1.52,2.72-.01.1-.02.15-.03.12,0-.08.01-.15.02-.25,0-.05.02-.1.03-.16,0,0,0,0,0,.01,0,.06-.03.13-.04.21-.01.11-.03.22-.05.39-.01.09,0,.19-.02.34-.02.15-.03.03-.03-.23,0-.31.03-.64.08-.94.03-.16.08-.27.12-.41.21-.7.62-1.32,1.17-1.79.55-.47,1.25-.74,1.96-.88.8-.16,1.58-.02,2.39.04.26.02.37.04.08.04.31.02.53.03.71.05.12.01.21.02.3.03.05.03,0,.14.01.19l-.02.33c.03.21.03.48.03.75v1.04c-.01.06.02.16-.02.19h-.2s-.77,0-.77,0h-.21s-.05,0-.07,0h-.12c-.16-.02-.32-.01-.48.02-.32.06-.62.19-.88.37-.18.13-.34.29-.47.47-.21.29-.34.62-.38.97-.03.38,0,.62-.01.94v2.12c1.01.07,1.48.02,2.1.04h.9s.24,0,.24,0h.09s.05,0,.05,0v.05s-.25,1.52-.25,1.52l-.15.93-.05.3v.09s-.07,0-.1,0c-.43,0-.86,0-1.29,0h-.98s-.34,0-.34,0h-.17s-.09,0-.09,0c-.02.01,0,.05,0,.08v.68c-.01.57-.02,1.13-.02,1.68-.01.43-.03.88-.05,1.34-.01.28,0,.63.02,1.07,0,.15.01.28.02.46-.02.13,0,.48,0,.81.01.33.03.69.03,1.05l-.06-1c-.03.62-.02,1.51,0,2.37,0,.17.04.22-.08.21-.25,0-.53.02-.94.03-.13.04.18.05.46.05l.55.02s.14.04.14-.02v-.16c.03-.44.04-.89.06-1.34,0,.05,0,.11.01.24v.85s.02.33.02.33v.13s0,.07,0,.07c0,.01-.04,0-.06,0-.15,0-.28,0-.31-.01-.12-.04-.67-.04-1.4-.02h-.18s-.03,0-.03,0h-.06s-.13.02-.13.02l-.38.05c-.07,0-.12.02-.15.06-.13,0-.24-.01-.36-.02-.19,0-.37,0-.57-.01,0,0-.02,0-.03,0h0s0,0-.01,0c0,0,.01,0,0,0,0,0,.01,0,.03,0,.14.03.28.06.42.08.24.04.5.07.77.1l.29.03h.14s.07.02.07.02h.43c-.06.01-.13.01-.24.02h-.31c-.1,0-.22,0-.31,0h-.08c-.17-.02-.34-.04-.52-.06-.07,0-.13-.02-.2-.02-.02,0-.03,0-.05,0,0,0,0,0-.03,0-.01,0-.03,0-.05,0,0,0-.01,0-.03,0,0,0-.01,0-.03,0,0,0-.02,0-.03,0,0,0-.01,0-.03,0,0,0-.01,0-.03,0h-.02s.01,0,.02.01c0,0,.02,0,.03,0,0,0,.01,0,.02,0,0,0,.01,0,.03,0,0,0,.01,0,.03,0,0,0,.01,0,.03,0,.01,0,.03,0,.05,0,0,0,.01,0,.03,0,.02,0,.03,0,.05,0,0,0,0,.01,0,.02-.04,0-.08,0-.14.01.02,0,.03.02.04.02l.34.08c.16.03.32.06.49.1h.06s0,.02-.02.02h-.04s-.48-.06-.48-.06h-.03s.1.04.1.04c.19.04.39.06.6.09l.16.02h.08s.04.01.04.01h.11c.79.01,1.59.02,2.39.03.18.06.12-.13.13-.24v-.37s0-.6,0-.6c0-.29,0-.59,0-.89,0-.6,0-1.22-.01-2,0-.08,0-.14,0-.21,0-.18,0-.33,0-.56-.01-.71-.01-1.29,0-1.79,0,.26.02.53.03.93,0,.22,0,.42,0,.67,0,.56,0,1.12,0,1.75,0,.85,0,1.22.03,1.69.01-.44.02-.86.03-1.29v-.11s-.03.1-.04.15c0-.21,0-.33,0-.47,0-.56,0-1.13,0-1.74,0-.25,0-.5,0-.85,0-.4-.03-.77-.05-1.26.01-.24.02-.47.03-.75,0,.22,0,.3,0,.39,0,.04,0,.07,0,.1,0-.05,0-.09,0-.12v-1.06s0-.07,0-.07c.02,0,.05,0,.07,0h2.35s.31.01.31.01c.04-.01.13.03.13-.03l.02-.15.09-.6.11-.71.2-1.28c.09-.56.17-1.11.26-1.68.16-.33-.25-.18-.44-.22h-.69s-.79,0-.79,0c-.48,0-.96,0-1.45,0h-.11s-.02,0-.02,0v-.24c0-.5,0-1,0-1.51-.05-.55.13-.91.49-1.22.2-.16.46-.26.74-.28.35.02.78-.02,1.17-.04.28,0,.55-.02.82-.03h.21s0-.14.02-.21v-.45c-.03-.5-.06-.98-.08-1.45,0,0,0,0,.02.11l.06,1.34v.36s.02.18.02.18c0,.06.03.15-.05.12l-.71.02-.93.04h-.21s-.09.02-.15.01h-.08c-.1,0-.2.01-.29.04-.19.05-.36.14-.51.26.15-.09.3-.17.52-.23.13-.03.2-.05.4-.03.25,0,.44,0,.67,0-.17.01-.32.02-.46.03-.07,0-.11.02-.27,0-.05,0-.09,0-.14,0,.35.03.74,0,1.1,0h.96s.27,0,.27,0c.02,0,.05,0,.06,0v-.07s0-.14,0-.14v-.54s-.01-2.09-.01-2.09v-.68c-.04-.28.13-.73-.31-.64l-1.29-.11C9.36.09,8.73,0,8.06,0c-.68.02-1.37.14-2.03.41-1.33.51-2.36,1.74-2.7,3.08-.19.66-.24,1.36-.24,2.01v1.9s.02.14.02.14v.03s.03.08.03.08c.04.09-.06.05-.1.08,0,.01-.28.02-.44.03l-.56.03c-.38.02-.75.04-1.12.07-.26.01-.52.01-.74.04.01.25.02.5.03.75,0,0,0,0-.01-.11l-.02-.36v-.2s-.02-.1-.02-.1c.02-.01.06,0,.09,0l.79-.04c.37-.03.71-.05.92-.09.23-.01.46-.02.79-.04-.26,0-.4,0-.56,0h-.51s-.76,0-.76,0H.3c-.1,0-.21,0-.3.01v.31c0,.58,0,1.15.01,1.73,0,.51,0,1.02.01,1.53.04.37-.16.97.42.79.32,0,.63,0,.96,0,.48,0,.97-.01,1.47-.02.48-.06.33.04.37.82,0,.62.02,1.24.03,1.87.02,1.25.03,2.5.05,3.75,0,.4.01.8.02,1.2l.02.22c0,.12.02.24.02.36,0,.07.01-.25.02-.6,0-2.35.01-4.87.02-4.35,0,.04,0,.08,0,.19,0,.07,0,.13,0,.2,0-.05,0-.11,0-.22,0-.04,0-.07,0-.15,0,0,0-.02,0,.1,0,.36.02.77,0,.89,0-.09,0-.19-.02-.44,0,.28,0,.41,0,.6,0-.03.01-.05.03.04.01.63.02,1.26.03,1.9,0,.32.01.64.02.97v.24s0,.06,0,.06v.08s.02.08.02.12v.13s.01,0,.01,0c0-.02,0-.04.02-.04"/>
  </g>
</svg>