<?xml version="1.0" encoding="UTF-8"?>
<svg id="Layer_2" data-name="Layer 2" xmlns="http://www.w3.org/2000/svg" viewBox="0 0 16.7 16.72">
  <defs>
    <style>
      .cls-1 {
        fill: none;
      }

      .cls-2 {
        fill: #151515;
      }
    </style>
  </defs>
  <g id="Layer_1-2" data-name="Layer 1">
    <g>
      <path class="cls-1" d="M16.15,12.26c0,.61-.12,1.22-.33,1.79-.16.42-.41.79-.72,1.11-.31.31-.69.56-1.11.72-.57.21-1.18.32-1.79.33-.96.05-1.32.06-3.85.06s-2.89,0-3.85-.06c-.63.01-1.27-.08-1.87-.29-.42-.16-.79-.41-1.11-.72-.31-.31-.56-.69-.72-1.11-.21-.59-.32-1.21-.33-1.83,0-.96-.06-1.32-.06-3.85s0-2.89.06-3.85c0-.62.11-1.24.33-1.83.16-.42.41-.79.72-1.11.31-.31.69-.56,1.11-.72.59-.21,1.21-.32,1.83-.33.96,0,1.32-.06,3.85-.06s2.89,0,3.85.06c.61,0,1.22.12,1.79.33.42.16.79.41,1.11.72.31.31.56.69.72,1.11.23.58.35,1.2.37,1.83.05.96.06,1.32.06,3.85s0,2.89-.06,3.85Z"/>
      <path class="cls-2" d="M7.17,16.6c.18.01.39.02.3.06-.54.03-.97.02-1.4.02-.57,0-1.16,0-1.57-.03l.67-.06c-.24-.01-.47,0-.69.02h.03s-.01,0-.01,0c-.24.02-.48.03-.58,0-.13,0-.22,0-.33,0-.31-.02-.56-.06-.75-.13-.27-.09-.58-.22-.9-.43-.66-.41-1.21-1.05-1.5-1.84,0,0,.04.22-.05,0-.02-.09-.33-.83-.33-1.94-.01-1.03-.03-2.35-.04-3.62.03-2.55.07-4.88.03-4.21-.03.54-.02-1.13.45-2.08.48-1.08,1.4-1.64,1.95-1.84,1.29-.4.59-.21.59-.23.56-.16,1.19-.22,1.73-.22,1.25-.02,2.52-.04,3.86-.06,1.66.03,2.37.04,3.78.07,0,0,.4.01.84.1.44.08.92.24,1.13.33.42.14,1.13.76,1.44,1.21.33.44.39.63.55,1.04.17.41.27,1.26.27,1.73.01.44-.07,1.39-.05,1.9,0,.51.02,2,.03,2.44,0,.45-.08,1.77-.08,1.39,0-.38.02-.13.01-.72,0-.59-.01-1.28-.02-1.84-.01-.56-.03-1.43-.04-2,0-.57-.03.11-.03.11.02,1.39.05,2.78.01,4.17l-.11,2.34c0-.12,0-.12,0-.12,0,.05,0,.11,0,.11,0,0,.02-1.12.05-2.57.02-1.05.02-1.58,0-2.17,0-.26,0-.32,0-.45,0-.63.03-1.2,0-1.43,0-.02,0-.08-.02-.07,0,0,0,.03,0,.17,0,.09,0,.13,0,.2,0,.2-.01.48-.02.56-.02.39,0,1.18,0,1.36.03.7-.01,1.89-.02,3.47-.02.63-.04.76-.04.76,0,0-.01-.18-.02-.46,0-.28-.02-.67-.04-1.09-.02-.38-.05-.67-.07-.86-.01,0-.02.14-.02.28v-.06s0-.82,0-.82c0-.28,0-.53,0-.78l-.02-.77c-.03-.68-.06-1.37-.09-2.06-.02-.06-.02-.05-.03-.03,0-.12,0-.21-.01-.4.01.17.02.23.03.29.02-.08,0-.35-.01-.58,0-.08-.01-.07-.01-.07,0,.04,0,.07,0,.1,0,.08,0,.11,0,.14v-.13c-.01-.07-.01-.09-.01-.13-.01-.34,0,1.31.02,2.86.01,2.25-.06,4.35-.05,3.87,0-.68,0-1.49,0-2.32,0-.47,0-.94-.02-1.4l-.03-.92c-.02-.49-.04-1-.06-1.5-.02-.51-.02-1.01-.12-1.45-.18-.93-.62-1.71-1.27-2.14-.5-.35-1.03-.5-1.58-.63-.53-.11-1.15-.11-1.84-.12-.13,0-.2,0-.37,0,.22-.02.37-.03.52-.04.27-.07.51.03.94-.03.06,0,.05-.01.05-.01-.91.08-1.5.03-2.53.12-.94-.01-1.89,0-2.84.04-.93.03-1.95.03-2.8.09-.88.1-1.69.4-2.2,1.03-.53.59-.72,1.48-.75,2.34-.01-.17-.02-.32-.02-.52-.04.28-.02.48,0,.71.02.22.02.38,0,.55-.04-.51-.06-.91-.01-1.26.04-.36.11-.73.23-1.14.01-.06,0-.07,0-.07-.13.42-.26.55-.3,1.02-.04.45,0,.9.02,1.36.01.45.02.89.01,1.32-.03,1.61-.02,3.12,0,4.63,0,.37,0,.73,0,1.09-.01.34,0,.66.04.99.09.66.29,1.28.76,1.76,0,.02.03.04.05.05l-.05-.04s-.08-.08-.16-.16c.09.13.18.24.28.34.23.18.43.26.64.37.21.11.31.13.46.18.41.12.71.16,1.05.19.1,0,.17,0,.29,0l-.09-.04h.06s.2,0,.2,0h.03s.63.03.63.03c-.19.02-.36.02-.63.03h-.03c-.1,0-.25,0-.45,0-.41-.03-.73-.09-1.06-.19-.15-.05-.26-.07-.37-.12-.23-.09-.36-.16-.49-.24.25.19.53.35.97.44.13.03.23.06.34.08.04,0,.08.02.13.03.34.05.66.06.93.05h0s.02,0,.02,0c.54.01,1,.03,1.47.04.41.02.84.03,1.32.05.62.03,1.3.04,2.03.04.68,0,1.34.01,1.99.02.65,0,1.28.05,1.87-.07.17-.03.4-.07.6-.13l-.17.07c-1.05.3-2.18.14-3.29.17-.1,0-.11,0-.13.01,1.16-.01,2.39.18,3.52-.15.65-.16,1.35-.59,1.8-1.21.05-.07.07-.1.16-.21-.2.34-.36.53-.55.73-.06.06-.04.06-.03.06.12-.1.19-.17.25-.25.07-.09.07-.09.12-.14.13-.16.16-.22.2-.28.06-.1.07-.12.1-.16.04-.08.05-.1.08-.16.04-.08.05-.12.07-.16.03-.07.05-.11.06-.16.03-.08.04-.12.06-.17.02-.06.03-.1.05-.14l-.03.13c-.03.09-.04.13-.06.18-.04.09-.04.11-.06.16-.04.08-.06.13-.08.19-.04.07-.05.1-.09.16-.05.08-.07.11-.09.14-.12.18-.16.23-.21.29-.05.06-.09.1-.11.13-.12.13-.19.2-.26.26-.42.37-.79.55-1.18.68-.62.2-1.27.28-1.9.27-.63,0-1.26,0-1.91,0-.6,0-1.32.02-1.99.02h-.89c-.1,0-.13,0-.16,0,1.31.07,2.79.04,4.26.05.73,0,1.49.04,2.22-.15.72-.15,1.41-.54,1.88-1.05.63-.63.97-1.7,1.05-2.66,0-.11.01-.14.02-.18,0,.02,0-.02,0-.06v.09s0-.02,0-.02c0,.08,0,.14,0,.2-.05.72-.19,1.34-.49,1.95-.3.59-.76,1.09-1.34,1.44-.65.39-1.54.58-2.41.6-.17.04-.55.06-.97.08-.84.03-1.63.06-2.45.09-.52.02-.44-.2-1.02-.19-.49.01-.74.06-.74.06.42-.01-.19.02-.19.02h.28Z"/>
    </g>
    <g>
      <path class="cls-1" d="M8.31,11.6c-.63,0-1.25-.19-1.78-.54-.53-.35-.94-.85-1.18-1.44-.24-.59-.31-1.23-.18-1.85.12-.62.43-1.19.88-1.64.45-.45,1.02-.75,1.64-.88.62-.12,1.27-.06,1.85.18.59.24,1.09.65,1.44,1.18.35.53.54,1.15.54,1.78,0,.42-.08.84-.24,1.23-.16.39-.4.74-.69,1.04-.3.3-.65.53-1.04.69-.39.16-.81.24-1.23.24Z"/>
      <path class="cls-2" d="M4.92,9.46c.01.07.03.15-.02.13-.11-.19-.15-.36-.19-.54-.05-.22-.08-.47-.05-.63.02.09.05.18.08.26,0-.1-.03-.19-.04-.28-.02-.09-.03-.18,0-.22,0-.05-.01-.08-.02-.12-.02-.12-.01-.21.02-.29.04-.11.08-.21.13-.34.09-.26.21-.53.36-.79,0,0-.08.04-.03-.03,0-.06.62-1.06,1.59-1.48.94-.47,1.92-.34,1.64-.39-.21-.02.43,0,.79.09.41.08.73.25.91.35.43.26.22.09.22.09.2.11.38.24.55.38.37.36.69.79.92,1.3.25.64.26.95.28,1.52,0,0,0,.15-.02.32-.02.17-.05.36-.06.44-.01.16-.17.46-.23.64-.06.19-.09.24-.17.39-.07.15-.31.38-.43.51-.11.14-.45.35-.61.47-.15.14-.68.43-.85.49-.16.09-.69.15-.55.11.14-.04.05.01.28-.07.22-.09.46-.21.65-.31.2-.1.46-.32.63-.47.17-.15-.05,0-.05,0-.41.36-.89.62-1.42.75-.3.05-.6.06-.9.04.05,0,.04-.01.04-.01-.02,0-.04,0-.04,0,0,0,.43.03.96-.13.38-.12.56-.22.75-.33.08-.05.1-.06.14-.09.2-.12.4-.23.45-.31,0,0,.02-.03.01-.03,0,0-.01,0-.06.04-.03.02-.04.03-.06.05-.06.05-.15.1-.18.11-.13.08-.38.23-.44.26-.23.13-.64.32-1.23.39-.23.01-.28,0-.28-.01,0-.02.27-.02.55-.14.13-.06.22-.12.28-.16,0-.01-.05,0-.1.01h.02c.09-.04.18-.07.27-.11.09-.04.17-.08.25-.12.08-.04.16-.09.23-.14.19-.13.37-.29.53-.47,0-.02,0-.03-.01-.03.03-.03.05-.05.09-.1-.03.05-.04.07-.05.08.03,0,.09-.08.13-.15.01-.02,0-.02,0-.02-.01.01-.02.02-.02.02-.02.02-.03.03-.04.03l.02-.04s.02-.02.03-.03c.07-.09-.29.34-.75.59-.66.39-1.39.39-1.22.37.22-.03.48-.09.74-.2.14-.06.28-.13.41-.21.08-.05.16-.11.24-.18.51-.4.86-1.02.97-1.55.09-.42.25-.73.18-1.17,0-.04,0-.06-.02-.12.03.07.05.11.07.16.08.08,0,.17.06.3.01.02.01.02.01.02-.1-.29-.08-.49-.27-.78-.36-1.14-1.5-1.93-2.64-1.88.06-.02.11-.03.17-.05-.09-.01-.17.01-.23.04-.07.02-.11.03-.16.02.3-.11.48-.04.8-.07.02,0,.03-.01.03-.01-.16,0-.19-.1-.36-.07-.31.07-.57.12-.83.18-.47.11-.89.32-1.24.61-.34.28-.67.58-.86,1.03,0,0-.01.01-.01.02v-.02s.01-.04.02-.08c-.03.05-.06.09-.09.14-.02.1,0,.19-.03.27-.02.08-.03.12-.04.17-.03.14-.04.24-.04.36,0,.03,0,.06,0,.1l.04-.03v.02c0,.09-.01.18-.02.27-.04-.09-.05-.17-.04-.35,0-.14.02-.25.04-.36,0-.05.02-.09.02-.14,0-.09.01-.14.02-.2-.05.1-.08.22-.09.37,0,.05-.02.08-.02.12,0,.02,0,.03,0,.04,0,.32,0,.55.02.8.01.13.04.27.08.43.05.2.13.41.25.63.21.4.5.74.83,1.01.05.04.11.09.17.14l-.06-.02c-.32-.22-.59-.5-.81-.81-.02-.02-.03-.03-.03-.03.2.35.5.67.83.91.19.14.44.29.69.39.03.01.04.02.08.04-.14-.03-.22-.06-.32-.09-.03,0-.03,0-.03.01.05.03.08.04.12.05.04.01.04.01.06.02.07.02.09.03.12.04.04.01.05.01.06.02.03,0,.04.01.06.02.03.01.04.01.06.02.03,0,.04.01.06.02.03,0,.05.01.06.01.02,0,.04.01.05.01h-.05s-.05-.01-.07-.02c-.03,0-.04-.01-.06-.02-.03,0-.05-.01-.07-.02-.03,0-.04-.01-.06-.02-.03-.01-.04-.01-.06-.02-.07-.02-.1-.03-.12-.04-.03-.01-.04-.02-.06-.02-.06-.02-.09-.04-.12-.05-.18-.08-.31-.15-.43-.23-.4-.26-.73-.58-1-.97-.12-.18-.26-.4-.36-.62-.04-.1-.08-.2-.12-.3-.02-.03-.02-.04-.03-.05.19.95,1.07,1.95,2.02,2.32.28.13.66.24,1.03.28.04,0,.05,0,.07.01,0,0,0,0,.02,0h-.03s0,0,0,0c-.03,0-.05,0-.07,0-.53-.02-.97-.14-1.41-.35-.23-.12-.52-.3-.76-.51-.07-.02-.2-.1-.32-.22-.25-.23-.45-.48-.62-.77-.11-.19.1-.25,0-.45-.09-.17-.16-.25-.16-.25.07.15-.04-.07-.04-.07l.02.11Z"/>
    </g>
    <path class="cls-2" d="M12.02,4.55s.02,0,.06.02c.03.01.03.01.04.02,0,0,.02,0-.01,0h-.07s.02,0,.03,0c.02,0,.03,0,0,0h.03s.02,0,.02,0c-.02,0-.04,0-.05.01-.02,0-.02.02-.03.03,0,0,.03-.02.04-.02-.02,0,.04.08.04.02,0-.02,0,.01,0,0,0-.02,0,0,0,0,0,0-.02-.04-.02-.03h0s0,0,0,0h0s0,0,0,0h0s0,0,0,0h0s.04-.04.03-.04c0,0,0-.02-.01,0,0,0,0-.06,0-.06,0,0,0,.02,0,0,.01-.01.03-.02.03-.01,0,0,.03,0,.03,0,0,.01.02-.02.02-.02-.02-.02-.04-.03-.07-.04,0-.03-.02-.06-.05-.09,0,0,0-.01,0-.01h0s.03,0,.08.02c.03.01.04.02.06.02,0,0,.01,0,.01,0,.01.02,0,.06.02.04,0,0,0,0,.01,0,0,0,0,0,0-.01h0s0-.03,0-.04c0-.03-.03-.04-.03-.04-.02,0-.06-.02-.12-.03-.02-.01-.03-.02-.03-.03,0-.02.02-.02.07-.08.02-.03.05-.05.06-.07,0-.01,0-.02-.01-.02h0s.05,0,.05,0c.02,0,.03,0,.05,0h.05s.1.03.14.05c.01,0,.02-.01.02-.02,0,0,.01,0,.03.02-.02,0-.02,0-.03,0-.01.02.01.02.03.03,0,0,.01,0,.01,0h0s0-.02,0-.02h.01s0,0,0,0c.02.02-.05-.09-.15-.15-.15-.1-.32-.11-.28-.11.05,0,.12,0,.19.02.04,0,.08.02.12.03l.08.03c.17.06.33.21.42.37.07.14-.05.25-.05.37,0,.01,0,.02,0,.03-.02-.02-.03-.04-.04-.05-.07-.03.02-.04-.04-.08,0,0-.01,0-.01,0,.09.08.05.13.12.25-.05.37-.4.72-.84.77.02-.02.04-.04.06-.06-.03,0-.06.02-.08.05-.02.02-.04.03-.06.01.11-.09.18-.04.26-.15,0-.01,0-.02,0-.02-.04.05-.07-.04-.11,0-.09.1-.19.13-.29.11-.18-.03-.33-.12-.44-.24-.11-.12-.11-.3-.14-.43,0,0,0,0,0,0h0s0,.01.02.02c0-.02.01-.04.02-.05-.02-.02-.06-.03-.07-.06,0-.02,0-.04,0-.05,0-.04,0-.07,0-.11,0,0,0-.02-.01-.03h-.04s-.01,0-.01,0l.04-.08s.03.05.04.1c0,.04,0,.07.01.1,0,.01,0,.03.01.04.02.02.03.03.05.04,0-.03,0-.06-.02-.1,0-.01,0-.02,0-.03h0c-.04-.09-.01-.16.01-.22.01-.03.03-.07.05-.1.03-.05.06-.09.1-.13.08-.08.17-.12.26-.13.01,0,.03,0,.05,0v.02c-.07.01-.14.05-.21.09,0,0,0,.01,0,.01.09-.03.17-.05.24-.05.04,0,.09.02.13.03,0,0,0,0,.02.02-.01,0-.02.02-.03.02,0,0,0,.01,0,.02,0,0,.02,0,.02,0h0s.01,0,.01,0h0s0,0,0,0h0s0,0,0,0h0s0,0,0,0h0s0,0,0,0h0s0,0,0,0h0s0,0,0,0c0,0-.01,0-.01,0h0s-.01,0-.01,0c-.02,0-.04,0-.06,0-.06,0-.11.02-.16.06-.02.02-.03.05-.05.08v.04s0,.01,0,.01c.08-.1.22-.16.31-.1.03.02.06.05.07.08,0,0,0,0,0,0,0,0,0,0,0,0h0s0,0,0,0h0s-.03,0-.05,0c-.01,0-.02,0-.04,0,.02.03.03.04.03.05,0,.02.02.03.03.04.01,0-.19-.09-.18-.07.01.02.06.04.06.04-.02-.01.02,0,.02,0h0Z"/>
    <g>
      <path class="cls-1" d="M4.44,16.23c-.61,0-1.22-.12-1.79-.33-.42-.16-.79-.41-1.11-.72-.31-.31-.56-.69-.72-1.11-.21-.57-.32-1.18-.33-1.79-.05-.96-.06-1.32-.06-3.85s0-2.89.06-3.85c-.01-.63.08-1.27.29-1.87.16-.42.41-.79.72-1.11.31-.31.69-.56,1.11-.72.59-.21,1.21-.32,1.83-.33.96,0,1.32-.06,3.85-.06s2.89,0,3.85.06c.62,0,1.24.11,1.83.33.42.16.79.41,1.11.72.31.31.56.69.72,1.11.21.59.32,1.21.33,1.83,0,.96.06,1.32.06,3.85s0,2.89-.06,3.85c0,.61-.12,1.22-.33,1.79-.16.42-.41.79-.72,1.11-.31.31-.69.56-1.11.72-.58.23-1.2.35-1.83.37-.96.05-1.32.06-3.85.06s-2.89,0-3.85-.06Z"/>
      <path class="cls-2" d="M.1,7.25c-.01.18-.02.39-.06.3-.03-.54-.02-.97-.02-1.4,0-.57,0-1.16.03-1.57l.06.67c.01-.24,0-.47-.02-.69v.03s0-.01,0-.01c-.02-.24-.03-.48,0-.58,0-.13,0-.22,0-.33.02-.31.06-.56.13-.75.09-.27.22-.58.43-.9.41-.66,1.05-1.21,1.84-1.5,0,0-.22.04,0-.05.09-.02.83-.33,1.94-.33,1.03-.01,2.35-.03,3.62-.04,2.55.03,4.88.07,4.21.03-.54-.03,1.13-.02,2.08.45,1.08.48,1.64,1.4,1.84,1.95.4,1.29.21.59.23.59.16.56.22,1.19.22,1.73.02,1.25.04,2.52.06,3.86-.03,1.66-.04,2.37-.07,3.78,0,0-.01.4-.1.84-.08.44-.24.92-.33,1.13-.14.42-.76,1.13-1.21,1.44-.44.33-.63.39-1.04.55-.41.17-1.26.27-1.73.27-.44.01-1.39-.07-1.9-.05-.51,0-2,.02-2.44.03-.45,0-1.77-.08-1.39-.08.38,0,.13.02.72.01.59,0,1.28-.01,1.84-.02.56-.01,1.43-.03,2-.04.57,0-.11-.03-.11-.03-1.39.02-2.78.05-4.17.01l-2.34-.11c.12,0,.12,0,.12,0-.05,0-.11,0-.11,0,0,0,1.12.02,2.57.05,1.05.02,1.58.02,2.17,0,.26,0,.32,0,.45,0,.63,0,1.2.03,1.43,0,.02,0,.08,0,.07-.02,0,0-.03,0-.17,0-.09,0-.13,0-.2,0-.2,0-.48-.01-.56-.02-.39-.02-1.18,0-1.36,0-.7.03-1.89-.01-3.47-.02-.63-.02-.76-.04-.76-.04,0,0,.18-.01.46-.02.28,0,.67-.02,1.09-.04.38-.02.67-.05.86-.07,0-.01-.14-.02-.28-.02h.06s.82,0,.82,0c.28,0,.53,0,.78,0l.77-.02c.68-.03,1.37-.06,2.06-.09.06-.02.05-.02.03-.03.12,0,.21,0,.4-.01-.17.01-.23.02-.29.03.08.02.35,0,.58-.01.08,0,.07-.01.07-.01-.04,0-.07,0-.1,0-.08,0-.11,0-.14,0h.13c.07-.01.09-.01.13-.01.34-.01-1.31,0-2.86.02-2.25.01-4.35-.06-3.87-.05.68,0,1.49,0,2.32,0,.47,0,.94,0,1.4-.02l.92-.03c.49-.02,1-.04,1.5-.06.51-.02,1.01-.02,1.45-.12.93-.18,1.71-.62,2.14-1.27.35-.5.5-1.03.63-1.58.11-.53.11-1.15.12-1.84,0-.13,0-.2,0-.37.02.22.03.37.04.52.07.27-.03.51.03.94,0,.06.01.05.01.05-.08-.91-.03-1.5-.12-2.53.01-.94,0-1.89-.04-2.84-.03-.93-.03-1.95-.09-2.8-.1-.88-.4-1.69-1.03-2.2-.59-.53-1.48-.72-2.34-.75.17-.01.32-.02.52-.02-.28-.04-.48-.02-.72,0-.22.02-.38.02-.55,0,.51-.04.91-.06,1.26-.01.36.04.73.11,1.14.23.06.01.07,0,.07,0-.42-.13-.55-.26-1.02-.3-.45-.04-.9,0-1.36.02-.45.01-.89.02-1.32.01-1.61-.03-3.12-.02-4.63,0-.37,0-.73,0-1.09,0-.34-.01-.66,0-.99.04-.66.09-1.28.29-1.76.76-.02,0-.04.03-.05.05l.04-.05s.08-.08.16-.16c-.13.09-.24.18-.34.28-.18.23-.26.43-.37.64-.11.21-.13.31-.18.46-.12.41-.16.71-.19,1.05,0,.1,0,.17,0,.29l.04-.09v.06s0,.2,0,.2v.03s-.03.63-.03.63c-.02-.19-.02-.36-.03-.63v-.03c0-.1,0-.25,0-.45.03-.41.09-.73.19-1.06.05-.15.07-.26.12-.37.09-.23.16-.36.24-.49-.19.25-.35.53-.44.97-.03.13-.06.23-.08.34,0,.04-.02.08-.03.13-.05.34-.06.66-.05.93h0s0,.03,0,.03c-.01.54-.03,1-.04,1.47-.02.41-.03.84-.05,1.32-.03.62-.04,1.3-.04,2.03,0,.68-.01,1.34-.02,1.99,0,.65-.05,1.28.07,1.87.03.17.07.4.13.6l-.07-.17c-.3-1.05-.14-2.18-.17-3.29,0-.1,0-.11-.01-.13.01,1.16-.18,2.39.15,3.52.16.65.59,1.35,1.21,1.8.07.05.1.07.21.16-.34-.2-.53-.36-.73-.55-.06-.06-.06-.04-.06-.03.1.12.17.19.25.25.09.07.09.07.14.12.16.13.22.16.28.2.1.06.12.07.16.1.08.04.1.05.16.08.08.04.12.05.16.07.07.03.11.05.16.06.08.03.12.04.17.06.06.02.1.03.14.05l-.13-.03c-.09-.03-.13-.04-.18-.06-.09-.04-.11-.04-.16-.06-.08-.04-.13-.06-.19-.08-.07-.04-.1-.05-.16-.09-.08-.05-.11-.07-.14-.09-.18-.12-.23-.16-.29-.21-.06-.05-.1-.09-.13-.11-.13-.12-.2-.19-.26-.26-.37-.42-.55-.79-.68-1.18-.2-.62-.28-1.27-.27-1.9,0-.63,0-1.26,0-1.91,0-.6-.02-1.32-.02-1.99v-.89c0-.1,0-.13,0-.16-.07,1.31-.04,2.79-.05,4.26,0,.73-.04,1.49.15,2.22.15.72.54,1.41,1.05,1.88.63.63,1.7.97,2.66,1.05.11,0,.14.01.18.02-.02,0,.02,0,.06,0h-.09s.02,0,.02,0c-.08,0-.14,0-.2,0-.72-.05-1.34-.19-1.95-.49-.59-.3-1.09-.76-1.44-1.34-.39-.65-.58-1.54-.6-2.41-.04-.17-.06-.55-.08-.97-.03-.84-.06-1.63-.09-2.45-.02-.52.2-.44.19-1.02-.01-.49-.06-.74-.06-.74.01.42-.02-.19-.02-.19v.28Z"/>
    </g>
  </g>
</svg>