<?xml version="1.0" encoding="UTF-8"?>
<svg id="Layer_2" data-name="Layer 2" xmlns="http://www.w3.org/2000/svg" viewBox="0 0 14.44 8.31">
  <defs>
    <style>
      .cls-1 {
        fill: #151515;
      }
    </style>
  </defs>
  <g id="Layer_1-2" data-name="Layer 1">
    <path class="cls-1" d="M10.46,6.59s-.08.04-.11-.02c.04-.12.11-.18.17-.25.08-.1.15-.19.25-.23l-.03.17s.05-.09.07-.14c.02-.05.03-.1.07-.09,0-.03.01-.05.02-.07.02-.07.04-.11.08-.13.06-.02.12-.04.18-.08.12-.09.24-.18.36-.29,0,0-.07-.02-.04-.05.02-.02.34-.32.68-.65.1-.1.21-.2.3-.29.04-.04.06-.07.06-.08-.02,0-.03-.01-.04,0-.02.02-.01-.04-.07-.06-.03-.01-.04-.02-.05-.04-.05-.05-.09-.1-.12-.13-.18-.19-.13-.05-.13-.05l-.28-.21c-.18-.19-.38-.39-.59-.58-.26-.24-.34-.37-.56-.57,0,0-.22-.22-.3-.26-.08-.03-.14-.21-.23-.26-.09-.05-.11-.08-.18-.13s-.12-.23-.19-.3-.12-.3-.2-.37c-.08-.07-.29-.31-.37-.37-.08-.06-.21-.32-.15-.27.06.05,0,.04.11.11.11.07.22.17.3.25.08.09.23.2.31.29s.01-.05.01-.05l-.63-.63-.27-.43s.03,0,.03,0c0,0-.01-.02-.01-.02,0,0,.17.17.38.4.16.16.24.24.33.33.04.04.05.05.07.07.09.1.13.23.19.24,0,0,.02,0,.03,0,0,0,0-.01-.02-.04-.01-.02-.02-.02-.02-.03-.03-.03-.05-.09-.06-.11-.03-.08-.16-.2-.19-.22-.11-.1-.29-.28-.54-.51-.08-.11-.09-.14-.09-.14.02-.02.13.09.32.15.09.03.17.04.22.04.01-.01,0-.04-.03-.06h.02s.13.12.13.12c.04.04.09.07.14.1l.13.1c.12.08.25.17.37.26.02,0,.03-.01.03-.03.02.02.04.03.07.05-.04-.01-.05-.02-.07-.02-.01.03.05.06.09.08.02,0,.02,0,.02,0,0,0,0-.01-.01-.02,0-.01-.01-.02-.02-.03h.03s.01.03.02.03c.06.05-.18-.21-.41-.46-.33-.35-.65-.68-.57-.61.11.09.24.21.38.33l.23.19.16.12c.35.26.72.53,1.03.76.24.19.26.47.49.66.02.02.03.03.06.05-.05-.01-.09-.02-.13-.03-.11.03-.06-.1-.19-.1-.02,0-.02,0-.02,0,.23.04.28.17.55.22l.93.8.23.2.12.1.21.2.91.84c-.09-.05-.17-.1-.28-.16.07.08.17.14.27.2v.02c-.03.07-.06.12-.14.17.03-.08.07-.14.1-.19-.26-.2-.39-.36-.7-.52-.04-.01-.04-.01-.05,0,.2.12.08.19.29.31.13.07.25.15.37.23-.1.18-.26.37-.43.55-.21.21-.41.41-.61.61l-.36.33c-.24.21-.55.31-.79.53,0,0-.01,0-.02,0v-.02s.02-.02.03-.05c-.04.01-.08.03-.11.04-.03.06-.03.14-.07.18-.04.04-.06.06-.09.08-.07.07-.12.12-.18.17-.02.01-.02.03-.04.06l.05.02v.02s-.16.09-.16.09c.02-.08.05-.12.13-.21.07-.07.12-.12.18-.17.03-.02.04-.05.06-.07.03-.06.04-.09.06-.13-.07.03-.13.09-.18.18-.02.03-.04.03-.06.05,0,0-.02,0-.02.02-.12.18-.25.27-.38.37-.07.05-.15.11-.23.17-.11.08-.22.17-.35.27-.23.18-.46.34-.69.49-.03.02-.08.04-.12.07v-.04s.59-.43.59-.43c.01-.02.01-.02.01-.03-.23.13-.45.27-.66.41-.13.08-.27.16-.42.25-.02,0-.03,0-.06.02.05-.06.09-.1.12-.15,0-.02,0-.02-.01-.03-.03.02-.05.03-.06.04-.02.01-.02.01-.03.02-.03.03-.04.03-.06.05-.02.02-.02.02-.03.02-.01.01-.02.01-.03.02-.02,0-.02.02-.03.02-.01,0-.02.01-.03.02-.02,0-.02.02-.03.02-.01,0-.02.01-.03.02v-.03s.04-.02.04-.03c.02-.01.02-.01.03-.02.02-.01.02-.02.03-.03.01-.01.02-.01.03-.02.01-.01.02-.02.03-.02.03-.03.04-.04.06-.05.02,0,.02-.02.03-.02.03-.02.04-.04.06-.05.09-.07.16-.12.23-.17.22-.17.43-.33.64-.51.1-.08.2-.2.3-.3l.13-.14s0-.03,0-.04c-.45.34-.99.8-1.47,1.11-.15.09-.34.21-.51.32-.02.01-.03.01-.04.02,0,0,0,0-.01,0v-.02s0,0,0,0c.01,0,.02-.02.03-.03.21-.2.38-.36.57-.54.11-.09.24-.22.37-.34-.01-.06.03-.14.08-.21.11-.15.21-.28.32-.42.07-.09.27.14.35.04.05-.09.04-.19.04-.19-.05.08,0-.05,0-.05l-.05.03Z"/>
    <path class="cls-1" d="M10.57,4.9s.09.03.07.09c-.13.06-.23.05-.33.06-.13.01-.27.03-.37-.02l.15-.1c-.06,0-.11.02-.16.05-.05.02-.1.05-.13.01-.03.01-.05.03-.07.04-.07.04-.12.05-.16.03-.06-.03-.13-.06-.21-.07-.16-.02-.33-.04-.5-.05,0,0,.04.06,0,.06-.08,0-2.58-.07-2.27,0,.12.03-.25-.02-.46,0-.24.03-.44,0-.57,0-.29,0-.13.06-.13.06l-.38.05c-.29,0-.59,0-.91.01-.39.02-.55-.02-.88,0,0,0-.34,0-.43.03s-.27-.05-.38-.02c-.11.03-.15.03-.24.04s-.27-.08-.38-.08c-.1,0-.32-.13-.44-.12-.12,0-.47-.01-.57,0-.1.02-.41-.08-.32-.09s.03.03.17,0c.14-.02.3-.04.43-.03.13,0,.33-.03.47-.02.13,0-.03-.04-.03-.04h-.98s-.55-.12-.55-.12c.03,0,.03-.02.03-.02-.01,0-.03,0-.03,0,0,0,.26,0,.6.01.25,0,.37,0,.51,0,.06,0,.07,0,.11,0,.15,0,.28.07.34.04,0,0,.02-.01.02-.02,0,0,0,0-.04-.02-.02,0-.03,0-.05,0-.05,0-.11-.03-.13-.04-.09-.03-.28-.03-.32-.02-.16,0-.44.01-.81.02-.15-.02-.18-.03-.18-.04,0-.03.17-.03.36-.12.09-.04.16-.09.2-.12,0-.02-.03-.02-.07-.02h.01s.19-.02.19-.02c.07,0,.13-.01.18-.02l.18-.02c.16-.03.32-.05.48-.08.01-.02.01-.03,0-.04.03,0,.05,0,.09,0-.04.02-.05.02-.07.03.02.03.08,0,.14,0,.02,0,.02-.02.02-.02-.01,0-.02,0-.02,0-.02,0-.03,0-.03,0h.03s.02-.01.03-.01c.08-.01-.31-.02-.67-.03-.53,0-1.03-.02-.91-.03.16-.01.35-.02.55-.04l.33-.03.22-.03c.47-.06.97-.13,1.38-.19.34-.04.57.15.9.12.03,0,.05,0,.09,0-.05.03-.09.05-.12.07-.06.1-.12-.03-.22.06-.01.01-.01.02-.01.02.21-.13.35-.08.6-.23.89-.06,1.79-.12,2.69-.19-.04.03-.08.05-.13.09.07,0,.13-.03.18-.06.05-.03.09-.04.13-.02-.24.13-.38.06-.61.19-.02.02-.02.02-.02.03.12-.06.16.08.27.02.23-.13.44-.18.65-.19.38-.01.73,0,1.09.02.35.02.67.16,1.02.18,0,0,.01,0,.02,0h-.02s-.03.01-.06.02c.04.02.08.04.12.05.08-.02.13-.07.19-.07.06,0,.09,0,.13,0,.11,0,.18,0,.27,0,.02,0,.04,0,.07-.01l-.02-.06h.02s.2.03.2.03c-.07.04-.13.05-.26.06-.1,0-.18,0-.27,0-.04,0-.07,0-.1,0-.07.02-.1.04-.14.05.08.02.17.03.28,0,.03,0,.06,0,.09,0,.01,0,.02,0,.03,0,.23-.04.4-.02.58,0,.1.01.2.03.31.04.15.02.31.03.48.05.32.04.62.09.91.14.04.01.1.03.15.04l-.04.02-.78-.1s-.03,0-.03.01c.27.07.56.12.83.18.16.04.34.08.51.12.02,0,.03.01.06.03-.09,0-.15.01-.21.02-.02,0-.02.02-.01.03.04.01.06.01.08.01.03,0,.03,0,.04,0,.05,0,.06,0,.08,0,.03,0,.03,0,.04,0,.02,0,.02,0,.04,0,.02,0,.03,0,.04,0,.02,0,.03,0,.04,0,.02,0,.03,0,.04,0,.01,0,.02,0,.03,0h-.03s-.03,0-.04,0c-.02,0-.03,0-.04,0-.02,0-.03,0-.05,0-.02,0-.02,0-.04,0-.02,0-.03,0-.04,0-.05,0-.06,0-.08,0-.02,0-.03,0-.04,0-.04,0-.06,0-.08,0-.12-.02-.22-.03-.31-.04-.3-.03-.59-.07-.89-.09-.14-.01-.31,0-.47,0h-.21s-.03.02-.04.02c.61.07,1.39.14,2,.25.19.04.42.09.64.14.02,0,.03.01.04.01,0,0,0,0,.01,0h-.02s0,0,0,0c-.02,0-.03,0-.04,0-.31,0-.57-.01-.86-.02-.15,0-.35-.02-.55-.03-.04.05-.13.07-.23.09-.2.03-.38.05-.57.08-.12.02-.1-.29-.24-.27-.11.03-.17.1-.17.1.1-.03-.04.03-.04.03h.07Z"/>
  </g>
</svg>