<?xml version="1.0" encoding="UTF-8"?>
<svg id="Layer_2" data-name="Layer 2" xmlns="http://www.w3.org/2000/svg" viewBox="0 0 14.16 9.09">
  <defs>
    <style>
      .cls-1 {
        fill: #151515;
      }
    </style>
  </defs>
  <g id="Layer_1-2" data-name="Layer 1">
    <path class="cls-1" d="M12.22,6.76s0,.01,0,.03c.01-.02.04-.05.07-.09.4-.5.84-.88.96-.98.03-.02.08-.06.23-.21.07-.07.12-.12.21-.21.08-.08.15-.15.21-.2-.01.01-.03.02-.04.02,0,0,0,0-.01,0,0-.01.02-.03.04-.05,0-.01.01-.02.02-.03h0s-.02.03-.04.04c-.02.01-.02.02-.08.07-.02.02-.03.03-.07.06-.04.02-.05-.01-.03-.07.02-.06.04-.13.06-.19.03-.03.04-.04.07-.07.11-.12.22-.24.33-.36-.13-.12-.25-.23-.36-.33-.13-.12-.24-.24-.36-.37-.04-.04-.05-.06.04-.04-.22-.13-.26-.25-.29-.32-.05.02-.08,0-.1-.03-.14-.16-.27-.29-.44-.47-.34-.38-.68-.78-1.04-1.19-.09-.11-.18-.22-.26-.33-.04-.06-.05-.11-.07-.17-.01-.04-.05-.06-.12-.07-.02,0-.04,0-.07-.01.01-.04-.04-.05-.08-.06-.04-.01-.1-.02-.13-.06.05,0,.1.01.16.02-.02-.09-.12-.16-.2-.22-.07-.05-.12-.11-.23-.15-.05.03-.03.07-.02.1.05.12.1.23.15.36,0,0-.02,0-.04,0l-.18-.13s-.04-.04-.03-.06c.04-.06-.01-.11-.1-.15-.06-.04-.12-.07-.18-.1-.09-.05-.17-.1-.26-.15-.04-.03-.09-.04-.14-.02-.06-.08-.13-.16-.18-.21-.1-.11-.18-.2-.29-.32,0,0-.01,0-.02-.01h0s-.01,0-.01,0c0,0,0,0,0,0,0,0,0,0,0,.02.04.11.08.22.13.32.14.3.35.6.55.9,0,0-.02,0-.04,0l-.08-.08c-.06-.06-.12-.11-.17-.17-.09-.12-.17-.25-.26-.38-.02-.04-.05-.08-.08-.14,0,0-.01-.02-.02-.03,0,0,0,0,0-.02,0,0,0-.01-.02-.03,0,0,0,0,0-.02,0,0,0,0-.01-.02,0,0-.01,0-.02-.02,0,0,0,0-.01-.02,0,0,0,0-.01-.02h-.02s0,0,0,.01c0,0,0,0,.01.02,0,0,0,0,0,.02,0,0,0,0,.01.02,0,0,0,0,.01.02,0,0,0,0,.01.02,0,0,0,.01.02.03,0,0,0,0,.01.02,0,0,.01.02.02.04,0,0-.01.02-.03.02-.03-.02-.05-.04-.09-.06,0,.02,0,.03,0,.04.03.09.07.19.1.27.06.14.12.28.17.42,0,0,0,0-.02,0l-.21-.35h-.03s.01.05.02.08c.13.29.3.57.51.85.09.12.17.24.33.34,0,0,0,.01.01.02.01.02.02.04.04.06.08.05.13.1.16.16-.03-.01-.06-.03-.12-.05-.02-.02-.04-.03-.07-.05-.05-.05-.09-.09-.15-.16-.08-.08-.12-.1-.19-.11l.08.15h.02s.03-.05.03-.05c.02.01.04.02.05.03.05.05.09.09.15.16.02.02.04.04.07.08.04.04.11.03.16.06,0,.03.02.07.03.11-.03,0-.04-.01-.05-.02h-.01s0,0,0,.01c.19.22.39.45.58.66.19.22.38.44.62.65.12.11.28.2.51.24.12.02.23.05.34.08,0,0,0,0-.03,0-.23-.04-.45-.09-.68-.13,0,.04.04.05.09.06.05,0,.11.01.15.06-.05,0-.09-.01-.14-.02l.27.23.13.11c.05.04.03.01.04.02.03,0,.07.02.12.04,0,.03,0,.07-.04.13,0,.21-.05.47-.08.69,0,0,0,0,0-.02,0-.12.03-.26,0-.37,0-.03.01-.07.02-.12-.02.02-.03.03-.05.05-.17.21-.35.41-.51.63-.2.27-.44.62-.67.93-.06.09-.13.18-.19.28-.06.08-.12.16-.17.22-.07.1-.15.21-.22.3,0,0,0,0-.02.02v.03s0,0,.01-.01c0,0,0,0,.02-.01,0,0,0,0,0,.02-.02.04-.04.1-.07.08,0-.01,0-.03.02-.06-.02.03-.03.04-.05.06.01,0,.02.01.03.03-.09.14-.19.28-.28.41-.01.03-.03.06-.05.08l-.06.08s0,.01,0,.01c.01,0,.03-.02.04,0l-.23.38s-.03.06-.05.08c.01,0,.02,0,.03-.01l.51-.71c.08-.11.16-.22.24-.31,0,.01,0,.02,0,.04-.01.02-.03.05-.04.06-.1.15-.21.3-.31.44-.22.32-.44.62-.67.95-.04.06-.09.11-.12.2.05-.04.09-.07.13-.12.14-.17.3-.27.42-.5.05-.1.12-.19.18-.27.16-.24.33-.49.47-.69.21-.28.39-.53.58-.79.05-.07.09-.12.14-.18v.02c-.03.06-.06.12-.09.17-.19.26-.38.53-.55.76-.19.26-.39.51-.57.81-.05.08-.09.16-.12.27.06.04.11,0,.17-.06.1-.12.23-.25.35-.4.04-.05.08-.1.12-.13.03-.02.08-.04.08-.13,0,0,0-.02.01-.02.1-.14.2-.28.32-.38,0,0,0,0,0,.02-.2.28-.4.54-.59.86.14-.12.26-.29.39-.46,0,.07-.01.12-.02.19.05-.07.11-.14.14-.18.08-.1.16-.18.23-.27.01-.02.03-.04.05,0,0,0,0,0,0,.02l-.04.06s0,.01-.02.02v.03s0-.02.01-.02c0,0,0-.01.02-.02.23-.25.46-.51.69-.8.06-.08.13-.15.2-.21.01-.01.04-.03.05-.02.02.02.02.08.01.13.02-.03.03-.04.04-.04Z"/>
    <path class="cls-1" d="M9.26,3.72s0-.01.02-.02c-.02,0-.07,0-.12.01-.7.07-1.34.03-1.51.01-.05,0-.12-.01-.23-.01-.06,0-.09,0-.17,0-.07,0-.13,0-.16,0,0,0,.02,0,.02.01,0,0,0,0,0,.01-.01,0-.02,0-.04,0,0,0-.02,0-.02,0,0,0,0,0,0,0,0,0,.02,0,.03,0,.02,0,.03,0,.06,0,.01,0,.03,0,.05,0,.02.02,0,.04-.03.07-.05.03-.09.06-.14.09-.02,0-.04,0-.06,0-.21.01-.43.03-.64.04-.12,0-.23,0-.34,0-.04,0-.05-.01-.01-.06-.16.06-.21,0-.29-.02-.03.05-.07.05-.1.05-.23,0-.47-.01-.7-.02-.58-.03-1.15-.07-1.72-.11-.16,0-.31-.03-.45-.05-.07-.01-.13-.04-.19-.07-.04-.02-.09,0-.15.03-.02.01-.04.02-.06.04-.02-.04-.07,0-.11.01-.05.02-.1.06-.15.05.05-.03.09-.06.14-.1-.09-.04-.21-.03-.33-.02-.09.01-.18,0-.29.06-.02.06.03.07.06.09.13.05.27.09.4.14,0,0-.01.01-.03.02-.08.01-.16.03-.24.04-.04,0-.06,0-.07-.02-.02-.07-.09-.07-.19-.04-.07.02-.14.04-.22.05-.11.03-.21.05-.32.08-.05.01-.1.04-.13.09-.11,0-.2-.02-.3-.03-.15,0-.31-.01-.48-.02,0,0-.01,0-.02,0h0s0,0-.01,0c0,0,0,0,0,0,0,0,.01,0,.02.01.12.05.23.1.35.14.35.11.74.18,1.12.25,0,0-.01.01-.03.02-.04,0-.08,0-.13,0-.09,0-.18.01-.26,0-.17-.02-.33-.05-.49-.09-.06-.01-.11-.02-.17-.04-.01,0-.03,0-.05,0,0,0-.01,0-.02,0-.01,0-.03,0-.04,0,0,0,0,0-.02,0,0,0,0,0-.02,0,0,0-.01,0-.03,0,0,0-.01,0-.02,0,0,0-.01,0-.02,0,0,0-.01,0-.02,0,0,0,.01,0,.02,0,0,0,.01,0,.02,0,0,0,.01,0,.02,0,0,0,.01,0,.02,0,0,0,0,0,.02,0,0,0,.01,0,.02,0,.01,0,.03,0,.04,0,0,0,.01,0,.02,0,.01,0,.02,0,.04.01,0,.01,0,.02,0,.03-.03,0-.07,0-.12.02.02.02.02.02.03.03.09.04.19.08.28.12.15.06.31.11.46.18,0,0,0,0-.02.01-.14-.03-.29-.07-.43-.1,0,0-.02.02-.02.02.03.01.05.03.08.04.32.11.67.19,1.05.24.16.02.32.05.52,0,.01,0,.02,0,.03,0,.03,0,.05.02.08,0,.1-.02.18-.02.25,0-.04.01-.07.03-.13.05-.03,0-.06,0-.09,0-.08,0-.16,0-.24,0-.12,0-.17.01-.23.06.06.02.12.03.18.05,0,0,.01,0,.01-.01,0-.02-.01-.04-.02-.06.03,0,.04-.01.06-.01.08,0,.16,0,.24,0,.03,0,.07,0,.12,0,.06,0,.11-.05.17-.07.03.02.07.03.1.05-.03.01-.04.02-.05.02,0,0,0,0-.01,0,0,0,.01,0,.02,0,.32.02.64.04.96.06.32.02.64.04.98.02.18,0,.37-.05.58-.19.11-.07.22-.13.33-.19,0,0,0,.01-.02.03-.21.13-.42.26-.63.39.04.02.07,0,.12-.02.05-.03.1-.07.16-.06-.05.03-.08.06-.12.09.81-.06,1.61-.12,2.41-.19.21-.15.42-.3.61-.43,0,0,0,0-.01.02-.09.09-.22.17-.28.27-.03.02-.06.04-.11.07.04,0,.06,0,.08,0,.29-.03.58-.04.89-.08.41-.05.83-.12,1.24-.19.12-.02.24-.04.36-.06.1-.01.2-.03.3-.04.13-.02.26-.04.4-.06,0,0,.01,0,.03,0,0,0,.02,0,.03-.01,0,0-.02,0-.03,0,0,0-.01,0-.02,0,0,0,0,0,.01-.02.05-.01.11-.04.12,0-.01,0-.03.01-.06.03.04,0,.06,0,.08,0,0-.01,0-.02,0-.04.18-.03.35-.07.53-.1.03-.01.07-.02.1-.02.04,0,.07,0,.11-.01,0,0,0,0,0-.01-.02,0-.04,0-.04-.02.16-.03.31-.07.47-.1.03,0,.07-.02.1-.03,0-.01-.02-.01-.03-.01-.32.05-.63.1-.95.14-.14.02-.29.04-.43.05,0,0,.02-.01.04-.03.03,0,.05-.01.08-.02.2-.03.39-.06.58-.1.42-.07.83-.13,1.25-.2.08-.01.15-.01.25-.06-.06,0-.13-.01-.2,0-.24.02-.44-.02-.71.06-.12.03-.24.05-.35.07-.3.05-.61.11-.91.16-.35.05-.7.1-1.06.15-.08.01-.17.02-.25.03,0,0,0-.01,0-.02.07-.02.14-.04.21-.05.34-.05.68-.1,1.02-.15.35-.05.7-.09,1.07-.18.1-.02.2-.05.3-.1-.02-.07-.09-.08-.17-.08-.19,0-.39.02-.59.03-.07,0-.14.01-.2,0-.04,0-.09-.03-.16.04,0,0-.02,0-.03,0-.19.03-.37.06-.54.04,0,0,0,0,.02-.02.37-.06.73-.1,1.12-.19-.2,0-.43.02-.66.05.06-.04.1-.07.16-.12-.09.01-.17.02-.25.03-.13.01-.26.02-.38.03-.02,0-.06,0-.03-.03,0,0,0,0,.02-.01.02,0,.05-.01.08-.02,0,0,.02,0,.03,0,0,0,.02-.01.03-.02-.01,0-.02,0-.03,0,0,0-.02,0-.03,0-.38.01-.76.03-1.15.08-.11.01-.22.01-.32,0-.02,0-.05,0-.05-.03,0-.03.04-.07.09-.1-.04,0-.06,0-.06,0Z"/>
  </g>
</svg>