<?xml version="1.0" encoding="UTF-8"?>
<svg id="Layer_2" data-name="Layer 2" xmlns="http://www.w3.org/2000/svg" viewBox="0 0 14.55 9.27">
  <defs>
    <style>
      .cls-1 {
        fill: #151515;
      }
    </style>
  </defs>
  <g id="Layer_1-2" data-name="Layer 1">
    <path class="cls-1" d="M9.55,8.9c.23-.24.49-.52.77-.82.07-.08.09-.11.14-.15.03-.02.08-.04.08-.13,0,0,0-.02.01-.02.04-.06-.1.06-.26.22-.43.42-.95.93-.81.81,0,0,0,0,0,.03-.46.54,1.12-.98.67-.4.35-.33.42-.44.55-.62,0,.07-.01.12-.02.19.06-.07.11-.14.14-.18.04-.04-.15.14-.35.33-.44.44-.91.9-.82.81.03-.03.07-.08.07-.02,0,0,0,.01-.02.04l-.1.12s-.02.03-.04.04c.04-.04.47-.46.95-.94.25-.25.49-.48.51-.5-.02.02-.26.26-.51.51-.48.48-.9.9-.95.95.01,0,.02-.02.04-.04.24-.25.48-.5.75-.79.15-.16.18-.2.24-.27.05-.07.11-.14.17-.21.06-.08.13-.15.2-.21.06-.05.09,0,.07.11-.02.1-.05.18-.1.24-.09.1-.16.19-.24.27-.11.12-.18.19-.32.33-.09.1-.19.26-.27.26,0,0,0,0-.01.01-.12.17-.24.27-.36.41.07-.07.45-.44.92-.91.24-.24.48-.48.46-.48-.03,0-.06.03-.08.08-.02.06-.04.08-.07.12-.04.05-.09.11-.12.15l-.08.1v.02s.11-.12.11-.12c.08-.08-.05.03-.19.17-.36.35-.78.76-.58.55.19-.19.37-.38.56-.57l.38-.4c.25-.27.5-.53.76-.8.18-.2.35-.39.57-.63.17-.2.34-.37.52-.54.44-.42.87-.84,1.32-1.27l.2-.19.1-.1s-.04-.07-.06-.1l-.38-.4c-.26-.27-.52-.54-.77-.81-.25-.27-.5-.54-.8-.79-.06-.05-.11-.1-.2-.15-.03.06.03.1.06.16.09.11.17.23.27.36.04.05.11.14.15.19.11.12.23.25.34.38.19.21.39.42.57.61.1.1.18.19.27.28l.14.14s.15.1.06.14c-.17.17-.34.34-.52.52-.08.08-.16.15-.24.26.09-.08.19-.16.29-.27.16-.16.32-.31.52-.49.09-.05.02-.1-.03-.15l-.14-.15-.28-.3-.58-.61c-.16-.18-.33-.37-.51-.58-.06-.08-.12-.15-.19-.24-.01-.01,0-.03,0-.04.14.14.26.27.41.42.13.14.26.28.39.43.23.25.46.49.68.71.14.15.28.29.42.44-.1.14-.28.29-.42.43-.28.27-.55.54-.83.81-.22.2-.44.41-.67.62,0,0-.02,0-.03,0,0,0,0-.02.02-.03v-.02s0,0,0,0c0,0,0,.02-.02.02-.01.01-.02.02-.04.03,0,0-.02.02-.04.03-.03,0-.03-.03-.03-.07,0-.05.02-.1.03-.15.02-.02.03-.02.04-.04.13-.15.28-.32.39-.45.08-.09.14-.13.24-.23.04-.03.06-.04.05.03.11-.19.2-.21.32-.28-.02-.05.01-.09.05-.13l.36-.34.18-.17s.04-.03.04-.04l-.04-.04-.08-.09c-.27-.29-.55-.59-.82-.9-.18-.2-.35-.4-.53-.61-.1-.11-.18-.22-.26-.33-.04-.06-.05-.11-.07-.17-.01-.04-.05-.06-.12-.07-.02,0-.04,0-.07-.01.01-.04-.04-.05-.08-.06-.04-.01-.1-.02-.13-.06.05,0,.1.01.16.02-.03-.09-.12-.16-.2-.23-.07-.05-.12-.11-.24-.15-.05.03-.03.07-.02.1.05.12.1.23.16.36,0,0-.02,0-.04,0l-.18-.13s-.04-.04-.03-.06c.04-.06-.01-.11-.1-.15-.08-.05-.21-.16-.31-.24-.16-.13-.32-.25-.48-.37-.08-.06-.17-.11-.23-.11-.14-.15-.28-.31-.39-.43-.21-.22-.4-.42-.63-.66-.01,0-.02-.02-.03-.03h0s-.02,0-.02,0c0,0,.02.01,0,.01,0,0,0,.02.02.04.13.19.27.4.38.57.37.53.92,1.17,1.3,1.66,0,0-.02,0-.04,0l-.15-.15c-.12-.12-.25-.24-.35-.35-.21-.24-.4-.48-.61-.73-.06-.08-.12-.15-.2-.26-.01-.02-.03-.03-.06-.07,0,0-.01-.01-.02-.03-.01-.01-.02-.02-.06-.06,0,0-.01-.02-.02-.03-.01-.01-.02-.02-.03-.03-.01,0-.02-.02-.03-.03,0-.01-.01-.01-.03-.03,0,0-.02-.02-.03-.03l-.03-.02s.01.01.02.03c0,0,.02.02.03.03,0,0,.02.02.02.03,0,0,.01.02.03.03.01.01.01.02.03.03,0,0,0,.01.03.03.01.01.02.02.05.06.01.01.01.01.03.03.02.02.03.04.05.07,0,0-.01.02-.03.01-.05-.04-.1-.08-.17-.15.01.03.01.05.02.06.1.16.21.33.3.47.16.25.34.49.5.75,0,0-.01,0-.03-.01l-.51-.65-.05-.02s.06.1.08.14c.18.26.37.52.58.78.12.14.22.27.32.39.06.08.11.15.15.21.09.12.17.24.34.34,0,0,0,.01.02.02.01.02.02.04.04.06.08.05.13.1.16.16-.03-.01-.07-.03-.12-.05-.02-.02-.04-.03-.07-.05-.05-.05-.09-.1-.16-.16-.08-.08-.12-.1-.19-.11l.08.15h.02s.03-.05.03-.05c.02.01.04.02.05.03.05.05.09.09.15.16.02.02.04.04.07.08.04.04.11.03.17.06,0,.03.02.07.03.11-.03,0-.04-.01-.05-.02h-.02s0,0,0,.01c.19.22.39.45.58.67l.15.16c.05.05.01.02.03.04,0,0,0,.01.02.02.01,0,.11,0,.23.06.07.03.11.08.13.13,0,0-.01,0-.02-.02-.07-.11-.2-.16-.39-.16-.03,0-.01,0,.03,0,.04,0,.09,0,.07.01-.04,0-.07-.01-.11-.01.02,0,.03.01.04.03v.03s-.17.21-.17.21l-.72.85c-.03.25-.07.49-.1.71,0,0,0,0,0-.02,0-.12.03-.26,0-.37,0-.03.01-.07.03-.12-.02.02-.03.03-.05.05-.17.21-.35.41-.52.64-.2.28-.45.62-.68.94-.04.05-.05.08-.11.15l-.23.27c-.14.16-.27.31-.38.44-.08.09.3-.27.7-.66.22-.2.46-.43.42-.37,0,0,0,0-.02.02v.03s0,0,.01-.01c0,0,0,0,.02-.01,0,0,0,0,0,.02-.02.04-.04.1-.08.08l.02-.06-.05.06s.02.01.03.03l-.14.21c-.05.07-.07.12-.21.28-.04.05-.07.1-.12.15l-.14.15v.02s.05-.04.07-.03"/>
    <path class="cls-1" d="M13.05,3.98c-.34,0-.72.02-1.12.03-.11,0-.16.01-.23,0-.04,0-.09-.03-.17.04,0,0-.02,0-.03,0-.09.01.13.02.39.03.6.01,1.32.02,1.15,0,0,0,0,0,.03-.02.71-.06-1.49-.1-.75-.19-.14,0-.26,0-.43,0-.15,0-.3.03-.46.05l.17-.12c-.1.01-.19.02-.26.03-.07,0,.24,0,.55.01.62,0,1.28,0,1.15.01-.04,0-.11,0-.06-.03,0,0,0,0,.04-.01.05,0,.1-.01.16-.02.01,0,.03,0,.05,0-.05,0-.66,0-1.34,0-.4,0-.79,0-.82,0,.02,0,.42,0,.82,0,.68,0,1.28,0,1.34,0-.01,0-.03,0-.06,0-.4.01-.8.02-1.28.03-.15.01-.31.03-.51.04-.12.01-.23.01-.33,0-.09,0-.07-.06.04-.13.09-.06.19-.09.27-.1.15,0,.28-.01.41-.02.16,0,.27,0,.48-.01.14,0,.32-.04.38,0,0,0,0,0,.02,0,.2-.03.36-.02.54-.04-.09,0-.63,0-1.29,0-.38,0-.78,0-.76.01.03.02.07.03.12,0,.06-.03.1-.03.15-.04.08,0,.16-.02.22-.02l.14-.02v-.02s-.16.01-.16.01c-.13,0,.06,0,.29.01.5,0,1.09.01.8.02-.27,0-.54,0-.8.01-.21,0-.41,0-.62.01-.42.01-.83.02-1.26.03-.31.01-.6.03-.98.04-.3.02-.58.02-.86.01-.46-.01-.92-.03-1.39-.04-.44-.02-.9-.04-1.34-.05-.42-.02-.84-.03-1.29,0-.09,0-.17,0-.29.04.02.06.11.05.17.07.16.02.32.04.51.06.08,0,.21.02.28.03.38.02.79.04,1.17.06.19,0,.35,0,.55,0,.17,0,.33,0,.51,0,.08,0,.15,0,.25-.01-.08-.01-.17-.02-.27-.01-.15,0-.3,0-.48-.01-.37-.02-.75-.03-1.12-.05-.28-.02-.57-.03-.88-.05-.12,0-.22-.02-.35-.03-.02,0-.03-.02-.02-.03.22,0,.43,0,.67,0,.41.02.85.04,1.25.05.53.01,1.05.02,1.57.03.34.01.69.02,1.04.03.02,0,.02.01.02.02-.01,0-.02,0-.04,0h-.03s0,.01,0,.01c0,0,.02,0,.03,0,.02,0,.04,0,.06,0,.01,0,.03,0,.05,0,.02.02,0,.04-.04.07-.05.03-.1.06-.15.09-.03,0-.04,0-.07,0-.23.01-.48.03-.68.04-.13,0-.24,0-.36,0-.04,0-.06-.01-.01-.06-.17.06-.22,0-.31-.02-.03.05-.07.05-.11.05-.25,0-.48-.01-.74-.02-.6-.03-1.2-.07-1.82-.11-.17,0-.33-.03-.48-.05-.08-.01-.14-.04-.2-.07-.04-.02-.09,0-.16.03-.02.01-.04.02-.07.04-.02-.04-.07,0-.12.01-.05.02-.1.06-.15.05.05-.03.09-.06.15-.1-.09-.04-.22-.03-.35-.02-.1.01-.19,0-.31.06-.02.06.03.07.07.09.14.05.26.09.42.14,0,0-.01.01-.03.02l-.25.04s-.07,0-.07-.02c-.02-.07-.1-.07-.21-.04-.1.02-.26.04-.39.05-.2.03-.4.05-.61.08-.1.01-.2.04-.24.09-.2,0-.42-.02-.58-.03-.31,0-.58-.01-.91-.02-.01,0-.03,0-.05,0h0s-.02,0-.02,0c.01,0,.02,0,.01,0,0,0,.02,0,.04.01.23.05.48.1.68.14.64.11,1.47.18,2.1.25,0,0-.01.01-.04.02h-.22c-.17,0-.34.01-.49,0-.32-.02-.63-.05-.95-.09-.1-.01-.19-.02-.33-.04-.02,0-.04,0-.09,0,0,0-.02,0-.04,0-.02,0-.03,0-.09,0-.01,0-.02,0-.04,0-.02,0-.02,0-.04,0-.01,0-.03,0-.05,0-.01,0-.02,0-.04,0-.01,0-.02,0-.05,0h-.03s.02.01.04.02c.01,0,.02,0,.04,0,.01,0,.02,0,.04,0,.01,0,.02,0,.04,0,.02,0,.02,0,.04,0,.01,0,.02,0,.04,0,.02,0,.03,0,.08,0,.02,0,.02,0,.04,0,.02,0,.05,0,.09.01,0,.01,0,.02-.02.03-.07,0-.13,0-.22.02.03.02.04.02.06.03.19.04.38.08.54.12.29.06.59.11.88.18,0,0,0,0-.03.01l-.83-.1-.05.02c.05.01.11.03.16.04.31.06.63.1.96.14.18.02.35.04.5.05.11.02.2.03.29.04.17.02.33.05.55,0,.01,0,.02,0,.03,0,.03,0,.05.02.08,0,.1-.02.19-.02.26,0-.04.01-.07.03-.14.05-.03,0-.06,0-.1,0-.08,0-.16,0-.26,0-.12,0-.18.01-.25.06l.19.05h.02s-.02-.07-.02-.07c.03,0,.05-.01.07-.01.08,0,.15,0,.25,0,.04,0,.07,0,.12,0,.06,0,.11-.05.18-.07.03.02.07.03.11.05-.03.01-.04.02-.06.02h-.02s.01,0,.02.01c.34.02.68.04,1.01.06.34.02.67.04,1.03.02.19,0,.39-.05.61-.19.11-.07.23-.13.35-.19,0,0,0,.01-.02.03-.22.13-.44.26-.66.39.04.02.07,0,.12-.02.05-.03.1-.07.17-.06-.05.03-.09.06-.13.09.85-.06,1.7-.12,2.54-.19.23-.15.45-.3.65-.43,0,0,0,0-.01.02-.1.09-.24.17-.3.27-.03.02-.07.04-.12.07.04,0,.05,0,.08,0,.31-.03.62-.04.94-.08.39-.06.87-.13,1.31-.19l.21-.03.35-.03c.21-.01.41-.03.58-.04.12-.01-.4-.02-.96-.03-.34-.01-.71-.02-.64-.03,0,0,.01,0,.03,0h.03s-.01-.01-.03-.02c0,0-.01,0-.02,0,0,0,0,0,.01-.02.05-.01.11-.04.13,0-.01,0-.03.01-.07.03.04,0,.06,0,.09,0,0-.01,0-.02,0-.04.15-.03.31-.05.46-.08l.19-.02c.06-.01.12-.02.19-.02h.2s.01-.02.01-.02c-.03,0-.07,0-.07-.02"/>
  </g>
</svg>