<?xml version="1.0" encoding="UTF-8"?>
<svg id="Layer_2" data-name="Layer 2" xmlns="http://www.w3.org/2000/svg" viewBox="0 0 18.04 20.68">
  <defs>
    <style>
      .cls-1 {
        fill: #151515;
      }
    </style>
  </defs>
  <g id="Layer_1-2" data-name="Layer 1">
    <path class="cls-1" d="M12.47,14.26s0-.04-.01-.12c0,.18,0,.42-.05.77-.15,1.07-.61,2.08-1.24,2.85-.63.78-1.43,1.32-2.19,1.65-1.56.65-2.9.44-3.38.34-.29-.06-.76-.17-1.36-.45-.32-.16-.51-.26-.9-.53-.35-.25-.61-.5-.77-.67.04.04.07.08.08.09,0,0,0,0,0,0-.05-.04-.09-.09-.16-.16-.03-.03-.07-.07-.11-.11,0,0,0,0,0,.01.04.05.08.08.14.15.07.07.15.15.26.26.06.06.12.11.23.21.1.1,0,.04-.19-.1-.23-.17-.45-.38-.64-.59-.09-.12-.16-.21-.24-.32-.81-1.11-1.24-2.47-1.13-3.85.01-.75.23-1.44.52-2.09.1-.21.15-.29.06-.05.42-.91.71-1.15,1.06-1.51.1-.15.27-.32.46-.47,1.13-.96,2.65-1.46,4.11-1.36l.23.02h.08c.07,0,.03.09.04.13l-.02,1.07-.02,1.11v.45s0,.1-.02.12c-.03-.01-.07-.02-.1-.03l-.15-.02h-.25c-.34-.02-.68.03-1.01.13-.65.2-1.24.6-1.65,1.15-.85,1.09-.88,2.71-.08,3.84.69,1.01,1.94,1.52,3.06,1.39.57-.06.99-.21,1.39-.43.27-.16.58-.4.86-.8.09-.13.17-.26.25-.41.1-.12.28-.49.32-.88.02-.38-.02-.67,0-1.02.01.33.04.58.04.97.05-.62.04-1.43.05-2.25,0-.62.01-1.23-.01-1.99-.04-.12-.05.17-.06.43-.04.89-.08,1.77-.13,2.69,0-.05,0-.1-.01-.22,0-.53,0-1.07,0-1.61,0-.24,0-.42.02-.46.04-.11.05-.63.04-1.32-.01-.5-.02-.97-.03-1.45-.01-.71-.03-1.41-.04-2.13,0-.37-.02-.69-.05-.84,0-.72.01-1.36.02-2.03,0-1.04.01-2.11.02-3.21,0-.05,0-.09,0-.16h0s0-.06,0-.06c0,.04,0,.07,0,.05,0,.03,0,.06,0,.15-.03.79-.06,1.59-.09,2.37-.06,2.51-.11,5.02-.17,7.56,0-.06,0-.12-.01-.23v-.85c0-.58,0-1.2,0-1.73.02-1.1.04-2.18.06-3.32,0-.37.02-.73.03-1.15,0-.08,0-.17,0-.3,0-.03,0-.06,0-.14,0-.08,0-.17,0-.3,0-.03,0-.07,0-.14,0-.03,0-.06,0-.15,0-.05,0-.09,0-.17,0-.03,0-.07,0-.14,0-.04,0-.08,0-.16,0-.04,0-.07,0-.11,0,.03,0,.05,0,.12,0,.04,0,.07,0,.15,0,.03,0,.06,0,.14,0,.04,0,.06,0,.15,0,.03,0,.07,0,.15,0,.03,0,.07,0,.15,0,.08,0,.16,0,.29,0,.04,0,.07,0,.15,0,.07,0,.14,0,.3,0,0-.01.02-.02-.05,0-.22,0-.44,0-.78,0,.12-.01.18-.02.22-.03.64-.05,1.28-.08,1.91-.04,1.01-.08,2.01-.12,3.09,0-.01,0-.03,0-.11.02-.97.05-1.93.07-2.9,0-.06,0-.11-.01-.16,0,.18-.02.37-.03.55-.06,2.35-.12,4.66-.18,7.06-.01.54-.02,1.07-.04,1.63,0,.28,0,.57-.01.88.01.34-.02.54-.14.81-.03.05-.05.09-.08.13-.11.15-.16.24-.28.38-.36.45-.81.68-1.2.77.21-.07.41-.16.66-.34.14-.09.26-.2.4-.34.16-.17.27-.33.41-.56.1-.18.18-.39.19-.62,0-.78,0-1.13-.01-1.56-.02.4-.03.8-.05,1.19v.1s.03-.09.04-.14c0,.19,0,.3,0,.43-.01.2-.08.4-.18.58-.12.19-.26.42-.43.58-.14.14-.29.27-.53.41-.28.15-.55.29-.93.34-.19,0-.39,0-.61-.04.15.01.23,0,.31.01.03,0,.06,0,.08,0-.04,0-.07,0-.1,0-.91-.01-1.78-.59-2.13-1.43-.19-.41-.23-.85-.16-1.32.06-.47.26-.84.56-1.2.31-.34.72-.6,1.17-.71.22-.06.46-.09.69-.08.13.01.16,0,.5.07.27.08.58.19.86.28.01-1.26.02-2.54.04-3.87,0-.28,0-.55,0-.84.03-.1-.06-.1-.14-.11l-.22-.03c-.15-.02-.29-.04-.44-.06-.44-.04-.71-.03-1.07,0-.69.05-1.39.23-2.07.54-.69.32-1.35.76-1.9,1.3,0,0,0,0,.07-.08,1.05-1.01,2.47-1.68,4.03-1.81-.27,0-.52.03-.84.1-.33.07-.68.17-1.12.32.32-.13.55-.21.83-.28C2.42,8.01.11,10.67,0,13.62v1.06c.04.39.11.72.21,1.08.19.7.49,1.36.88,1.96.79,1.2,1.97,2.13,3.32,2.61,1.47.43,2.96.31,4.24-.18,0,0,0,0-.07.04-.57.25-1.5.39-1.89.45-.23.01-.45.02-.78,0,.25.03.4.03.55.04,2.08.07,4.17-.89,5.44-2.6.86-1.15,1.35-2.61,1.31-4.04-.02-1.4-.03-2.8-.05-4.19-.01-.76-.02-1.53-.03-2.29v-.18s0-.05,0-.05l.04.02.08.04.32.18c.21.1.56.34.88.47.83.35,1.71.57,2.64.66.04,0,.08,0,.18.02.07,0,.14,0,.21,0-.06,0-.11-.01-.23-.02-.03,0-.07,0-.14-.02,0,0-.02,0,.1,0,.18,0,.38.02.54.02.22.07.11-.18.15-.2-.01.08.1.29-.23.23.38.1.2-.23.24-.39,0,.03-.01.04-.03-.05-.02-.98-.04-1.96-.06-2.98-.19-.01-.39-.03-.6-.06-.22-.03-.43-.07-.67-.14-.23-.06-.45-.15-.68-.24h-.05c.11.04.22.09.22.1-.98-.37-1.94-.99-2.51-1.92-.13-.19-.24-.39-.34-.59.01.05.05.12.09.2.81,1.7,2.82,2.63,4.47,2.72l.02.88c0,.49.01.97.02,1.45,0,.23,0,.47,0,.69v.17s.02.07-.01.07h-.08s-.33-.02-.33-.02c.06,0,.11,0,.23,0h.12s.05,0,.05,0v-.06c0-.08,0-.17,0-.25-.02-.97-.03-1.94-.05-2.9-.12,0-.25-.02-.38-.03-.14-.02-.3-.05-.45-.08-1.13-.25-2.22-.79-3.01-1.69-.38-.45-.68-.96-.9-1.51-.11-.28-.19-.56-.25-.85-.03-.14-.06-.31-.07-.42-.01-.09-.02-.18-.02-.26-.46,0-.93.02-1.4.03-.52.01-1.03.01-1.65.04.44,0,.86,0,1.35,0,.58,0,1.11,0,1.65-.01,0,.11.06.69.21,1.15.14.47.37.95.68,1.42.25.35.5.66.83.94.32.26.65.48,1.01.66.39.2.8.36,1.21.48.42.12.89.18,1.13.19.01.55.02,1.1.03,1.65v.89s.02.38.02.38v.18s-.11,0-.16,0c-.22,0-.52-.03-.81-.07-.29-.04-.58-.09-.87-.16-.57-.14-1.14-.32-1.66-.59l-.8-.45-.41-.23c-.1-.09-.06.05-.07.12v.24s.02,1.81.02,1.81c0,.56,0,1.11.01,1.66v-.05c-.02-.47-.03-.98-.04-1.4l-.02-1.75v-.49c0-.07-.02-.19,0-.22l.21.12.83.46c.98.57,2.11.84,3.22.95.27,0,.61.13.5-.23v-.94c-.02-.61-.03-1.23-.04-1.85-.27,0-.93-.11-1.42-.28-.52-.17-1.02-.42-1.5-.73-.57-.35-1.08-.91-1.47-1.53.01.12.29.6.69,1.02.52.52,1.09.87,1.73,1.16.32.14.65.25.99.34.17.04.34.08.51.11l.18.03h.1s.04.01.04.01c0,.11,0,.23,0,.34,0,.21,0,.41,0,.6,0,.28-.02.6.02,1.1,0,.06,0,.14,0,.2v.36s0,.11,0,.11v.05s-.05,0-.05,0h-.22s-.45-.06-.45-.06c-.59-.08-1.15-.22-1.66-.41,0,0,0,0,.1.02.46.15.94.26,1.41.33l.36.04.3.02h.15c.06.01.01-.08.02-.12,0-.45-.01-.9-.02-1.36,0-.25,0-.51-.01-.77v-.33s-.01-.11-.01-.11c-.09,0-.08,0-.4-.05-.25-.05-.51-.1-.76-.18.23.08.47.14.72.19.32.06.35.06.41.06,0,.77.02,1.62.03,2.5-.01,0-.02-.22-.04-.39-.01-.17-.02-.35-.04-.56,0,.32,0,.61,0,.88,0,.05.03.13-.03.11h-.06s-.28-.03-.28-.03c-.2-.02-.41-.05-.61-.09-.4-.08-.8-.18-1.18-.31-.14-.05-.34-.12-.19-.09.03,0,.05.02.14.04.15.05.3.09.5.15.06.01.1.03.17.05l.18.04c-.07-.01-.15-.03-.18-.04-.04-.01-.08-.02-.19-.06-.58-.17-1.14-.39-1.65-.71-.44-.23-1.05-.65-1.48-.8,0,.57,0,1.14,0,1.72,0,1.28.02,2.57.02,3.92,0,.76,0,1.46,0,2.12,0,.12,0,.33-.02.35-.01.04-.03-.28-.05-.58,0,.25,0,.39,0,.4Z"/>
    <path class="cls-1" d="M14.03,3.04s0,0,.02.02c-.02-.03-.06-.08-.1-.14-.57-.81-.72-1.72-.74-1.94,0-.07-.02-.17-.03-.32,0-.15-.02-.24-.03-.44,0-.05,0-.1,0-.14V0s-.04,0-.06,0c-.08,0-.15,0-.21,0,.03,0,.05,0,.05,0,0,0,0,0,0,0-.03,0-.06,0-.11,0-.02,0-.05,0-.07,0h0s.05,0,.09,0c.04,0,.07,0,.17,0,.03,0,.1-.02.12.02,0,.03,0,.04-.01.03,0-.03-.02-.04-.09-.02-.13.01-.26.02-.39.03-.06,0-.09,0-.15,0-.32,0-.5.01-.8.02-.18,0-.34,0-.51,0-.05,0-.08,0-.02-.02-.23.03-.31,0-.43,0-.04.02-.1.02-.15.02-.36.02-.59-.03-1.26.04,0,.88-.01,4.79-.01,5.69,0,.23,0,.46,0,.67,0,.11-.01.19-.02.28,0,.06,0,.13.02.22,0,.03.01.06.02.09-.01.03,0,.1,0,.17,0,.07.02.14.02.21-.01-.07-.03-.13-.04-.2-.01.13,0,.31,0,.49,0,.13,0,.27.03.43.02.02.03-.04.03-.1.01-.2.02-.38.04-.6,0,0,0,.02,0,.05l.02.35c0,.05,0,.09,0,.1-.02.03-.02.14,0,.29.01.11.02.21.03.31.01.15.03.3.04.46,0,.08.02.15.04.18,0,.16,0,.31,0,.45,0,.23.01.45.02.7,0,.01,0,.02,0,.04h0s0,.01,0,.01c0,0,0-.01,0-.01,0,0,0-.01,0-.03.01-.18.02-.35.03-.53.01-.52.03-1.1.04-1.67,0,.01,0,.02,0,.05v.18c0,.13.01.26.02.38,0,.25,0,.48-.01.73,0,.08,0,.15,0,.25,0,.02,0,.04,0,.07,0,0,0,.01,0,.03,0,.02,0,.03,0,.07,0,0,0,.01,0,.03,0,0,0,.01,0,.03,0,.01,0,.02,0,.04,0,.01,0,.01,0,.03,0,0,0,.02,0,.04v.02s0-.01,0-.03c0,0,0-.02,0-.03,0,0,0-.02,0-.03,0,0,0-.02,0-.03,0-.01,0-.02,0-.03,0,0,0-.01,0-.03,0-.02,0-.03,0-.06,0-.01,0-.01,0-.03,0-.02,0-.04,0-.07,0,0,0,0,.01,0,0,.05,0,.1.01.17,0-.03,0-.04,0-.05.01-.14.02-.29.03-.43.02-.23.03-.46.05-.68,0,0,0,0,0,.02l-.02.64v.03s.02-.08.02-.12c.03-.47.04-1,.04-1.55,0-.23,0-.46-.02-.76,0-.02,0-.03,0-.04,0-.04,0-.07,0-.11-.01-.14-.01-.26,0-.36,0,.05.01.1.02.19,0,.04,0,.08,0,.13,0,.11,0,.22,0,.35,0,.17.01.25.03.34v-.26s0-.02,0-.02l-.02.03s0-.06,0-.09c0-.11,0-.22,0-.35,0-.05,0-.1,0-.17,0-.08-.02-.15-.03-.25,0-.05.01-.1.02-.16,0,.04,0,.06,0,.08v.02s0-.02,0-.03c0-.47,0-.94,0-1.4,0-.46,0-3.77,0-4.26,0-.08-.07-.06.32-.13.16-.03.32-.05.47-.08,0,0,0,0-.02.01l-.45.08-.23.04c-.07.01-.05.03-.06.04.01,0,.01,0,.03,0,.02-.01.13-.03.21-.03-.07.01-.12.02-.17.03.59-.02,1.17-.03,1.76-.05l.84-.02c.15-.04.07.05.14.42.1.31.23.6.36.87,0,0,0,0-.01-.01-.07-.12-.15-.31-.21-.38-.02-.05-.03-.09-.06-.16.01.05.02.08.03.11.11.43.24.79.48,1.25.49.98,1.16,1.55,1.67,1.87.52.34.91.5,1.18.61.55.21.64.22.82.26.18.04.37.07.55.09.07.02.14-.01.12.06,0,.16,0,.33,0,.48,0,.01,0,.02,0,.04v.04s0-.02,0-.04c0,0,0-.02,0-.03,0,0,0,0,0,.02,0,.07,0,.16,0,.18,0-.02,0-.04,0-.09,0,.06,0,.08,0,.12,0,0,0,0,.02.01,0,.27.01.53.02.79,0,.05,0,.1,0,.15v.16s0,.01,0,.01c0-.03,0-.05.01-.05l.02.7s0,.1,0,.15c0-.01,0-.03,0-.04l-.02-1.4c0-.21,0-.43,0-.63,0,.01,0,.02,0,.06,0,.04,0,.08,0,.12,0,.29,0,.58.01.87.01.62.01.68.02,1.31,0,.12,0,.06.01.21,0-.09,0-.03,0-.13,0-.35.02-.34,0-.75,0-.18,0-.1,0-.28,0-.45-.02-.93-.02-1.34,0-.52,0,.02,0-.47,0-.1,0-.19,0-.28h0c0,.08,0,.16.01.23,0,.47,0-.02,0,.42,0,.52.01,1.03.02,1.59,0,.14.01.29.03.45.03-.02.12-.5.12-.63,0-.27,0-.57.01-.87,0-.1,0-.2,0-.29,0-.06.01-.13,0-.24,0,0,0-.03,0-.04,0-.14,0-.28,0-.41v-.25c0-.08.03-.19-.08-.17,0,0,0,0,.04,0,.06-.01.06.03.06.08v.14s0,.25,0,.25v.41c.01.27.02.55.02.84.01-.3.01-.63,0-.98.01.09.02.15.04.25,0-.14,0-.27,0-.36,0-.11,0-.22,0-.33v-.22c0-.07.03-.17-.07-.15-.05,0-.13-.01-.06-.02,0,0,.02,0,.06,0h.1s0,.07,0,.1c0,.02,0,.04,0,.07v.07s0-.06,0-.07c0-.02,0-.04,0-.08,0-.03,0-.07,0-.1-.04,0-.08,0-.12-.01-.09,0-.19-.02-.31-.03-.18-.02-.31-.04-.49-.08-.36-.07-.78-.2-1.18-.38-.8-.35-1.51-.95-1.65-1.15-.1-.12-.19-.24-.27-.35-.01-.02-.04-.06-.03-.07,0-.01.05.04.1.08-.03-.04-.05-.07-.05-.07Z"/>
  </g>
</svg>