<?xml version="1.0" encoding="UTF-8"?>
<svg id="Layer_2" data-name="Layer 2" xmlns="http://www.w3.org/2000/svg" viewBox="0 0 18.25 20.64">
  <defs>
    <style>
      .cls-1 {
        fill: #151515;
      }
    </style>
  </defs>
  <g id="Layer_1-2" data-name="Layer 1">
    <path class="cls-1" d="M8.16,10.46s0,.03.01.1c0-.14,0-.38,0-.67,0-.47,0-.94,0-1.4,0-.14.01-.7,0-1.08.02-.07-.06-.05-.11-.07l-.15-.02-.31-.05c-.2-.03-.44-.05-.52-.05-.94-.06-1.82.08-2.56.32-1.5.49-2.39,1.33-2.74,1.67-.2.2-.51.52-.86,1.05-.18.28-.29.47-.48.86-.17.36-.28.67-.35.9.02-.05.03-.09.04-.1,0,0,0,0,0,0-.02.06-.03.11-.06.21-.01.04-.02.09-.03.14h0c.01-.07.03-.12.05-.19.03-.08.05-.14.11-.32.03-.08.05-.15.1-.27.06-.11.03-.01-.03.2-.08.27-.13.52-.17.78-.03.14-.05.23-.07.35-.12.63-.04,1.1-.05,1.56,0,.48.1.95.26,1.5.2.65.47,1.22.83,1.77.12.17.17.25,0,.07.55.71.78.94,1.1,1.27.14.08.31.22.48.35,1.07.79,2.37,1.26,3.74,1.29.79.02,2.42-.08,3.99-1.16,1.57-1.03,2.89-3.12,2.91-5.38,0-2.1.01-4.2.01-5.97.02-.59-.1-.46.44-.18.61.36,1.18.52,1.57.65.42.13.85.22,1.27.28l.32.04.4.04.52.03c.16,0,.41.08.34-.16,0-.33.01-.63.02-.91,0-.16.01-.32.02-.48,0-.22,0-.47-.03-.79,0-.11-.02-.21-.03-.34.02-.11,0-.36-.02-.6-.01-.27-.02-.55-.03-.84-.14-.01-.28-.02-.43-.03l.45.02.05.79c0-.24,0-.51,0-.84-.17-.02-.35-.03-.54-.05l-.28-.03-.17-.02c-.2-.03-.41-.07-.62-.13-.44-.12-.86-.29-1.35-.55-.08,0,.1.12.27.21.29.17.59.31.91.42.16.06.32.11.49.15l.26.06.14.03.21.03s-.08,0-.23-.01c-.4-.05-.8-.14-1.19-.28-.17-.06-.3-.12-.33-.15-.07-.08-.43-.24-.88-.52-.34-.22-.6-.42-.84-.7-.36-.41-.65-.86-.87-1.38-.11-.26-.2-.5-.25-.59-.09-.35-.14-.71-.15-1.09-.17-.01-.36,0-.54,0-.85.01-1.65.03-2.56.04-.04,0-.08,0-.13,0h.01s-.06,0-.06,0c.03,0,.05,0,.04,0,.03,0,.05,0,.12,0,.64.01,1.26.03,1.93.04.33,0,.67.01,1.06.02,0,.17,0,.29.03.49.02.2.06.4.11.6.1.4.25.79.44,1.17.2.37.44.73.73,1.06.3.34.65.58,1.01.82-.03-.01-.07-.03-.16-.08-.2-.12-.38-.26-.56-.4-.39-.32-.69-.72-.92-1.09-.24-.4-.43-.82-.55-1.26-.13-.42-.2-.96-.2-1.19v-.02c-.09,0-.19,0-.29,0h-.42c-.06,0-.13,0-.24,0-.03,0-.06,0-.11,0-.06,0-.11,0-.24,0-.03,0-.05,0-.11,0-.02,0-.05,0-.12,0-.04,0-.07,0-.14,0-.04,0-.05,0-.12,0-.03,0-.06,0-.13,0h-.08s.05,0,.1,0c.03,0,.07,0,.12,0,.03,0,.06,0,.11,0,.03,0,.06,0,.12,0,.04,0,.06,0,.12,0,.03,0,.05,0,.12,0,.06,0,.1,0,.23,0,.05,0,.05,0,.12,0,.07,0,.13,0,.24,0,0,0,.02.01-.03.02-.18,0-.35.01-.61.02.1,0,.13,0,.19.01l.68.02h.24c.05.01.11.01.15.02v.1c0,.06,0,.08,0,.16.01.11.02.22.04.33.03.22.09.43.14.65.13.43.3.84.51,1.23,0,0-.02-.01-.05-.07-.21-.36-.37-.75-.49-1.14-.06-.2-.11-.4-.15-.6-.04-.19-.07-.48-.07-.48l-.02-.03c0,.08-.02.02.01.25.11.92.48,1.87,1.1,2.68.67.86,1.58,1.39,2.62,1.76.25.08.49.15.75.2.1.02.21.04.31.05h.07s0,.05,0,.05c0,.02,0,0,0,.14,0,.21.01.44.02.67,0,.06,0,.1,0,.15,0,.13,0,.26,0,.41.02.49.02,1.08.01,1.02-.01-.08-.02,0-.04-.37,0-.15,0-.3-.01-.49,0-.41,0-.81-.01-1.29,0-.08,0-.15,0-.22v-.03s0-.02-.01-.03c-.03,0-.03.02-.09.02.06.01.04.02.04.02,0,0,0,0,0,0,0,0,0,0,0,.03.01-.06.02-.02.03-.04h0s0,.09,0,.09c0,.05,0,.11,0,.16,0,.41,0,.8.01,1.28,0,.18,0,.35,0,.62,0,.09,0,.15,0,.14l.02.04s.04.09-.01.08l-.06-.02s0,0-.04-.01l-.14-.02c.07,0,.11,0,.16,0,0,0,.01,0,.02,0h.01s0,0-.01,0l-.22-.02-.3-.04c-.2-.03-.4-.07-.59-.11-.39-.09-.78-.21-1.16-.35-.19-.07-.37-.14-.55-.24l-.61-.35c-.59-.25-1.65-1.29-1.35,0,0,.49,0,1.73,0,3.36,0,.71,0,1.5,0,2.33-.02.84.06,1.72-.12,2.49-.32,1.61-1.38,2.99-2.5,3.69-1.12.73-2.18.88-2.58.92-.91.1-1.83.05-2.84-.27-.51-.16-1.03-.41-1.49-.73,0,0,0,0,.07.03.89.57,1.91.91,2.96.93-.18-.03-.34-.05-.57-.08-.22-.03-.47-.07-.77-.18.23.06.39.09.58.12-1.93-.45-3.58-2-4.16-3.92-.14-.49-.26-.95-.24-1.47v-.76c0-.23.04-.49.09-.73.21-.98.67-1.9,1.33-2.66.65-.87,1.52-1.54,2.5-1.94,0,0,0,0-.05.03-.44.2-1.04.56-1.25.78-.13.1-.26.2-.44.36.14-.11.21-.16.32-.23.61-.42,1.26-.7,1.96-.88.35-.09.72-.14,1.11-.16.37-.02.87,0,1.02.03.03.94,0,3.26-.03,3.11-.09-.03-.17-.05-.26-.06-.13-.02-.37-.03-.54-.02-.38.02-.74.1-1.06.24-.65.27-1.16.74-1.48,1.27-.64,1.09-.53,2.28-.1,3.09.44.82,1.13,1.29,1.75,1.51.63.22,1.19.21,1.64.13.9-.18,1.34-.56,1.63-.82.28-.27.43-.5.58-.75.19-.32.32-.73.31-1.08,0-.33,0-.66,0-.99,0-.57.01-1.12.02-1.63,0-.74,0-1.47.01-2.17,0-.04,0-.06,0-.14,0-.05,0-.09,0-.15,0,.03,0,.07,0,.16,0,.03,0,.06,0,.11,0,0,0,.01,0-.08,0-.27-.02-.58,0-.66,0,.07,0,.14.01.34,0-.21,0-.31,0-.45,0,.02-.01.03-.03-.04,0-.97-.01-1.93-.02-2.88,0-.18,0-.35,0-.55v-.57s0-.04,0-.04c0,.1,0,.19-.02.19l-.03-2.54c0-.16,0-.36,0-.54,0,.04,0,.1,0,.16l.02,5.11c0,.78,0,1.55,0,2.29,0-.05,0-.09-.01-.21,0-.14,0-.3,0-.43,0-1.06,0-2.12-.01-3.15-.01-2.26-.02-2.47-.03-4.78,0-.42,0-.23-.02-.75,0,.34-.01.09-.01.48,0,1.29-.03,1.23,0,2.72,0,.66,0,.38,0,1.01,0,1.65.02,3.38.03,4.89,0,1.88,0-.06,0,1.71,0,.47-.01.89-.02,1.33v-.04c-.01-.38-.01-.77-.01-1.13,0-1.7,0,.06,0-1.53,0-1.89-.02-3.76-.03-5.78-.01-.52-.03-1.06-.04-1.65-.04.06-.2,1.84-.21,2.28,0,.99-.02,2.06-.02,3.15,0,.37,0,.75-.01,1.07,0,.22-.02.47.01.89,0,.03,0,.11,0,.16,0,1.01-.01,2.02-.05,2.9,0,0,0,0,0-.09.03-1.98.02-3.94,0-6.04,0,1.09-.01,2.3-.02,3.57-.02-.32-.04-.56-.06-.91,0,.52,0,.97,0,1.33-.01.72-.02,1.39-.04,2.06,0,.12,0,.3-.03.17,0-.01,0-.03,0-.12,0-.15,0-.28,0-.44,0-.04,0-.08,0-.15v-.16c0,.06,0,.13,0,.15,0,.04,0,.08,0,.16,0,.25-.01.65-.02,1.15,0,.25,0,.53-.01.83,0,.15,0,.31,0,.47,0,.12-.04.26-.09.39-.24.53-.69,1.08-1.34,1.34-.63.27-1.43.25-2.07-.08-.65-.32-1.12-.95-1.27-1.63-.07-.31-.06-.69,0-1.01.05-.34.17-.6.34-.86.69-1.04,1.81-1.16,2.23-1.12.07,0,.31.03.53.1.22.07.44.14.63.21.03-.26.01-.57.02-.84,0-.22,0-.42.01-.63,0-.09.01-.27.02-.29.02-.02.04.25.05.49,0-.21,0-.31,0-.32Z"/>
    <path class="cls-1" d="M13.99,3.04s0,0,.02.02c-.02-.03-.06-.08-.1-.14-.57-.81-.72-1.72-.74-1.94,0-.07-.02-.17-.03-.32,0-.15-.02-.24-.03-.44,0-.05,0-.1,0-.14V0s-.04,0-.06,0c-.08,0-.15,0-.21,0,.03,0,.05,0,.05,0,0,0,0,0,0,0-.03,0-.06,0-.11,0-.02,0-.05,0-.07,0h0s.05,0,.09,0c.04,0,.07,0,.17,0,.03,0,.1-.02.12.02,0,.03,0,.04-.01.03,0-.03-.02-.04-.09-.02-.13.01-.26.02-.39.03-.06,0-.09,0-.15,0-.32,0-.5.01-.8.02-.18,0-.34,0-.51,0-.05,0-.08,0-.02-.02-.23.03-.31,0-.43,0-.04.02-.1.02-.15.02-.36.02-.59-.03-1.26.04,0,.88-.01,4.79-.01,5.69,0,.23,0,.46,0,.67,0,.11-.01.19-.02.28,0,.06,0,.13.02.22,0,.03.01.06.02.09-.01.03,0,.1,0,.17,0,.07.02.14.02.21-.01-.07-.03-.13-.04-.2-.01.13,0,.31,0,.49,0,.13,0,.27.03.43.02.02.03-.04.03-.1.01-.2.02-.38.04-.6,0,0,0,.02,0,.05l.02.35c0,.05,0,.09,0,.1-.02.03-.02.14,0,.29.01.11.02.21.03.31.01.15.03.3.04.46,0,.08.02.15.04.18,0,.16,0,.31,0,.45,0,.23.01.45.02.7,0,.01,0,.02,0,.04h0s0,.01,0,.01c0,0,0-.01,0-.01,0,0,0-.01,0-.03.01-.18.02-.35.03-.53.01-.52.03-1.1.04-1.67,0,.01,0,.02,0,.05v.18c0,.13.01.26.02.38,0,.25,0,.48-.01.73,0,.08,0,.15,0,.25,0,.02,0,.04,0,.07,0,0,0,.01,0,.03,0,.02,0,.03,0,.07,0,0,0,.01,0,.03,0,0,0,.01,0,.03,0,.01,0,.02,0,.04,0,.01,0,.01,0,.03,0,0,0,.02,0,.04v.02s0-.01,0-.03c0,0,0-.02,0-.03,0,0,0-.02,0-.03,0,0,0-.02,0-.03,0-.01,0-.02,0-.03,0,0,0-.01,0-.03,0-.02,0-.03,0-.06,0-.01,0-.01,0-.03,0-.02,0-.04,0-.07,0,0,0,0,.01,0,0,.05,0,.1.01.17,0-.03,0-.04,0-.05.01-.14.02-.29.03-.43.02-.23.03-.46.05-.68,0,0,0,0,0,.02l-.02.64v.03s.02-.08.02-.12c.03-.47.04-1,.04-1.55,0-.23,0-.46-.02-.76,0-.02,0-.03,0-.04,0-.04,0-.07,0-.11-.01-.14-.01-.26,0-.36,0,.05.01.1.02.19,0,.04,0,.08,0,.13,0,.11,0,.22,0,.35,0,.17.01.25.03.34v-.26s0-.02,0-.02l-.02.03s0-.06,0-.09c0-.11,0-.22,0-.35,0-.05,0-.1,0-.17,0-.08-.02-.15-.03-.25,0-.05.01-.1.02-.16,0,.04,0,.06,0,.08v.02s0-.02,0-.03c0-.47,0-.94,0-1.4,0-.46,0-3.77,0-4.26,0-.08-.07-.06.32-.13.16-.03.32-.05.47-.08,0,0,0,0-.02.01l-.45.08-.23.04c-.07.01-.05.03-.06.04.01,0,.01,0,.03,0,.02-.01.13-.03.21-.03-.07.01-.12.02-.17.03.59-.02,1.17-.03,1.76-.05l.84-.02c.15-.04.07.05.14.42.1.31.23.6.36.87,0,0,0,0-.01-.01-.07-.12-.15-.31-.21-.38-.02-.05-.03-.09-.06-.16.01.05.02.08.03.11.11.43.24.79.48,1.25.49.98,1.16,1.55,1.67,1.87.52.34.91.5,1.18.61.55.21.64.22.82.26.18.04.37.07.55.09.07.02.14-.01.12.06,0,.16,0,.33,0,.48,0,.01,0,.02,0,.04v.04s0-.02,0-.04c0,0,0-.02,0-.03,0,0,0,0,0,.02,0,.07,0,.16,0,.18,0-.02,0-.04,0-.09,0,.06,0,.08,0,.12,0,0,0,0,.02.01,0,.27.01.53.02.79,0,.05,0,.1,0,.15v.16s0,.01,0,.01c0-.03,0-.05.01-.05l.02.7s0,.1,0,.15c0-.01,0-.03,0-.04l-.02-1.4c0-.21,0-.43,0-.63,0,.01,0,.02,0,.06,0,.04,0,.08,0,.12,0,.29,0,.58.01.87.01.62.01.68.02,1.31,0,.12,0,.06.01.21,0-.09,0-.03,0-.13,0-.35.02-.34,0-.75,0-.18,0-.1,0-.28,0-.45-.02-.93-.02-1.34,0-.52,0,.02,0-.47,0-.1,0-.19,0-.28h0c0,.08,0,.16.01.23,0,.47,0-.02,0,.42,0,.52.01,1.03.02,1.59,0,.14.01.29.03.45.03-.02.12-.5.12-.63,0-.27,0-.57.01-.87,0-.1,0-.2,0-.29,0-.06.01-.13,0-.24,0,0,0-.03,0-.04,0-.14,0-.28,0-.41v-.25c0-.08.03-.19-.08-.17,0,0,0,0,.04,0,.06-.01.06.03.06.08v.14s0,.25,0,.25v.41c.01.27.02.55.02.84.01-.3.01-.63,0-.98.01.09.02.15.04.25,0-.14,0-.27,0-.36,0-.11,0-.22,0-.33v-.22c0-.07.03-.17-.07-.15-.05,0-.13-.01-.06-.02,0,0,.02,0,.06,0h.1s0,.07,0,.1c0,.02,0,.04,0,.07v.07s0-.06,0-.07c0-.02,0-.04,0-.08,0-.03,0-.07,0-.1-.04,0-.08,0-.12-.01-.09,0-.19-.02-.31-.03-.18-.02-.31-.04-.49-.08-.36-.07-.78-.2-1.18-.38-.8-.35-1.51-.95-1.65-1.15-.1-.12-.19-.24-.27-.35-.01-.02-.04-.06-.03-.07,0-.01.05.04.1.08-.03-.04-.05-.07-.05-.07Z"/>
  </g>
</svg>