<?xml version="1.0" encoding="UTF-8"?>
<svg id="Layer_2" data-name="Layer 2" xmlns="http://www.w3.org/2000/svg" viewBox="0 0 19.06 17.99">
  <defs>
    <style>
      .cls-1 {
        fill: #151515;
      }
    </style>
  </defs>
  <g id="Layer_1-2" data-name="Layer 1">
    <path class="cls-1" d="M12.22,11.25s0,.01,0,.03c.01-.02.04-.05.07-.09.4-.5.84-.88.96-.98.03-.02.08-.06.23-.21.07-.07.12-.12.21-.21.08-.08.15-.15.21-.2-.01.01-.03.02-.04.02,0,0,0,0-.01,0,0-.01.02-.03.04-.05,0-.01.01-.02.02-.03h0s-.02.03-.04.04c-.02.01-.02.02-.08.07-.02.02-.03.03-.07.06-.04.02-.05-.01-.03-.07.02-.06.04-.13.06-.19.03-.03.04-.04.07-.07.11-.12.22-.24.33-.36-.13-.12-.25-.23-.36-.33-.13-.12-.24-.24-.36-.37-.04-.04-.05-.06.04-.04-.22-.13-.26-.25-.29-.32-.05.02-.08,0-.1-.03-.14-.16-.27-.29-.44-.47-.34-.38-.68-.78-1.04-1.19-.09-.11-.18-.22-.26-.33-.04-.06-.05-.11-.07-.17-.01-.04-.05-.06-.12-.07-.02,0-.04,0-.07-.01.01-.04-.04-.05-.08-.06-.04-.01-.1-.02-.13-.06.05,0,.1.01.16.02-.02-.09-.12-.16-.2-.22-.07-.05-.12-.11-.23-.15-.05.03-.03.07-.02.1.05.12.1.23.15.36,0,0-.02,0-.04,0l-.18-.13s-.04-.04-.03-.06c.04-.06-.01-.11-.1-.15-.06-.04-.12-.07-.18-.1-.09-.05-.17-.1-.26-.15-.04-.03-.09-.04-.14-.02-.06-.08-.13-.16-.18-.21-.1-.11-.18-.2-.29-.32,0,0-.01,0-.02-.01h0s-.01,0-.01,0c0,0,0,0,0,0,0,0,0,0,0,.02.04.11.08.22.13.32.14.3.35.6.55.9,0,0-.02,0-.04,0l-.08-.08c-.06-.06-.12-.11-.17-.17-.09-.12-.17-.25-.26-.38-.02-.04-.05-.08-.08-.14,0,0-.01-.02-.02-.03,0,0,0,0,0-.02,0,0,0-.01-.02-.03,0,0,0,0,0-.02,0,0,0,0-.01-.02,0,0-.01,0-.02-.02,0,0,0,0-.01-.02,0,0,0,0-.01-.02h-.02s0,0,0,.01c0,0,0,0,.01.02,0,0,0,0,0,.02,0,0,0,0,.01.02,0,0,0,0,.01.02,0,0,0,0,.01.02,0,0,0,.01.02.03,0,0,0,0,.01.02,0,0,.01.02.02.04,0,0-.01.02-.03.02-.03-.02-.05-.04-.09-.06,0,.02,0,.03,0,.04.03.09.07.19.1.27.06.14.12.28.17.42,0,0,0,0-.02,0l-.21-.35h-.03s.01.05.02.08c.13.29.3.57.51.85.09.12.17.24.33.34,0,0,0,.01.01.02.01.02.02.04.04.06.08.05.13.1.16.16-.03-.01-.06-.03-.12-.05-.02-.02-.04-.03-.07-.05-.05-.05-.09-.09-.15-.16-.08-.08-.12-.1-.19-.11l.08.15h.02s.03-.05.03-.05c.02.01.04.02.05.03.05.05.09.09.15.16.02.02.04.04.07.08.04.04.11.03.16.06,0,.03.02.07.03.11-.03,0-.04-.01-.05-.02h-.01s0,0,0,.01c.19.22.39.45.58.66.19.22.38.44.62.65.12.11.28.2.51.24.12.02.23.05.34.08,0,0,0,0-.03,0-.23-.04-.45-.09-.68-.13,0,.04.04.05.09.06.05,0,.11.01.15.06-.05,0-.09-.01-.14-.02l.27.23.13.11c.05.04.03.01.04.02.03,0,.07.02.12.04,0,.03,0,.07-.04.13,0,.21-.05.47-.08.69,0,0,0,0,0-.02,0-.12.03-.26,0-.37,0-.03.01-.07.02-.12-.02.02-.03.03-.05.05-.17.21-.35.41-.51.63-.2.27-.44.62-.67.93-.06.09-.13.18-.19.28-.06.08-.12.16-.17.22-.07.1-.15.21-.22.3,0,0,0,0-.02.02v.03s0,0,.01-.01c0,0,0,0,.02-.01,0,0,0,0,0,.02-.02.04-.04.1-.07.08,0-.01,0-.03.02-.06-.02.03-.03.04-.05.06.01,0,.02.01.03.03-.09.14-.19.28-.28.41-.01.03-.03.06-.05.08l-.06.08s0,.01,0,.01c.01,0,.03-.02.04,0l-.23.38s-.03.06-.05.08c.01,0,.02,0,.03-.01l.51-.71c.08-.11.16-.22.24-.31,0,.01,0,.02,0,.04-.01.02-.03.05-.04.06-.1.15-.21.3-.31.44-.22.32-.44.62-.67.95-.04.06-.09.11-.12.2.05-.04.09-.07.13-.12.14-.17.3-.27.42-.5.05-.1.12-.19.18-.27.16-.24.33-.49.47-.69.21-.28.39-.53.58-.79.05-.07.09-.12.14-.18v.02c-.03.06-.06.12-.09.17-.19.26-.38.53-.55.76-.19.26-.39.51-.57.81-.05.08-.09.16-.12.27.06.04.11,0,.17-.06.1-.12.23-.25.35-.4.04-.05.08-.1.12-.13.03-.02.08-.04.08-.13,0,0,0-.02.01-.02.1-.14.2-.28.32-.38,0,0,0,0,0,.02-.2.28-.4.54-.59.86.14-.12.26-.29.39-.46,0,.07-.01.12-.02.19.05-.07.11-.14.14-.18.08-.1.16-.18.23-.27.01-.02.03-.04.05,0,0,0,0,0,0,.02l-.04.06s0,.01-.02.02v.03s0-.02.01-.02c0,0,0-.01.02-.02.23-.25.46-.51.69-.8.06-.08.13-.15.2-.21.01-.01.04-.03.05-.02.02.02.02.08.01.13.02-.03.03-.04.04-.04Z"/>
    <path class="cls-1" d="M9.26,8.21s0-.01.02-.02c-.02,0-.07,0-.12.01-.7.07-1.34.03-1.51.01-.05,0-.12-.01-.23-.01-.06,0-.09,0-.17,0-.07,0-.13,0-.16,0,0,0,.02,0,.02.01,0,0,0,0,0,.01-.01,0-.02,0-.04,0,0,0-.02,0-.02,0,0,0,0,0,0,0,0,0,.02,0,.03,0,.02,0,.03,0,.06,0,.01,0,.03,0,.05,0,.02.02,0,.04-.03.07-.05.03-.09.06-.14.09-.02,0-.04,0-.06,0-.21.01-.43.03-.64.04-.12,0-.23,0-.34,0-.04,0-.05-.01-.01-.06-.16.06-.21,0-.29-.02-.03.05-.07.05-.1.05-.23,0-.47-.01-.7-.02-.58-.03-1.15-.07-1.72-.11-.16,0-.31-.03-.45-.05-.07-.01-.13-.04-.19-.07-.04-.02-.09,0-.15.03-.02.01-.04.02-.06.04-.02-.04-.07,0-.11.01-.05.02-.1.06-.15.05.05-.03.09-.06.14-.1-.09-.04-.21-.03-.33-.02-.09.01-.18,0-.29.06-.02.06.03.07.06.09.13.05.27.09.4.14,0,0-.01.01-.03.02-.08.01-.16.03-.24.04-.04,0-.06,0-.07-.02-.02-.07-.09-.07-.19-.04-.07.02-.14.04-.22.05-.11.03-.21.05-.32.08-.05.01-.1.04-.13.09-.11,0-.2-.02-.3-.03-.15,0-.31-.01-.48-.02,0,0-.01,0-.02,0h0s0,0-.01,0c0,0,0,0,0,0,0,0,.01,0,.02.01.12.05.23.1.35.14.35.11.74.18,1.12.25,0,0-.01.01-.03.02-.04,0-.08,0-.13,0-.09,0-.18.01-.26,0-.17-.02-.33-.05-.49-.09-.06-.01-.11-.02-.17-.04-.01,0-.03,0-.05,0,0,0-.01,0-.02,0-.01,0-.03,0-.04,0,0,0,0,0-.02,0,0,0,0,0-.02,0,0,0-.01,0-.03,0,0,0-.01,0-.02,0,0,0-.01,0-.02,0,0,0-.01,0-.02,0,0,0,.01,0,.02,0,0,0,.01,0,.02,0,0,0,.01,0,.02,0,0,0,.01,0,.02,0,0,0,0,0,.02,0,0,0,.01,0,.02,0,.01,0,.03,0,.04,0,0,0,.01,0,.02,0,.01,0,.02,0,.04.01,0,.01,0,.02,0,.03-.03,0-.07,0-.12.02.02.02.02.02.03.03.09.04.19.08.28.12.15.06.31.11.46.18,0,0,0,0-.02.01-.14-.03-.29-.07-.43-.1,0,0-.02.02-.02.02.03.01.05.03.08.04.32.11.67.19,1.05.24.16.02.32.05.52,0,.01,0,.02,0,.03,0,.03,0,.05.02.08,0,.1-.02.18-.02.25,0-.04.01-.07.03-.13.05-.03,0-.06,0-.09,0-.08,0-.16,0-.24,0-.12,0-.17.01-.23.06.06.02.12.03.18.05,0,0,.01,0,.01-.01,0-.02-.01-.04-.02-.06.03,0,.04-.01.06-.01.08,0,.16,0,.24,0,.03,0,.07,0,.12,0,.06,0,.11-.05.17-.07.03.02.07.03.1.05-.03.01-.04.02-.05.02,0,0,0,0-.01,0,0,0,.01,0,.02,0,.32.02.64.04.96.06.32.02.64.04.98.02.18,0,.37-.05.58-.19.11-.07.22-.13.33-.19,0,0,0,.01-.02.03-.21.13-.42.26-.63.39.04.02.07,0,.12-.02.05-.03.1-.07.16-.06-.05.03-.08.06-.12.09.81-.06,1.61-.12,2.41-.19.21-.15.42-.3.61-.43,0,0,0,0-.01.02-.09.09-.22.17-.28.27-.03.02-.06.04-.11.07.04,0,.06,0,.08,0,.29-.03.58-.04.89-.08.41-.05.83-.12,1.24-.19.12-.02.24-.04.36-.06.1-.01.2-.03.3-.04.13-.02.26-.04.4-.06,0,0,.01,0,.03,0,0,0,.02,0,.03-.01,0,0-.02,0-.03,0,0,0-.01,0-.02,0,0,0,0,0,.01-.02.05-.01.11-.04.12,0-.01,0-.03.01-.06.03.04,0,.06,0,.08,0,0-.01,0-.02,0-.04.18-.03.35-.07.53-.1.03-.01.07-.02.1-.02.04,0,.07,0,.11-.01,0,0,0,0,0-.01-.02,0-.04,0-.04-.02.16-.03.31-.07.47-.1.03,0,.07-.02.1-.03,0-.01-.02-.01-.03-.01-.32.05-.63.1-.95.14-.14.02-.29.04-.43.05,0,0,.02-.01.04-.03.03,0,.05-.01.08-.02.2-.03.39-.06.58-.1.42-.07.83-.13,1.25-.2.08-.01.15-.01.25-.06-.06,0-.13-.01-.2,0-.24.02-.44-.02-.71.06-.12.03-.24.05-.35.07-.3.05-.61.11-.91.16-.35.05-.7.1-1.06.15-.08.01-.17.02-.25.03,0,0,0-.01,0-.02.07-.02.14-.04.21-.05.34-.05.68-.1,1.02-.15.35-.05.7-.09,1.07-.18.1-.02.2-.05.3-.1-.02-.07-.09-.08-.17-.08-.19,0-.39.02-.59.03-.07,0-.14.01-.2,0-.04,0-.09-.03-.16.04,0,0-.02,0-.03,0-.19.03-.37.06-.54.04,0,0,0,0,.02-.02.37-.06.73-.1,1.12-.19-.2,0-.43.02-.66.05.06-.04.1-.07.16-.12-.09.01-.17.02-.25.03-.13.01-.26.02-.38.03-.02,0-.06,0-.03-.03,0,0,0,0,.02-.01.02,0,.05-.01.08-.02,0,0,.02,0,.03,0,0,0,.02-.01.03-.02-.01,0-.02,0-.03,0,0,0-.02,0-.03,0-.38.01-.76.03-1.15.08-.11.01-.22.01-.32,0-.02,0-.05,0-.05-.03,0-.03.04-.07.09-.1-.04,0-.06,0-.06,0Z"/>
    <path class="cls-1" d="M13.65,17.36s-.02.02-.06.04c.1-.03.25-.12.46-.22,1.28-.64,2.33-1.55,3.03-2.39.7-.84,1.09-1.58,1.24-1.89.09-.17.24-.45.38-.87.08-.22.13-.35.2-.66.07-.28.14-.5.16-.66,0,.04-.02.07-.02.07,0,0,0,0-.01,0,0-.04,0-.08.01-.15,0-.03,0-.06,0-.1,0,0,0,0,0,0,0,.04,0,.08-.02.13-.01.07-.02.14-.05.23-.01.05-.02.09-.06.2-.04.08-.05,0-.03-.15.02-.18.01-.38.01-.56.02-.09.03-.16.04-.25.09-.85.08-1.73-.08-2.56-.06-.47-.18-.89-.3-1.33-.05-.14-.06-.2.04-.06-.27-.57-.3-.79-.42-1.1-.09-.08-.16-.22-.23-.35-.45-.82-1.03-1.58-1.69-2.22C14.6.91,12.29-.02,9.96,0c-.63,0-1.25.06-1.83.18-.29.06-.52.07-.75.13-.16.04-.35.1-.56.23-.07.04-.14.09-.23.14-.08,0-.25.1-.42.2-.16.11-.32.23-.5.32.15-.12.28-.23.45-.36-.33.13-.78.38-1.17.68-.31.21-.59.45-.9.8,0,.1.12-.02.25-.11.44-.31.91-.59,1.38-.81-.03.02-.05.04-.1.08-.25.19-.52.36-.75.57-.1.09-.19.16-.22.16-.09-.01-.33.18-.6.49-.2.21-.37.44-.54.66-.25.33-.48.68-.67,1.05-.1.19-.18.36-.17.46-.19.37-.38.69-.51,1.06-.24.56-.38,1.16-.49,1.79,0,.03,0,.06-.01.09h0s0,.04,0,.04c0-.02,0-.04.01-.03,0-.02.01-.03.03-.08.11-.45.26-.86.44-1.29.51-1.23,1.33-2.49,2.44-3.41-.01.02-.03.04-.08.1-.11.11-.23.21-.33.33-.21.24-.43.51-.6.74-.39.48-.69.99-.99,1.55-.08.18-.16.36-.26.58-.02.04-.04.09-.06.16,0,.01,0,.02-.03.07-.01.04-.03.08-.05.16,0,.02-.01.03-.03.07,0,.02-.01.04-.03.08,0,.03-.01.05-.03.09,0,.02-.01.04-.03.08,0,.02,0,.03-.02.09,0,.02,0,.04,0,.06,0-.02,0-.04.02-.07,0-.02.01-.05.03-.08,0-.02.01-.04.03-.07,0-.02,0-.03.03-.08,0-.02.01-.04.03-.08,0-.02.01-.03.03-.08.01-.04.03-.08.05-.15,0-.02.01-.03.03-.08.01-.05.03-.09.06-.15.01,0,.03,0,.02.04-.04.12-.06.24-.1.42.03-.06.05-.08.06-.11.12-.33.3-.62.46-.94.29-.48.6-.95.98-1.35,0,0,0,.02-.02.05-.33.4-.6.83-.85,1.29l-.02.09c.06-.08.12-.17.17-.25.59-.99,1.42-1.95,2.49-2.71.46-.32.92-.59,1.56-.91.03-.02.06-.02.09-.04.08-.03.16-.05.25-.1.32-.12.58-.23.82-.26-.12.04-.24.09-.41.17-.1.04-.19.07-.3.11-.25.1-.5.21-.77.33-.35.2-.51.28-.67.45.18-.11.37-.18.55-.27l.04-.04s-.06,0-.09-.01c.07-.05.12-.08.19-.12.24-.11.49-.23.76-.33.11-.04.23-.07.38-.12.18-.07.34-.15.56-.22.12,0,.23-.03.36-.02-.11.03-.14.04-.18.05l-.05.02s.04-.01.06,0c1.08-.2,2.19-.15,3.24.12,1.05.27,2.03.75,2.95,1.46.48.39.97.79,1.5,1.3.29.25.53.56.78.87,0,0-.01,0-.05-.04-.48-.58-1-1.09-1.6-1.51.07.11.15.18.28.28.13.09.27.2.4.38-.12-.11-.21-.19-.32-.27,1.84,2.02,2.43,5.11,1.43,7.69-.15.73-.36,1.45-.71,2.1,0,0,0,0,0-.05.14-.31.33-.75.34-.98.04-.11.09-.21.13-.37-.05.11-.09.17-.13.24-.48.91-1.14,1.7-1.96,2.39-1.1.94-2.51,1.57-3.99,1.79-.43.04-.88.09-1.32.07-.36,0-.71-.04-1.1-.11-.48-.08-.95-.19-1.43-.37-.02,0-.04-.02-.09-.04-.03-.01-.06-.02-.1-.03.02.01.05.02.1.05.02,0,.03.01.07.03,0,0,0,0-.05,0-.18-.06-.38-.12-.42-.17.05.01.09.03.22.06-.13-.05-.2-.07-.28-.12,0,.02.01.03-.04.03-.6-.26-1.16-.6-1.72-1.01-.1-.07-.19-.15-.3-.24l-.3-.27h-.03s.09.09.08.1c-.44-.4-.85-.83-1.2-1.32-.07-.09-.15-.21-.23-.31,0,.03.03.07.05.11.68,1.01,1.55,1.88,2.58,2.5.47.29.95.54,1.44.72-.04,0-.07-.02-.14-.03-.09-.04-.19-.07-.28-.11-.68-.29-1.31-.7-1.89-1.16-1.24-1.01-2.21-2.38-2.73-3.94-.11-.29-.15-.58-.28-.93.05.25.09.5.16.77.27.9.55,1.65,1.2,2.51.29.37.57.72.9,1.04.83.84,1.83,1.49,2.89,1.91,1.26.51,2.6.71,3.92.57.31-.01.61-.07.92-.13l-.02.02c-.26.05-.52.13-.77.14-1.28.14-2.61,0-3.82-.47-1.27-.47-2.4-1.24-3.41-2.29-.25-.28-.52-.57-.77-.9-.02.08.12.36.33.61.46.62,1.02,1.17,1.65,1.64.21.17.44.32.65.46.14.09.28.23.57.3.02,0,.07.03.11.05.66.33,1.37.56,2,.73,0,0,0,0-.06,0-1.42-.32-2.76-.97-3.94-1.98.59.57,1.34,1.1,2.2,1.48-.22-.07-.39-.13-.64-.21.35.17.62.33.9.43.48.21.97.37,1.47.48.09.02.22.04.12.06-.01,0-.02,0-.09,0-.1-.02-.19-.03-.32-.07-.03,0-.06-.01-.11-.03l-.11-.02s.09.02.11.03c.03,0,.04.01.12.04,1.48.39,3.08.45,4.63,0,.44-.11.84-.26,1.21-.39.07-.02.19-.07.21-.06.03.02-.14.14-.3.22.14-.06.22-.09.23-.09Z"/>
  </g>
</svg>