<?xml version="1.0" encoding="UTF-8"?>
<svg id="Layer_2" data-name="Layer 2" xmlns="http://www.w3.org/2000/svg" viewBox="0 0 12.94 6.93">
  <defs>
    <style>
      .cls-1 {
        fill: #151515;
      }
    </style>
  </defs>
  <g id="Layer_1-2" data-name="Layer 1">
    <path class="cls-1" d="M.23.25c.16.15.33.31.51.48.07.06.17.16.24.23.05.05.1.12.22.18.02.02.03.03.04.03.11.1-.14-.17-.44-.47C.53.44.22.12.29.2c0,0,0,0-.02,0C-.07-.09.88.9.52.61c.06.06.12.12.19.19.15.14.35.32.56.52-.09-.05-.16-.09-.25-.15.12.11.23.21.32.29.08.07-.27-.28-.64-.65C.42.54.13.24.19.3c.02.02.05.04.01.04,0,0,0,0-.02-.01l-.08-.06s-.02-.01-.03-.02c.02.02.29.29.59.6.47.48.93.94.96.97-.02-.02-.49-.49-.96-.97C.36.54.09.27.07.25c0,0,0,0,.02.03.18.18.37.35.58.55.18.17.39.36.62.58.14.13.28.26.39.39.1.11.06.11-.1.01-.13-.08-.26-.18-.36-.27-.18-.17-.33-.32-.49-.47-.1-.1-.18-.18-.31-.3-.06-.06-.16-.12-.16-.17h0c-.11-.08-.17-.16-.26-.23.03.03.27.28.57.57.44.43.82.81.9.89-.03-.04-.07-.09-.14-.14-.08-.06-.13-.11-.19-.16-.09-.09-.19-.17-.27-.25l-.18-.16h-.02c.07.06.14.13.21.2.15.15-.07-.08-.33-.34-.22-.22-.47-.49-.35-.36l.36.35.74.73c.49.49.99.97,1.49,1.46.37.36.74.71,1.16,1.12.36.34.69.67,1.01,1l.8.82.69.7.09.1.05.05s.03-.03.05-.04l.19-.19.38-.38c.55-.54,1.12-1.08,1.67-1.62.49-.48.99-.96,1.51-1.51.1-.11.2-.2.32-.35-.05,0-.15.1-.23.17-.2.18-.4.36-.63.57-.1.09-.24.22-.34.32-.46.44-.94.9-1.4,1.35-.22.22-.42.42-.65.64l-.1.1c-.17.16-.51.53-.77.75-.15-.15-.29-.3-.48-.47.15.14.32.39.52.47.24-.24.48-.47.74-.73.03-.03.06-.06.09-.09.45-.43.89-.86,1.34-1.29.34-.32.69-.66,1.05-1.01.14-.13.27-.26.42-.39.02-.02.04-.02.04-.01-.26.26-.52.51-.78.78-.49.48-1,.97-1.49,1.44l-.63.62-.49.48-.27.27s-.05.06-.07.05l-.07-.07-.14-.14-.83-.84c-.4-.41-.8-.82-1.21-1.23-.02-.02-.02-.03-.01-.03.01.01.03.02.05.04.01,0,.02.02.04.03h0s-.03-.03-.04-.04c-.02-.02-.03-.03-.07-.08-.01-.01-.01-.01-.06-.06-.02-.03.01-.02.07.01.07.05.14.09.21.13.03.03.05.05.08.08.27.26.56.54.81.78.15.15.28.29.42.43.04.05.06.07-.01.04.1.08.18.15.27.25.05.06.14.17.21.25.06.02.13.09.2.16.03.02.07.1.1.07l.1-.1.21-.2.38-.37c.11-.1.21-.21.32-.31.72-.69,1.44-1.38,2.17-2.08.17-.16.35-.33.58-.54.1-.09.18-.14.26-.2.06-.04.11-.1.17-.2.02-.03.04-.06.06-.1.04,0,.08-.08.13-.15.05-.07.09-.14.16-.2-.04.07-.08.14-.13.22.13-.09.27-.25.41-.4.11-.12.22-.23.34-.39,0-.05-.06,0-.12.04-.18.14-.35.27-.55.43,0-.01.02-.03.03-.05l.28-.31s.08-.08.09-.08c.05,0,.14-.09.26-.22.06-.08.11-.15.17-.22.08-.1.15-.2.23-.3.04-.05.07-.1.07-.14.09-.09.19-.17.27-.24.14-.13.27-.25.41-.39,0,0,.01-.01.02-.02h0s0-.01,0-.01c0,0,0,0,0,0,0,0,0,0-.02.01-.12.08-.25.17-.36.24-.33.23-.67.52-1.01.79l-.08.07s.01-.02.03-.05l.12-.12c.07-.07.15-.16.22-.22.13-.11.29-.24.46-.38.05-.04.1-.08.16-.13.01,0,.02-.02.04-.04,0,0,0,0,.02-.02,0,0,.02-.02.04-.04,0,0,0,0,.02-.02,0,0,.01,0,.02-.02,0,0,.01-.01.02-.02,0,0,0,0,.02-.02,0,0,0,0,.02-.02v-.02s0,0,0,.01c0,0-.01.01-.02.02,0,0,0,0-.02.02,0,0,0,0-.02.02,0,0-.01,0-.02.02,0,0,0,0-.02.02,0,0-.02.01-.04.03,0,0,0,0-.02.02-.01.01-.02.02-.04.03,0,0-.01,0,0-.02.03-.03.05-.06.09-.11-.02,0-.03,0-.04.02-.1.06-.2.13-.29.19-.15.1-.29.19-.47.31,0,0,0,0,0-.02l.41-.32v-.03s-.05.04-.08.05c-.23.16-.48.35-.73.56-.13.12-.26.23-.38.34-.21.19-.41.37-.65.64-.01.01-.02.02-.04.03-.03.03-.07.05-.1.09-.11.13-.21.23-.31.31.04-.05.08-.1.14-.18.05-.05.07-.08.11-.12.1-.1.19-.19.3-.3.14-.15.2-.21.26-.31l-.24.2v.02s.04,0,.04,0c-.03.04-.05.06-.07.09-.1.1-.19.18-.3.3-.04.04-.08.08-.15.14-.07.07-.11.16-.18.25-.05.03-.1.07-.15.11.03-.04.04-.06.06-.07v-.02s0,.02-.01.02c-.4.39-.81.78-1.21,1.16-.4.39-.8.77-1.22,1.2-.11.12-.22.24-.33.37-.04.05-.09.12-.16.21-.02.03-.05.07-.07.11v.04s-.02.08-.04.13c-.02.06-.05.11-.08.08,0,0,0,0,.01-.01.04.03.07-.12.09-.15,0-.03.01-.05.01-.07,0-.01,0-.02,0-.03l.05-.09.17-.27c-.05.04-.09.08-.13.15-.02.04-.05.08-.07.11-.03.04-.06.08-.06.07-.03,0,.04-.09.07-.14l-.03.03c-.08.09-.07.08-.07.08h0s0,.02-.02.02c-.01,0,0,.01-.03-.02l-.19-.18-.38-.36-1.52-1.43c-.34-.2-.66-.39-.95-.57,0,0,0,0,.02,0,.15.07.35.2.46.23.05.03.1.06.17.11-.04-.04-.06-.06-.1-.1-.37-.35-.69-.64-1.13-1.06-.49-.44-1.07-.96-1.62-1.45l-.21-.19-.18-.16c-.1-.08-.19-.17-.27-.24-.06-.05.17.19.41.44.4.41.83.84.73.76,0,0-.01-.01-.03-.03l-.04-.03s.01.02.03.04c0,0,0,0,.02.03,0,0,0,0-.02-.01-.07-.06-.15-.12-.15-.15.02.01.04.03.09.06-.05-.05-.07-.07-.11-.1,0,.01,0,.02-.03.01-.22-.19-.45-.39-.66-.58-.03-.02-.06-.05-.1-.08l-.09-.09h-.01s.03.03.02.04"/>
  </g>
</svg>