<?xml version="1.0" encoding="UTF-8"?>
<svg id="Layer_2" data-name="Layer 2" xmlns="http://www.w3.org/2000/svg" viewBox="0 0 11.59 20.84">
  <defs>
    <style>
      .cls-1 {
        fill: #151515;
      }
    </style>
  </defs>
  <g id="Layer_1-2" data-name="Layer 1">
    <path class="cls-1" d="M.11,10.5c0,.21-.02.44-.06.35-.04-.61-.04-1.1-.04-1.6,0-.6,0-1.21,0-1.71.4,0,.73.01,1.02.02l-.95.05.02.36c0-.12,0-.23,0-.34.34-.01.66-.02.97-.03.25-.02.51-.03.62,0,.13-.01.24-.02.35-.03.33-.03.59-.03.81-.02.34.02.26.03.37.04,0,0,0-.03,0-.05v-.07s.01-.27.01-.27c0-.2,0-.41,0-.61,0-.41,0-.83.01-1.26,0,0-.05.22-.04-.03.01-.07-.02-.65.16-1.5.16-.84.65-2,1.68-2.78C6.04.21,7.41-.05,8.52,0c1.24.11,2.32.2,3.02.26,0,.52,0,.88,0,1.06,0,.11,0,.1.01-.06,0-.29,0,0,0,.51,0,.59,0,1.41,0,2.03,0,.15,0,.29,0,.35-.72,0-1.38,0-1.94,0-.19,0-.23-.02-.31-.02-.08,0-.15,0-.21.02-.14.02-.25.06-.35.1-.48.25-.49.43-.49.41.01,0,.11-.1.11-.1-.16.17-.27.38-.32.6-.03.11-.04.22-.03.34v.24s.02.23.02.23c0,.49,0,.98,0,1.51.6,0,1.25,0,1.92-.01.72,0,1.34,0,1.64,0-.24,1.57-.39,2.49-.62,3.97,0,0-.01.09-.1.67-.13,0-.68,0-1.25,0-.37,0-.77.01-.95.02-.13,0-.31,0-.51,0h-.08s0,0,0,0h0s-.02-.01-.02-.01c0,0,0,.01,0,.02,0,.07,0,.14,0,.2.01.55.02.72.03,1.18,0,.46-.05,1.35-.05,1.84,0,.5-.09,1.59-.08,2.17,0,.66,0,2.6,0,3.17,0,.03,0,.06,0,.11-.24,0-.57,0-.93,0-.21,0-.43-.01-.62-.02-.37-.02-.61-.03-.4-.04.44,0,.15.02.83,0,.34,0,.69,0,1.04-.01,0-.6,0-1.22,0-1.75,0-.64,0-1.64-.01-2.29,0-.66-.03.13-.03.13v3.86s-1.5,0-1.5,0l-2.69-.08c.14,0,.13-.01.13-.01-.06,0-.13,0-.13,0,0,0,1.29,0,2.96,0h1.14s0-1.76,0-1.76c0-.3,0-.37,0-.52,0-.72.05-1.38.02-1.64,0-.02,0-.09-.01-.08,0,0,0,.03-.01.2,0,.1,0,.15,0,.22,0,.23-.02.55-.03.64-.02.45-.02,1.36-.02,1.56v1.33s-2.96,0-2.96,0c-.72-.01-.87-.03-.87-.03,0,0,.2-.01.53-.02.32-.02.77-.04,1.25-.06.44-.03.78-.06.99-.09,0-.01-.16-.01-.33-.02h.07s.9-.02.9-.02c.07,0,.14,0,.2,0,0-.21,0-.41-.01-.6v-.88c-.03-.78-.05-1.58-.07-2.38-.01-.06-.02-.05-.03-.03,0-.14,0-.25,0-.46.01.2.02.27.02.34.02-.09,0-.4,0-.67,0-.09-.01-.08-.01-.08,0,.05,0,.08,0,.11,0,.09,0,.13,0,.16v-.15c0-.08,0-.1,0-.14,0-.4-.01,1.51-.02,3.29,0,.46,0,.91,0,1.33-.86,0-1.62,0-2.11,0-.55,0-.8,0-.58,0,.74,0,1.62-.02,2.53-.03h.12s-.02-1.12-.02-1.12l-.02-1.06-.12-6.79h.76c.27,0,.52-.01.77-.01.21,0,.42,0,.62.01.2,0,.4.01.6.02.13,0,.13,0,.16.01h.09s.04-.11.04-.11c.03-.15.05-.3.08-.45.05-.31.1-.64.16-.99.02-.15.03-.23.06-.42-.02.26-.03.43-.05.6.02.31-.11.58-.12,1.08,0,.07,0,.06,0,.06.03-.52.09-.95.14-1.4.03-.22.05-.45.08-.7l.02-.19v-.1s0-.03,0-.03c0-.04,0-.08-.02-.1v-.03s-3.42.03-3.42.03l-.02-2.24v-.45c0-.1-.03-.3,0-.49.03-.38.16-.74.37-1.06.41-.64,1.16-1.04,1.93-1.03.23,0,.26.02.44.01h.45s.35,0,.35,0h.02s0,.03,0-.09v-.61s-.02-1.22-.02-1.22c.02.21.04.4.06.66,0-.18,0-.33-.01-.48,0-.07-.01-.14-.02-.21v-.09s-.02,0-.02,0c-.01,0-.02,0-.02,0,0,0,0,0,0,0l.02-.02c.03-.18.04.53.05.9,0,.21.01.43.02.65,0,.2.02.56.04.54.01.03.02.03.02.03,0-.07-.01-.04,0-.15,0-.11.01-.2.02-.3.01-.19.03-.38,0-.67-.04-.49-.07-1.19-.09-1.06h-.08s-.07,0-.14,0h-.2c-.27-.03-.53-.05-.8-.07-.45-.02-.91-.11-1.32-.08-.41,0-.82.08-1.2.17-.77.21-1.43.62-1.91,1.21-.45.59-.75,1.28-.87,2.04-.13.74-.11,1.58-.13,2.46,0,.03,0,.06,0,.09v-.08c0-.08-.01-.15-.02-.3-.01.21-.03.39-.04.57.01.27.05.79.05,1.27h-.08c-.45,0-.69,0-.97,0-.52,0-.9,0-1.32,0-.12,0-.21,0-.35,0l.11.04h-.08c-.37,0-.33,0-.44-.02v.04s-.02-.06-.02-.06c.04-.01.09-.02.15-.02.16,0,.36,0,.61,0,.51,0,.9,0,1.32,0,.27,0,.49,0,.72,0h.32s-.02-.81-.02-.81c0,.24,0,.49-.01.77-.34,0-.72,0-1.15.01-.16,0-.29,0-.42,0-.06,0-.1,0-.16,0-.63.02-1.32.02-1.42.01,0,.28-.01.55-.02.82,0,.47-.02.97-.03,1.52v.71s1.14.02,1.14.02c.68.01,1.35.02,1.95.04-.02,1.03-.04,1.98-.06,2.9,0,.2-.02.48-.03.73l-.02-.21.06-3.36h-.75c-.11,0-.13,0-.15,0,.29,0,.58.02.87.03-.03,1.14-.07,2.31-.1,3.44-.03.77-.06,1.66-.08,2.52,0,.09,0,.14-.02.29,0-.44,0-.72-.01-1.03,0-.09-.01-.08-.02-.07,0,.17,0,.28,0,.4,0,.12,0,.13,0,.2,0,.23,0,.3,0,.38,0,.13,0,.15,0,.2,0,.1,0,.12,0,.19,0,.1,0,.14,0,.19,0,.08,0,.13,0,.19,0,.09,0,.15,0,.2,0,.07,0,.12,0,.16v-.15c0-.1,0-.16,0-.21,0-.1,0-.13,0-.19,0-.1,0-.16,0-.23,0-.09,0-.12,0-.2,0-.1,0-.14,0-.19,0-.24,0-.31,0-.4,0-.09,0-.14,0-.19,0-.2,0-.31,0-.4.01-.61.02-1.06.03-1.52.02-1.16.03-2.28.05-3.44-.27,0-.54,0-.82-.01-.7,0-1.55,0-2.33,0H.41s0-1.09,0-1.09c0-.11-.01-.15-.02-.19,0,.4-.01.82-.02,1.31.95.02,2.03.03,3.11.05-.04,1.81-.07,3.66-.11,5.27-.03.93-.06,2.08-.1,3.14,0,.12,0,.16,0,.2,0-.02,0,.02,0,.06v-.1s0,.02,0,.02c0-.09,0-.15,0-.22,0-1.54,0-2.81.01-4.24,0-.76.01-1.74.02-2.69-.04-.17-.05-.69-.06-1.05v-.13s-.2.01-.2.01h-.59s-1.17.03-1.17.03c-.12,0-.19,0-.29-.02-.13-.01-.23-.03-.32-.05-.17-.04-.28-.08-.48-.11.02-.15.03-.32.02-.54,0-.1,0-.2,0-.29,0-.06,0-.12-.01-.17,0-.11-.02-.19-.02-.27-.02-.14-.03-.22-.03-.22.02.48-.02-.22-.02-.22v.33Z"/>
    <path class="cls-1" d="M7.87,13.62c0-.08.02-.17.05-.13.03.23.03.42.04.6,0,.24.02.5,0,.68l-.06-.29c0,.1.01.21.03.3.01.1.03.19,0,.23,0,.05.02.09.02.13.02.12.03.22.02.3-.02.12-.04.23-.04.38,0,.3-.02.61-.03.93,0,0,.04-.08.04.01,0,.11-.01,2.74-.02,3.98-.39,0-.69,0-.86,0-.1,0-.12,0-.04.01.22.02-.45,0-.85,0-.44.02-.82,0-1.04,0-.53,0-.25.03-.25.03l-.71.03c-.3,0-.61,0-.94,0,0-.51,0-1.05-.01-1.61,0-.71,0-1.02,0-1.63,0,0,0-.63-.02-.79s.03-.5.01-.71c-.02-.21-.02-.27-.02-.44,0-.17.05-.51.05-.69s.08-.6.07-.82c0-.22,0-.86,0-1.05,0-.19.05-.76.05-.6,0,.16-.02.05,0,.31.01.26.02.55.02.79,0,.24,0,.62.01.86,0,.25.03-.05.03-.05v-1.8s.07-1.01.07-1.01c0,.05,0,.05,0,.05,0-.02,0-.05,0-.05,0,0,0,.48,0,1.11,0,.46,0,.68,0,.94,0,.11,0,.14,0,.2,0,.27-.04.52-.02.62,0,0,0,.03.01.03,0,0,0-.01,0-.08,0-.04,0-.06,0-.08,0-.09.02-.21.02-.24.02-.17.02-.51.01-.59,0-.3,0-.82,0-1.5,0-.27.02-.33.03-.33.02,0,.02.31.07.67.03.17.05.29.07.37,0,0,.01-.06.01-.12v.02s.01.35.01.35c0,.12,0,.23.01.34v.33c.03.29.04.59.06.89.01.02.02.02.03.01,0,.05,0,.09,0,.17-.01-.07-.01-.1-.02-.13-.02.03,0,.15,0,.25,0,.03,0,.03,0,.03,0-.02,0-.03,0-.04,0-.03,0-.05,0-.06v.06s0,.04,0,.05c0,.15.01-.57.02-1.24,0-.98.01-1.89.02-1.68,0,.29.01.65.02,1.01l.02.61.02.4c.04.86.08,1.78.11,2.55.02.62-.09,1.05-.07,1.66,0,.06,0,.09,0,.16-.02-.1-.03-.16-.04-.23-.06-.12.02-.22-.04-.41,0-.02-.01-.02-.01-.02.08.39.05.65.14,1.1l.02.8v.34s.02.07.02.07h.07s.37-.02.37-.02l.84-.02,1.67-.04c-.08.02-.15.03-.25.05.13,0,.24-.02.33-.04,0-.02,0-.03,0-.01-.01.02.05.03-.06.04-.09,0-.18.01-.27.02-.17,0-.35.02-.56.06-.03,0-.03.02-.03.02.22-.03.29.05.51,0,.15-.02.28-.05.41-.07.02-.02.03-.03.03-.03v-.03c0-.3,0-.59-.01-.87,0-.33,0-.66.01-.99.01-.64.1-1.23.11-1.89,0,0,0-.02,0-.04v.03s0,.06.01.11c.01-.08.02-.15.03-.21-.01-.14-.04-.24-.04-.36,0-.11,0-.17,0-.24,0-.2,0-.34,0-.5,0-.04,0-.08,0-.13l-.03.04v-.03s.02-.37.02-.37c.03.13.03.24.03.48,0,.19,0,.34,0,.5,0,.07,0,.13,0,.19.01.12.02.19.03.27.01-.14.02-.31,0-.51,0-.06,0-.11,0-.16,0-.02,0-.04,0-.06-.02-.42,0-.74,0-1.07,0-.18.02-.37.02-.57,0-.27.02-.57.03-.88.02-.42.04-.84.05-1.22.27.01.51.02.75.03.07,0,.18.02.27.02h-.08s-.9-.02-.9-.02l-.03.74s0,.05,0,.05c.02-.25.03-.51.05-.77.3.02.61.04.91.06.29.02.62.05.95.07.03,0,.05,0,.11.02-.17,0-.27,0-.39,0-.04,0-.03.01-.03.02.07,0,.11,0,.15,0,.05,0,.05,0,.08,0,.09,0,.11,0,.14,0,.05,0,.06,0,.08,0,.04,0,.04,0,.07,0,.04,0,.05,0,.07,0,.03,0,.05,0,.07,0,.03,0,.06,0,.08,0,.03,0,.04,0,.06,0h-.06s-.06,0-.08,0c-.04,0-.05,0-.07,0-.04,0-.06,0-.08,0-.03,0-.05,0-.08,0-.04,0-.05,0-.07,0-.09,0-.12,0-.15,0-.03,0-.05,0-.07,0-.07,0-.11,0-.15,0-.23,0-.4-.02-.57-.02-.28-.01-.56-.02-.84-.03,0,.22-.01.45-.02.68,0,.26,0,.57,0,.86v.39s0,.06.01.07c.02-.59.05-1.27.08-1.93.52.03,1.03.05,1.49.08.35.02.78.05,1.18.08.05,0,.06,0,.07,0,0,0,0,0,.02,0h-.04s0,0,0,0c-.03,0-.06,0-.08,0-.58,0-1.06,0-1.59-.01-.24,0-.54-.01-.84-.02,0,.02-.02.03-.04.04,0,.03.01.05.02.09,0,.04,0,.03.01.1v.26s.03.53.03.53c.01.23-.18.19-.16.44.02.21.06.32.06.32-.02-.18.02.08.02.08v-.12Z"/>
  </g>
</svg>