<?xml version="1.0" encoding="UTF-8"?>
<svg id="Layer_2" data-name="Layer 2" xmlns="http://www.w3.org/2000/svg" viewBox="0 0 11.3 20.84">
  <defs>
    <style>
      .cls-1 {
        fill: #151515;
      }
    </style>
  </defs>
  <g id="Layer_1-2" data-name="Layer 1">
    <path class="cls-1" d="M3.82,7.25s0,.03.01.09c0-.12,0-.34,0-.61,0-.86-.05-1.7.05-2.41.09-.72.34-1.36.67-1.83.67-.97,1.57-1.27,1.91-1.37.2-.06.53-.15,1.01-.19.26-.02.4-.05.76-.02.33.03.6.06.78.07-.04,0-.08,0-.09-.02,0,0,0,0,0,0,.06,0,.11,0,.17,0,.04,0,.07,0,.12,0,0,0,0,0-.01,0-.05,0-.08,0-.15-.01-.08,0-.15-.02-.28-.03-.06,0-.11-.01-.24-.02-.1-.02-.02-.03.16-.03.23,0,.45,0,.66,0,.11.01.2.02.3.03l.82.06c0,.57.01,1.14.02,1.69,0,.25,0,.48,0,.72h-.29c-.18,0-.26-.01-.05-.04-.38.02-.64.02-.86.01-.14-.02-.43-.05-.64-.01-.16.06-.37.12-.58.22-.62.29-1.08.91-1.19,1.59-.03.17-.04.34-.02.52v.4s0,.85,0,.85c0,.49,0,.99,0,1.47,1.12,0,2.25.02,3.36.03-.15.92-.3,1.84-.45,2.75h-.04c-.71-.01-1.41-.02-2.12-.03-.27,0-.55-.01-.85-.02,0,.29-.02.61-.03.91-.01.3,0,.45.02.77,0,.1.01.19.02.31-.02.09,0,.32,0,.55.01.22.03.47.03.71-.02-.23-.04-.43-.06-.68-.03.42-.02,1.03,0,1.61,0,.45,0,.89.04,1.44.04.09.05-.12.05-.31.03-.64.06-1.27.09-1.95,0,.04,0,.08.01.16,0,.39.02.77.02,1.16,0,.17,0,.31-.01.34-.04.08-.04.45-.02.95.01.37.02.71.03,1.06.02.52.03,1.03.05,1.55,0,.16,0,.23.02.28,0,.06.02.12.04.17,0,.02,0,.04,0,.05-.43,0-.82-.01-1.22-.02-.76,0-1.53,0-2.33-.01-.04,0-.07,0-.12,0h.01s-.06,0-.06,0c.03,0,.05,0,.03,0,.02,0,.04,0,.11,0,.58.03,1.17.06,1.73.08.68.02,1.33.05,1.99.07.03-1.15.06-2.29.09-3.44,0,.04,0,.09.01.17v.62c0,.42,0,.86,0,1.26,0,.48-.02.97-.03,1.47-.33,0-.67-.02-1.01-.03-.26,0-.52-.02-.84-.02-.06,0-.12,0-.22,0-.02,0-.04,0-.1,0-.06,0-.12,0-.22,0-.02,0-.05,0-.1,0-.03,0-.05,0-.11,0-.04,0-.06,0-.12,0-.03,0-.05,0-.1,0-.03,0-.05,0-.12,0-.03,0-.05,0-.08,0,.02,0,.03,0,.09,0,.03,0,.04,0,.11,0,.02,0,.04,0,.1,0,.02,0,.04,0,.11,0,.03,0,.05,0,.11,0,.03,0,.05,0,.11,0,.06,0,.11,0,.21,0,.03,0,.05,0,.11,0,.05,0,.09,0,.22,0,0,0,.01.01-.04.02-.16,0-.32,0-.57.01.09,0,.13.01.16.02.47.03.94.05,1.39.08.35.01.69.03,1.05.04.02-.49.05-.99.07-1.53,0,0,0,.02,0,.08l-.04,1.49-1.03-.02s-.08,0-.12.01c.13,0,.28.02.4.03.26,0,.52.02.78.02.04-1.68.08-3.26.13-4.85.01-.78.03-1.55,0-2.55,0-.05,0-.09,0-.14,0-.12.01-.23,0-.38,0-.24,0-.43-.01-.6,0-.05,0-.11,0-.14h.03s-.02,0-.02,0c0,.04.02.09.03.15,0,.15,0,.29,0,.45,0,.38,0,.76,0,1.19,0,.58,0,.83.03,1.15.01-.3.02-.59.03-.88v-.07s-.03.07-.04.1c0-.15,0-.23,0-.32,0-.38,0-.76,0-1.18,0-.14,0-.28,0-.47,0-.02,0-.05-.02-.09.02,0,.05-.02.09-.03.07.01.3.02.47.03-.15,0-.21,0-.27,0-.03,0-.05,0-.07,0,.03,0,.06,0,.08,0l2.57.02c.15-.95.31-1.91.46-2.87.09-.56.18-1.11.26-1.67-1.15,0-2.3,0-3.53,0h0s0-.05,0-.05c0-.11,0-.22,0-.34,0-.21-.01-.44-.02-.69-.01-.21-.02-.45-.03-.72-.03-.29-.04-.41,0-.63.08-.41.37-.81.78-1.02,0,0,0,0-.05.04-.38.21-.64.59-.71.98-.02.1-.03.2-.03.3,0,.12.02.15.03.35.02.26.04.52.06.78.01-.18,0-.35-.01-.57-.01-.13-.02-.27-.03-.38-.01-.09-.01-.2.01-.32,0,.09,0,.16,0,.23v.1s.03.05.03.1v.07s0-.29,0-.29c0-.07,0-.15.02-.22.03-.14.08-.28.15-.41.15-.25.38-.46.66-.56.14-.05.29-.08.43-.09h.11s.06,0,.06,0c.03,0,.11,0,.13,0h.31s1.69-.02,1.69-.02l-.03-3.94-2.33-.18c-.33-.02-.65-.06-.98-.06-.34,0-.68.04-1.02.1-1.08.28-2.05.87-2.63,1.71,0,0,0,0,.03-.05.25-.39.78-.85,1.02-1.03.14-.1.29-.18.51-.29-.17.08-.28.11-.38.17-.69.36-1.29.91-1.7,1.57-.4.67-.62,1.43-.7,2.19-.07.63-.03,1.23-.02,1.82.01.52.02,1.05.04,1.58-.75.02-1.5.03-2.25.05h-.85s.02,1.28.02,1.28c0,.49.02.97.02,1.48,0,.37.01.74.02,1.12.34,0,.69-.01,1.05-.02.03,0,.06,0,.13,0,.05,0,.09,0,.13,0-.04,0-.07,0-.15,0-.02,0-.04,0-.1,0,0,0-.01,0,.07,0,.25,0,.52-.02.6,0-.06,0-.13,0-.3.02.19,0,.28,0,.41,0-.02,0-.03-.01.03-.03.46-.01.91-.02,1.38-.03,0,.39.02.8.03,1.22,0,.17,0,.34.01.5v.52s.01.04.01.04c0-.09,0-.18.02-.18l.06,2.29c0,.15.01.32.02.49,0-.04,0-.09,0-.15l-.09-4.69v-.1c-.72.01-1.41.02-2.06.03.05,0,.09,0,.19-.02.13,0,.27,0,.39,0,.5,0,1-.02,1.5-.03,0,.51.02,1.02.03,1.53.04,2.05.08,4.08.12,6.15,0,.38,0,.75.04,1.21,0-.32,0-.62,0-.98-.01-1.17.01-2.14-.04-3.48-.02-.65-.03-1.16-.04-1.72-.02-.92-.04-1.85-.06-2.76-.67.01-1.32.03-1.96.04-.43,0-.85.02-1.27.03-.02-1.18-.04-2.34-.06-3.51h.22c.41-.01.81-.02,1.21-.02h-.04c-.34.02-.72.03-1.01.04H.21c.02,1.17.05,2.32.07,3.46.31,0,.61-.01.9-.02.77-.01,1.53-.02,2.31-.04.02,1.02.05,2.07.07,3.25.01.47.03.96.06,1.47.04-.08.05-.45.05-.85,0-.94-.01-1.9-.02-2.87,0-.4,0-.81,0-1.17-.07,0-.14,0-.21,0-.17,0-.35,0-.55,0-.2,0-.3,0-.49.03-.05,0-.1,0-.14,0-.64,0-1.27.02-1.82.03,0-.1,0-.19,0-.28,0-.01,0,.02,0,.05v.21c1.07-.02,2.12-.04,3.24-.06.02.69.03,1.41.05,2.18,0-.7,0-1.42,0-2.22-.57,0-1.18.01-1.81.02.28-.03.49-.05.8-.07-.47,0-.85.01-1.2.02-.31,0-.62,0-.93.01v-.12c0-.11,0-.27.02-.16,0,.02,0,.05,0,.11,0,.14,0,.07.01.11,0,0,0,0,0,.02h0s.02,0,.02,0h-.01s0,0,0,0c0,0,0,0,0-.02,0-.88-.01-1.76-.02-2.67h.11s.56-.01.56-.01c.37,0,.75,0,1.14-.02.47,0,.91,0,1.32,0,0-.36,0-.7,0-1.04,0-.09,0-.25.02-.26.02,0,.04.17.06.48,0-.29,0-.31,0-.34Z"/>
    <path class="cls-1" d="M7.67,13.62c0-.08.02-.17.05-.13.03.23.03.42.04.6,0,.24.02.5,0,.68l-.06-.29c0,.1.01.21.03.3.01.1.03.19,0,.23,0,.05.02.09.02.13.02.12.03.22.02.3-.02.12-.04.23-.04.38,0,.3-.02.61-.03.93,0,0,.04-.08.04.01,0,.11-.01,2.74-.02,3.98-.39,0-.69,0-.86,0-.1,0-.12,0-.04.01.22.02-.45,0-.85,0-.44.02-.82,0-1.04,0-.53,0-.25.03-.25.03l-.71.03c-.3,0-.61,0-.94,0,0-.51,0-1.05-.01-1.61,0-.71,0-1.02,0-1.63,0,0,0-.63-.02-.79s.03-.5.01-.71c-.02-.21-.02-.27-.02-.44,0-.17.05-.51.05-.69,0-.19.08-.6.07-.82,0-.22,0-.86,0-1.05,0-.19.05-.76.05-.6,0,.16-.02.05,0,.31.01.26.02.55.02.79,0,.24,0,.62.01.86,0,.25.03-.05.03-.05v-1.8s.07-1.01.07-1.01c0,.05,0,.05,0,.05,0-.02,0-.05,0-.05,0,0,0,.48,0,1.11,0,.46,0,.68,0,.94,0,.11,0,.14,0,.2,0,.27-.04.52-.02.62,0,0,0,.03.01.03,0,0,0-.01,0-.08,0-.04,0-.06,0-.08,0-.09.02-.21.02-.24.02-.17.02-.51.01-.59,0-.3,0-.82,0-1.5,0-.27.02-.33.03-.33.02,0,.02.31.07.67.03.17.05.29.07.37,0,0,.01-.06.01-.12v.02s.01.35.01.35c0,.12,0,.23.01.34v.33c.03.29.04.59.06.89.01.02.02.02.03.01,0,.05,0,.09,0,.17-.01-.07-.01-.1-.02-.13-.02.03,0,.15,0,.25,0,.03,0,.03,0,.03,0-.02,0-.03,0-.04,0-.03,0-.05,0-.06v.06s0,.04,0,.05c0,.15.01-.57.02-1.24,0-.98.01-1.89.02-1.68,0,.29.01.65.02,1.01l.02.61.02.4c.04.86.08,1.78.11,2.55.02.62-.09,1.05-.07,1.66,0,.06,0,.09,0,.16-.02-.1-.03-.16-.04-.23-.06-.12.02-.22-.04-.41,0-.02-.01-.02-.01-.02.08.39.05.65.14,1.1l.02.8v.34s.02.07.02.07h.07s.37-.02.37-.02l.84-.02,1.67-.04c-.08.02-.15.03-.25.05.13,0,.24-.02.33-.04,0-.02,0-.03,0-.01-.01.02.05.03-.06.04-.09,0-.18.01-.27.02-.17,0-.35.02-.56.06-.03,0-.03.02-.03.02.22-.03.29.05.51,0,.15-.02.28-.05.41-.07.02-.02.03-.03.03-.03v-.03c0-.3,0-.59-.01-.87,0-.33,0-.66.01-.99.01-.64.1-1.23.11-1.89,0,0,0-.02,0-.04v.03s0,.06.01.11c.01-.08.02-.15.03-.21-.01-.14-.04-.24-.04-.36,0-.11,0-.17,0-.24,0-.2,0-.34,0-.5,0-.04,0-.08,0-.13l-.03.04v-.03s.02-.37.02-.37c.03.13.03.24.03.48,0,.19,0,.34,0,.5,0,.07,0,.13,0,.19.01.12.02.19.03.27.01-.14.02-.31,0-.51,0-.06,0-.11,0-.16,0-.02,0-.04,0-.06-.02-.42,0-.74,0-1.07,0-.18.02-.37.02-.57,0-.27.02-.57.03-.88.02-.42.04-.84.05-1.22.27.01.51.02.75.03.07,0,.18.02.27.02h-.08s-.9-.02-.9-.02l-.03.74s0,.05,0,.05c.02-.25.03-.51.05-.77.3.02.61.04.91.06.29.02.62.05.95.07.03,0,.05,0,.11.02-.17,0-.27,0-.39,0-.04,0-.03.01-.03.02.07,0,.11,0,.15,0,.05,0,.05,0,.08,0,.09,0,.11,0,.14,0,.05,0,.06,0,.08,0,.04,0,.04,0,.07,0,.04,0,.05,0,.07,0,.03,0,.05,0,.07,0,.03,0,.06,0,.08,0,.03,0,.04,0,.06,0h-.06s-.06,0-.08,0c-.04,0-.05,0-.07,0-.04,0-.06,0-.08,0-.03,0-.05,0-.08,0-.04,0-.05,0-.07,0-.09,0-.12,0-.15,0-.03,0-.05,0-.07,0-.07,0-.11,0-.15,0-.23,0-.4-.02-.57-.02-.28-.01-.56-.02-.84-.03,0,.22-.01.45-.02.68,0,.26,0,.57,0,.86v.39s0,.06.01.07c.02-.59.05-1.27.08-1.93.52.03,1.03.05,1.49.08.35.02.78.05,1.18.08.05,0,.06,0,.07,0,0,0,0,0,.02,0h-.04s0,0,0,0c-.03,0-.06,0-.08,0-.58,0-1.06,0-1.59-.01-.24,0-.54-.01-.84-.02,0,.02-.02.03-.04.04,0,.03.01.05.02.09,0,.04,0,.03.01.1v.26s.03.53.03.53c.01.23-.18.19-.16.44.02.21.06.32.06.32-.02-.18.02.08.02.08v-.12Z"/>
  </g>
</svg>