<?xml version="1.0" encoding="UTF-8"?>
<svg id="Layer_2" data-name="Layer 2" xmlns="http://www.w3.org/2000/svg" viewBox="0 0 16.82 16.66">
  <defs>
    <style>
      .cls-1 {
        fill: #151515;
      }
    </style>
  </defs>
  <g id="Layer_1-2" data-name="Layer 1">
    <path class="cls-1" d="M15.96,12.39c0,.22-.02.44-.04.66l-.03.19-.07.29c-.05.19-.11.38-.18.54-.1.22-.23.45-.48.8-.02.02-.07.09-.11.13-.38.33.73-.4.91-1.92.07-.36.08-.79.07-.68,0,0,0,0,0-.02,0-.42-.13.88-.15.43l-.02.17-.02.16c-.03.16-.06.31-.11.47-.15.62-.5,1.18-1.02,1.6.24-.22.39-.41.57-.71-.29.43-.63.71-.98.91-.16.07.15-.03.57-.4.44-.37.84-1.07.97-1.96.07-.36.07-.74.08-.67,0,.03,0,.06-.02.04,0,0,0,0,0-.02,0-.03,0-.05,0-.09,0,0,0-.02,0-.03,0,0,0,.38-.07.77-.1.56-.26,1.08-.56,1.48-.29.41-.67.71-1.03.89-.73.34-1.35.36-1.32.37-.03,0,.59-.03,1.32-.37.36-.18.74-.48,1.03-.89.29-.4.46-.93.56-1.48.07-.39.07-.77.07-.77,0,0,0,.01,0,.03,0,.24-.02.49-.05.74-.13.9-.52,1.75-1.32,2.26-.51.34-1.14.48-1.7.54-.5.03-.39,0,.18-.1.49-.11.98-.27,1.34-.49.6-.36,1.04-.93,1.23-1.59.04-.14.08-.27.11-.41l.05-.26c0-.05.01-.11.02-.16,0-.08,0-.18.03-.21h0c-.01-.13,0-.21,0-.32,0-.03,0,.35-.07.72-.09.51-.24.99-.48,1.35-.24.37-.56.65-.87.83-.59.34-1.17.39-1.11.4.15-.02.38-.07.63-.17.26-.11.45-.22.63-.35.28-.21.53-.46.73-.8.12-.21.2-.4.27-.65v-.06c-.08.29-.16.51-.34.79-.4.47.32-.11.49-1.35.05-.27.07-.6.06-.44l-.02.27c-.02.12.02.03-.13.65-.2.88-.83,1.59-1.65,1.9-.52.19-1.06.29-1.65.29l-1.85.03c-1.24.03-2.47.04-3.7.01-.53,0-1.05-.01-1.58-.02h-.81c-.24-.02-.48-.04-.73-.09h0c-.19-.03-.37-.08-.55-.14-.16-.05-.32-.12-.48-.21-.31-.18-.59-.42-.81-.71-.91-1.2-.61-3-.69-4.62-.03-1.36,0-2.72.03-4.08.03-.67,0-1.4.08-1.98.05-.3.12-.61.22-.89.09-.26.24-.52.41-.74.68-.9,1.9-1.17,3.15-1.14,1.31,0,2.63-.04,3.95-.03,2.34.2,5.34-.54,6.4,1.62.18.38.33.84.43,1.44.03-.13-.05-.57-.15-.91-.22-.85-.8-1.56-1.63-1.9-.48-.18-.94-.29-1.47-.32-2.3-.06-4.57-.11-6.89-.06-.52.01-1.06,0-1.55.05-.49.06-1.03.19-1.45.41-.78.42-1.31,1.16-1.49,2.13-.09.42-.12.81-.11,1.38.01-.48.02-.94.15-1.49.17-.84.65-1.54,1.4-1.97.41-.23.93-.36,1.43-.43.49-.06,1.05-.03,1.6-.05,1.1,0,2.21-.04,3.31-.02.85.02,1.71.04,2.56.05.88,0,1.68.02,2.43.31.54.2,1.02.6,1.33,1.08.05.08.06.12.04.11-.28-.48-.71-.86-1.22-1.09-.51-.22-1.13-.34-1.71-.35-1.23-.02-2.45-.05-3.67-.07-1.23.01-2.45.02-3.69.03-.75-.02-1.44.07-2.09.32-.61.25-1.13.73-1.41,1.33-.28.61-.4,1.32-.39,2.08l-.04,2.31c-.03,1.03-.02,2.05,0,3.07l.02,1.53c0,.53,0,.99.08,1.45.02.08.02.13,0,.11-.01-.06-.03-.11-.04-.21,0-.04-.02-.09-.03-.14,0,0,0,0,0,.01,0,.06.02.1.03.18.02.09.04.19.06.33.02.07.04.13.07.28.03.12-.02.04-.09-.17-.09-.25-.15-.52-.2-.78,0-.14-.01-.25-.02-.37-.03-1.33-.06-2.69-.08-4,.01-.74.02-1.42.04-2.13,0-.23.01-.33.04-.07-.02-.97.01-1.32.04-1.81-.02-.17,0-.39.03-.61.11-.68.34-1.33.8-1.81.45-.5,1.04-.79,1.71-.93.42-.09.83-.13,1.26-.12h1.34c.89-.02,1.79-.04,2.68-.03l2.67.06c.91,0,1.74.02,2.51.33.8.32,1.4.99,1.63,1.76.13.4.18.71.2,1.04.02.28.03.38.06.87,0,.13.02.24.03.4-.02.12,0,.41.02.7.02.28.04.59.04.9-.03-.29-.05-.54-.07-.86-.02.53,0,1.3.02,2.04.02.57,0,1.12.02,1.82.04.11.05-.16.06-.39.05-.82.07-1.66.09-2.47,0,.05,0,.09.02.2.01.49.04.98.04,1.47,0,.22,0,.39-.02.43-.04.1-.05.57-.04,1.21v.15s0,.03,0,.03v.06s.02.13.02.13l.04.38c0,.07.02.12.05.15,0,.13-.01.24-.02.36,0,.19-.01.37-.02.57,0,0,0,.02,0,.03h0s0,.01,0,.01c0,0,0-.01,0,0,0,0,0-.01,0-.03.03-.14.06-.28.09-.42.04-.21.07-.43.1-.65l.04-.34.02-.17v-.09s.02-.39.02-.39c0,.06,0,.11.01.21v.28c0,.1,0,.22,0,.31-.02.19-.04.38-.06.59,0,.06-.02.13-.03.2,0,.01,0,.03,0,.05,0,0,0,0,0,.02,0,.01,0,.03,0,.05,0,0,0,.01,0,.02,0,0,0,.01,0,.03,0,0,0,.02,0,.03,0,0,0,.01,0,.03,0,0,0,.01,0,.03v.02s0-.01.01-.02c0,0,0-.02,0-.03,0,0,0-.01,0-.02,0,0,0-.01,0-.03,0,0,0-.01,0-.03,0,0,0-.01,0-.03,0-.01,0-.03,0-.05,0,0,0-.01,0-.03,0-.02,0-.03,0-.05,0,0,.01,0,.02.01v.14s.02-.03.03-.04c.03-.11.05-.23.08-.34.04-.18.08-.35.12-.55,0,0,0,0,0,.02l-.07.52v.03s.03-.07.04-.1c.04-.19.07-.39.1-.6.01-.13.03-.15.04-.38l.05-1.75c.02-1,0-1.98-.04-3.26,0-.07,0-.12,0-.18,0-.16,0-.29,0-.49,0-.61-.09-1.19-.2-1.63.07.24.14.49.19.85.03.19.04.4.04.61,0,.49.01.97.02,1.52.01.73.02,1.06.06,1.46,0-.38,0-.75.01-1.12v-.09s-.03.08-.04.13c0-.18-.01-.29-.01-.41,0-.49-.01-.97-.02-1.51,0-.21-.02-.47-.06-.78-.06-.38-.17-.71-.33-1.13-.06-.21-.15-.44-.28-.68.1.16.14.24.19.34.02.03.03.06.05.09-.02-.04-.04-.08-.05-.12-.46-1.05-1.48-1.85-2.57-2.09-.51-.14-1.1-.2-1.59-.2l-1.5-.03c-2-.07-3.96-.03-6.1.01-.63.01-1.26.13-1.88.36-.65.25-1.24.7-1.65,1.32-.44.64-.6,1.4-.67,2.1,0,0,0,0,0-.1.07-.67.23-1.39.66-2.02.41-.62,1.03-1.13,1.77-1.4-.25.06-.5.18-.77.36-.28.19-.56.43-.87.78.21-.27.39-.45.62-.63-.61.43-1.07,1.04-1.33,1.74C.14,3.23.02,3.94.03,4.6c0,1.26-.02,2.52-.03,3.77.03,1.25.06,2.5.08,3.74,0,.65.09,1.35.31,1.98.22.68.65,1.28,1.21,1.72.56.41,1.24.59,1.81.65h0c.38.05.76.06,1.12.03.34-.02.68-.04,1.01-.06,0,0,0,0-.07.01-.32.02-.62.05-.94.07-.34.03-.65.03-.84.03-.22-.02-.42-.04-.73-.11.23.06.37.09.51.11.46.09,1.03.08,1.42.08h1.38c.92,0,1.85.04,2.79,0,1.29-.05,2.54-.04,3.88-.15.67-.1,1.35-.28,1.94-.69.58-.4,1.03-.97,1.27-1.62.07-.19.12-.38.17-.57l.06-.29.03-.2v-.23c.02-.12.02-.25.02-.38,0-.08-.02.26-.09.62-.09.51-.24,1.04-.5,1.47-.26.44-.6.78-.91,1-.64.45-1.11.51-.88.45.03-.01.07-.03.16-.06.05-.03.1-.05.16-.08-.04.02-.09.04-.18.07-.03.01-.07.03-.13.05,0,0-.02,0,.08-.04.3-.12.6-.33.7-.38-.07.05-.13.1-.33.23.22-.12.32-.2.45-.3-.03,0-.04.01.01-.04.44-.36.78-.82.98-1.35.1-.27.17-.54.23-.81l.04-.21v-.06s.01-.08.01-.08c0-.04,0-.08,0-.12v-.13s0,0,0,0c0,.02-.01.04-.02.04"/>
    <path class="cls-1" d="M8.32,11.34c-.21,0-.42-.03-.64-.07-.09-.02-.24-.06-.34-.11-.07-.03-.15-.08-.29-.1,0,0-.03-.01-.05-.02-.14-.07.19.15.64.28.34.11.77.11.66.1,0,0,0,0,.02,0,.21-.02-.01-.03-.22-.07-.21-.04-.4-.11-.19-.1-.14-.03-.61-.13-.98-.34.1.03.18.05.3.07-.16-.07-.28-.13-.39-.2-.09-.06.32.26.85.4.33.1.7.1.63.1-.02,0-.06,0-.03-.02,0,0,0,0,.02,0,.03,0,.06,0,.09,0,0,0,.02,0,.03,0,0,0-.36,0-.73-.1-.33-.09-.65-.25-.86-.4-.22-.15-.34-.27-.34-.27,0,0,.12.12.34.27.21.15.53.31.86.4.36.1.73.09.73.09,0,0,0,0-.03,0-.23,0-.46-.02-.7-.07-.27-.06-.54-.17-.8-.32-.18-.1-.33-.22-.45-.35-.11-.11-.06-.11.1-.02.21.12.34.2.39.23.19.12.4.21.61.28.19.06.27.08.37.09.07.01.17,0,.2.03h0c.18,0,.18,0,.28,0,.03,0-.32,0-.66-.09-.61-.15-1.09-.58-1.07-.57.03.04.08.09.15.13.15.08.17.09.21.12.1.06.2.11.32.15.07.03.14.05.22.07h.02c-.08-.03-.16-.06-.26-.1-.18-.09.08.07.42.16.25.07.55.09.4.08-.14-.01-.27-.03-.41-.07-.32-.08-.63-.23-.9-.42-.55-.39-.93-1-1.06-1.67-.1-.51-.04-1.05.16-1.55.18-.45.49-.82.85-1.09.61-.45,1.41-.62,2.14-.47.71.14,1.34.59,1.72,1.2.35.56.5,1.26.37,1.97-.02.14-.06.27-.11.45.05-.02.09-.15.13-.25.08-.26.13-.54.14-.83,0-.16,0-.3-.04-.46-.12-.65-.47-1.24-.99-1.66-.23-.19-.51-.34-.82-.45-.27-.09-.55-.14-.85-.15-.13,0-.26,0-.42.03.14,0,.28-.02.45-.01.26.01.53.06.79.15.6.21,1.12.62,1.44,1.15.26.41.4.89.41,1.38,0,.19-.01.38-.05.57,0,.03-.02.04-.03.03.07-.35.05-.73-.02-1.07-.14-.67-.53-1.27-1.1-1.67-.7-.5-1.66-.62-2.48-.32-.55.19-1.03.56-1.35,1.04-.01.02-.03.03-.03.02,0-.02.01-.03.03-.06,0-.01.01-.02.02-.04h0s-.02.03-.03.05c-.01.02-.03.04-.06.08-.01.02-.01.02-.05.07-.03.03-.03,0,0-.07.03-.08.06-.16.09-.24.03-.03.05-.06.07-.09.24-.31.55-.58.9-.77.2-.11.39-.17.59-.23.07-.02.1-.02.03.03.27-.11.38-.08.53-.07.05-.04.12-.04.19-.04.43,0,.87.1,1.25.29.96.46,1.59,1.47,1.6,2.51,0,.28-.04.55-.11.8-.04.12-.09.21-.14.3-.04.06-.06.14-.09.25,0,.04-.02.07-.03.11-.03.02-.06.1-.09.18-.03.08-.07.16-.13.23.04-.08.06-.15.09-.24-.24.29-.25.3-.37.44-.11.12-.23.22-.37.36,0,.05.06.01.12-.02.21-.12.41-.27.59-.44,0,.01,0,.02-.03.06-.09.12-.19.23-.29.34-.05.05-.09.08-.11.07-.05-.01-.16.08-.31.19-.07.06-.14.1-.21.16-.1.07-.2.13-.31.19-.05.03-.1.06-.12.1-.12.03-.23.05-.34.07-.17.03-.36.05-.54.04,0,0-.02,0-.03,0h0s-.01,0-.01,0c0,0,.01,0,0,0,0,0,.01,0,.03,0,.14.03.27.05.42.05.39.01.84-.09,1.25-.29l.11-.06s-.02.02-.05.05l-.15.09c-.09.05-.2.11-.29.14-.2.07-.39.11-.59.14-.07,0-.13.01-.21.02-.01,0-.03,0-.05,0,0,0,0,0-.03,0-.01,0-.02,0-.05,0,0,0-.01,0-.03,0-.01,0-.01,0-.03,0,0,0-.02,0-.03,0,0,0-.01,0-.03,0,0,0,0,0-.03,0h-.02s.01,0,.02,0c0,0,.02,0,.03,0,0,0,.01,0,.03,0,0,0,0,0,.03,0,0,0,.01,0,.03,0,0,0,.01,0,.03,0,.01,0,.02,0,.05,0,.01,0,.01,0,.03,0,.02,0,.03,0,.05,0,0,0,0,.01,0,.02-.04,0-.08.02-.14.03.02,0,.03.01.04.01.12.01.24.02.36.01.19,0,.4-.04.6-.08,0,0,0,0-.02.02-.18.05-.37.09-.55.11l-.03.02s.07,0,.11,0c.31-.03.64-.12.97-.28.19-.1.38-.22.55-.37.28-.24.54-.5.76-.93.01-.02.03-.04.04-.06.03-.05.06-.09.09-.16.11-.28.11-.28.21-.54-.02.08-.04.16-.07.29-.02.06-.04.13-.08.2-.08.17-.16.33-.28.49-.08.11-.12.17-.31.46.1-.1.2-.2.29-.31v-.03s-.04.02-.04.02c.04-.07.06-.11.08-.13.1-.15.19-.31.28-.49.03-.07.06-.14.11-.25.05-.12.05-.25.08-.4.03-.07.05-.15.08-.23,0,.06,0,.09-.01.13v.03s0-.03.01-.04c.17-.73.11-1.52-.17-2.22-.28-.7-.78-1.33-1.48-1.75-.37-.22-.81-.37-1.3-.38-.25,0-.51.02-.75.06,0,0,0,0,.03-.02.46-.09.96-.08,1.47.04-.08-.04-.16-.07-.27-.08-.11-.01-.23-.03-.38-.06.11,0,.2,0,.29.02-.94-.26-1.96-.13-2.79.33-.84.45-1.47,1.23-1.75,2.12-.07.5-.03.97.08,1.39,0,0,0,0-.01-.02-.07-.19-.1-.49-.15-.62,0-.07,0-.15,0-.26-.01.08-.02.12-.03.18-.08.67.02,1.35.32,1.97.4.84,1.17,1.49,2.03,1.77.12.04.27.08.37.1l.23.03c.12.01.25.02.38.03.08,0-.27-.02-.62-.12-.69-.17-1.27-.67-1.14-.58.01,0,.02.01.04.03.02,0,.03.02.05.03-.01,0-.02-.02-.05-.04,0,0,0,0-.03-.03,0,0,0,0,.03.01.09.06.2.11.22.14-.03-.01-.05-.02-.12-.05.07.04.11.06.15.09,0-.01,0-.02.02-.02.16.09.33.16.51.21.17.06.38.1.46.11.04,0,.08,0,.12.01h.13s0,0,0,0c-.02,0-.04-.01-.04-.02"/>
    <path class="cls-1" d="M12.18,4.03c-.11.01-.23.06-.31.14-.02.02-.01,0-.04.04,0,0-.02.01-.02.04,0,0,0,0,0,0-.01.02.02-.02.07-.06.14-.13.36-.13.31-.13,0,0,0,0,0,0,.11,0,0-.02-.12,0-.11.03-.21.09-.12.02-.14.08-.15.12-.19.18,0-.02,0-.03,0-.05-.02.02-.03.05-.04.06,0,.02.04-.05.1-.11.16-.14.38-.15.34-.14-.01,0-.03,0-.02,0,0,0,0,0,.01,0h.05s0,0,.02,0c0,0-.23,0-.41.15-.09.07-.15.18-.15.18,0,0,.06-.11.15-.18.18-.16.41-.15.41-.15,0,0,0,0-.02,0-.12,0-.24.05-.34.12-.1.08-.1.09-.14.15-.04.06-.02.04-.05.08-.01.02-.02.01-.02-.02,0-.03,0-.06.02-.08.02-.04.05-.07.08-.1.01-.01.07-.06.13-.1.04-.03.1-.06.12-.05h0c.07-.03.12-.04.19-.04.02,0-.24,0-.43.16-.09.08-.15.18-.15.18,0,0,.02-.02.02-.03,0-.02.01-.03.02-.04.01-.02.03-.04.04-.06l.03-.04h0s-.03.03-.04.04c-.03.03.01-.02.07-.06.14-.13.36-.16.26-.14-.09.03-.18.08-.26.14-.05.04-.09.09-.12.15-.07.11-.11.24-.1.37,0,.1.02.2.07.29.04.08.09.15.15.21.1.1.23.16.37.19.13.02.28,0,.4-.06.12-.05.22-.15.29-.27.01-.02.02-.05.03-.08-.02,0-.02.02-.04.04-.03.04-.06.08-.1.12-.01.01-.05.04-.06.05-.09.07-.19.12-.3.14-.05,0-.1.02-.15.01-.05,0-.09,0-.14-.02-.02,0-.04-.01-.07-.02.02.01.04.02.07.03.04.01.09.02.13.02.11,0,.22-.01.31-.06.08-.04.15-.08.21-.15.02-.02.05-.05.07-.08,0,0,.01,0,.01,0-.03.06-.08.11-.13.15-.1.08-.21.13-.34.15-.15.02-.31,0-.44-.09-.09-.05-.16-.13-.21-.21h0s0,0,0,0h0s0,0,0,0h0s0-.01,0-.02c0,0,0,0,0-.01,0,0,0,0,.02,0l.04.02s0,0,0,.01c.04.05.08.09.13.12.04.03.05.04.08.05,0,0,.01,0,0,.01.05,0,.05.02.07.04.01,0,.02,0,.03,0,.06.02.13.03.19.03.16,0,.33-.07.44-.19.03-.03.06-.07.09-.1.01-.02.03-.03.04-.04,0,0,.01-.02,0-.05v-.02s0-.02,0-.03c0-.01,0-.03,0-.04,0,.02,0,.03.02.05.02-.02.02-.06.02-.1,0-.03,0-.06-.01-.09-.02,0-.02,0-.02.02-.01.04-.02.08-.04.11,0,0,0,0,0,0v-.06s0-.02,0-.02c.02,0,.02-.03,0-.05,0-.03-.02-.08-.04-.11-.02-.06-.06-.11-.09-.15-.02-.02-.04-.04-.06-.04-.04-.04-.07-.08-.12-.1-.07-.04-.15-.07-.24-.07,0,0,0,0-.01,0h0s0,0,0,0h0s0,0,.01,0c.06.01.12.04.17.07.15.08.26.28.24.42h0s0-.05,0-.05c0-.04-.02-.07-.04-.1-.03-.07-.07-.13-.12-.18-.02-.02-.04-.03-.06-.05,0,0,0,0-.02,0,0,0,0,0,0,0,0,0,0,0-.02,0,0,0,0,0,0,0h0s.05,0-.01,0c0,0,0,0,0,0,0,0,0,0-.01,0h0s0,0,0,0c0,0,0,0,.01,0,0,0,0,0,0,0,0,0,0,0,0,0h0s0,0,0,0c0,0,0,0,.02,0,0,0,0,0,0,0,0,0,.01,0,.02.01,0,0,0,0,0,0-.02,0-.03,0-.05-.01,0,0,.01.01.01.01.03.02.06.05.09.08.04.05.07.1.08.16h0c-.02-.05-.05-.1-.08-.14h-.01s.01.02.02.03c.07.08.09.26.07.29,0,.02-.02.04-.01.07h0s0,.01,0,.01c0,.01,0,.03-.01.03,0,0,0-.01,0-.02,0,0,0-.01,0-.01,0,0,0,0,0-.03,0-.02,0-.02,0-.03l-.02.02h0s0,0,.01,0h0s0,.04,0,.04c0,0,0,0,0,.01,0,0,0,.02,0,.03h-.02s0,0,0,0h0s0,0,0,0c-.02.03-.06.06-.09.08-.03.02-.07.03-.11.04-.02,0-.04.02-.07.05-.02.01-.04.03-.06.04h0s.07-.06.1-.09c0,0,0,0-.01,0,0,0-.01.02-.02.01l.02-.02c-.09.01-.2-.04-.25-.14-.05-.01-.09-.04-.13-.07h0s.05.04.07.04c0,0,.01,0,.02.01,0,0,0,0,0-.01-.02-.04-.02-.08-.02-.13,0-.06.01-.14.05-.2,0-.01.03-.05.08-.08.03-.02.07-.04.11-.05.03,0-.09,0-.19.08-.05.04-.09.1-.08.08h0s0-.01,0-.01h0s0,0,0,0h0s0-.03.01-.03c0,0,0,0,0,.01,0,0,0-.01,0-.01,0,0,0,0,0,0,.02-.04.01-.05.08-.11.01-.01.02-.02.04-.03l.04-.02h0s-.02,0-.02,0"/>
  </g>
</svg>