<?xml version="1.0" encoding="UTF-8"?>
<svg id="Layer_2" data-name="Layer 2" xmlns="http://www.w3.org/2000/svg" viewBox="0 0 16.65 16.61">
  <defs>
    <style>
      .cls-1 {
        fill: none;
      }

      .cls-2 {
        fill: #151515;
      }
    </style>
  </defs>
  <g id="Layer_1-2" data-name="Layer 1">
    <g>
      <path class="cls-1" d="M16.13,12.23c0,.61-.12,1.22-.33,1.79-.16.42-.41.79-.72,1.11-.31.31-.69.56-1.11.72-.57.21-1.18.32-1.79.33-.96.05-1.32.06-3.85.06s-2.89,0-3.85-.06c-.63.01-1.27-.08-1.87-.29-.42-.16-.79-.41-1.11-.72-.31-.31-.56-.69-.72-1.11-.21-.59-.32-1.21-.33-1.83,0-.96-.06-1.32-.06-3.85s0-2.89.06-3.85c0-.62.11-1.24.33-1.83.16-.42.41-.79.72-1.11.31-.31.69-.56,1.11-.72.59-.21,1.21-.32,1.83-.33.96,0,1.32-.06,3.85-.06s2.89,0,3.85.06c.61,0,1.22.12,1.79.33.42.16.79.41,1.11.72.31.31.56.69.72,1.11.23.58.35,1.2.37,1.83.05.96.06,1.32.06,3.85s0,2.89-.06,3.85Z"/>
      <path class="cls-2" d="M2.06,15.01s.02,0,.06.03c-.07-.05-.2-.15-.33-.29-.45-.45-.67-1.05-.78-1.67-.06-.31-.08-.61-.08-.9,0-.32,0-.62-.01-.9,0-1.13-.02-1.99-.02-2.36,0-.21,0-.53,0-.98,0-.24,0-.39,0-.71,0-.29.01-.54.01-.7,0,.04,0,.07,0,.08,0,0,0,0,0,0,0-.06,0-.1,0-.16,0-.03,0-.07,0-.11,0,0,0,0,0,0,0,.05,0,.07,0,.14,0,.07,0,.14,0,.25,0,.05,0,.1,0,.21-.01.09-.03.02-.04-.14-.02-.2-.03-.4-.05-.59,0-.1,0-.18,0-.27.03-.92-.06-1.85.15-2.65.12-.47.28-.84.56-1.19.09-.11.13-.15.05-.01.35-.48.58-.56.84-.69.08-.08.21-.14.34-.19.87-.34,1.81-.3,2.81-.31,2.43-.03,4.93,0,7.26.14.62.1,1.17.29,1.57.61.21.16.34.32.46.49.1.14.13.17.31.43.04.06.08.12.12.2,0,.07.09.23.16.4.07.16.14.35.17.54-.06-.18-.11-.33-.19-.51.08.32.18.79.21,1.25.02.38.02.77.06,1.24.04.07.04-.11.05-.27.02-.57.07-1.14,0-1.64,0,.03.02.06.03.13.06.31.08.63.09.97,0,.15,0,.27,0,.29-.04.07-.03.39-.01.83.02.32.03.61.05.92.02.45.05.89.07,1.34.01.23.02.44.05.53-.01.45-.02.86-.04,1.28-.01.66-.03,1.33-.04,2.02,0,.04,0,.06,0,.1h0s0,.04,0,.04c0-.02,0-.04,0-.03,0-.02,0-.04,0-.09.04-.5.07-1.02.11-1.49.04-.81.08-1.57.12-2.33.01-.82.02-1.63.03-2.45,0,.04,0,.08.02.14v.54c.01.37.02.74.03,1.09,0,.71-.03,1.39-.06,2.1-.01.23-.02.45-.04.73,0,.05,0,.11,0,.19,0,.02,0,.03,0,.09,0,.05,0,.1,0,.19,0,.02,0,.04,0,.09,0,.03,0,.04,0,.1,0,.03,0,.05,0,.11,0,.02,0,.04,0,.09,0,.03,0,.04,0,.1,0,.03,0,.05,0,.07,0-.01,0-.02,0-.08,0-.02,0-.04,0-.1,0-.02,0-.03,0-.09,0-.02,0-.03,0-.09,0-.03,0-.04,0-.09,0-.02,0-.04,0-.1,0-.05,0-.1,0-.18,0-.03,0-.04,0-.1,0-.04,0-.08.01-.19,0,0,.01-.01.02.03,0,.14,0,.28,0,.49.01-.08.02-.11.02-.14.03-.41.06-.82.09-1.21.05-.64.09-1.31.12-1.96,0,0,0,.02,0,.07,0,.61-.04,1.22-.07,1.84,0,.04,0,.07.01.1.01-.12.02-.24.03-.35.11-1.36.09-2.87.11-4.49.02-.67-.04-1.44-.4-2.29-.02-.05-.03-.09-.05-.13-.05-.11-.09-.21-.16-.33-.25-.4-.51-.68-.74-.91.14.11.27.23.45.42.09.11.17.22.26.36.2.32.34.67.45,1.04.15.52.18.75.25,1.05-.02-.28-.06-.55-.12-.82l-.03-.06s0,.07,0,.1c-.04-.13-.06-.21-.09-.29-.1-.34-.24-.69-.45-1.04-.09-.14-.19-.28-.34-.46-.18-.2-.38-.35-.65-.53-.12-.1-.25-.19-.41-.29.12.05.17.08.23.12.02.01.04.02.06.03-.03-.02-.05-.03-.07-.05-.67-.42-1.4-.57-2.13-.65-.72-.04-1.37-.04-2.07-.06C9.13,0,7.78-.02,6.32.03c-.8.03-1.53.03-2.5.18-.48.1-.95.25-1.4.47,0,0,0,0,.06-.04.43-.21.87-.35,1.34-.45.48-.09.94-.11,1.39-.17-.16-.01-.3,0-.5.02-.19.03-.42.04-.72.06.21-.04.39-.05.55-.07-.93.02-1.86.17-2.73.71C.97,1.25.38,2.16.19,3.07c-.11.45-.17.92-.17,1.37v1.28c0,.85-.01,1.71-.01,2.56.11.92.21,1.8.31,2.62,0,0,0,0-.01-.05-.06-.38-.12-.95-.19-1.19-.01-.14-.03-.27-.05-.47,0,.15,0,.24,0,.33.02.63.03,1.25.05,1.87.03.61,0,1.28.16,1.95.17.88.67,1.81,1.46,2.34.79.56,1.76.68,2.65.68h.09s-.01,0-.01,0h1.47c.43-.01.85-.01,1.29-.02.56,0,1.13,0,1.71-.03.02,0,.05,0,.11,0,.04,0,.08,0,.12,0-.03,0-.06,0-.13,0-.02,0-.03,0-.09,0,0,0-.01,0,.06-.01.21-.01.45-.03.52-.01-.05,0-.11,0-.26.02.16,0,.24,0,.36-.01-.02,0-.03-.01.02-.03.75-.03,1.5-.06,2.27-.1.15,0,.3-.02.43-.02.15,0,.3-.02.45-.04h.03c-.08,0-.15,0-.15,0,.65-.1,1.3-.28,1.82-.64.11-.08.22-.16.31-.26-.03.02-.06.04-.1.07-.49.42-1.12.63-1.77.75-.65.11-1.33.09-2,.13-.63.02-1.25.04-1.81.06.04,0,.08,0,.16-.02.11,0,.23-.01.34-.01.83-.03,1.66-.06,2.49-.1.87-.04,1.76-.22,2.44-.72.69-.5,1.1-1.27,1.23-2.12.06-.31.09-.62.07-.99,0,.26-.03.52-.08.8-.16.96-.5,1.7-1.39,2.34-.39.27-.84.41-1.3.52-.6.14-1.25.12-1.89.16-.65.03-1.29.05-1.92.08-1.51.07-2.99.03-4.49.05-.1,0-.2,0-.3,0h0c-.25,0-.5,0-.75-.02h.03c.24.01.49.01.72,0h0c.06,0,.12,0,.17,0,1.45-.02,2.91,0,4.34-.05.74-.03,1.48-.05,2.24-.08.76-.03,1.52-.02,2.23-.26.38-.11.73-.27,1.04-.54-.07,0-.31.16-.6.28-.71.29-1.47.36-2.32.36-.29,0-.57.01-.85.02-.18,0-.38-.01-.69.03-.05,0-.09,0-.12,0-.79.03-1.59.07-2.29.04,0,0,0,0,.06,0,1.56-.02,3.11-.09,4.72-.18-.84.02-1.76.05-2.8.08.24-.03.43-.05.69-.08-.4.01-.74.02-1.04.03-.55.02-1.09.03-1.62.02-.1,0-.24,0-.14-.02.01,0,.02,0,.09,0,.11,0,.21,0,.34,0,.04,0,.06,0,.12,0h.12s-.1,0-.12,0c-.03,0-.05,0-.13,0-1.12,0-2.24-.01-3.43-.02h-.04c-.43.02-.88-.03-1.33-.13-.44-.09-.76-.26-1.06-.49-.05-.04-.14-.12-.14-.14,0-.02.15.08.29.15-.12-.07-.17-.12-.17-.13Z"/>
    </g>
    <g>
      <path class="cls-1" d="M8.29,11.57c-.63,0-1.25-.19-1.78-.54-.53-.35-.94-.85-1.18-1.44-.24-.59-.31-1.23-.18-1.85.12-.62.43-1.19.88-1.64.45-.45,1.02-.75,1.64-.88.62-.12,1.27-.06,1.85.18.59.24,1.09.65,1.44,1.18.35.53.54,1.15.54,1.78,0,.42-.08.84-.24,1.23-.16.39-.4.74-.69,1.04-.3.3-.65.53-1.04.69-.39.16-.81.24-1.23.24Z"/>
      <path class="cls-2" d="M5.71,7.51s0,0,0,.03c0-.03.03-.09.04-.15.28-.89,1.07-1.36,1.25-1.43.07-.03.16-.07.27-.12.07-.03.11-.05.2-.07.09-.03.16-.04.21-.05-.01,0-.02,0-.03,0h0s.02-.02.05-.02h.03s0-.01,0-.01c-.01,0-.02,0-.04.01-.02,0-.03,0-.08.01-.02,0-.03,0-.06.01-.03,0-.01-.02.03-.05.05-.03.11-.07.17-.09.03,0,.05,0,.08-.01.28-.05.58-.07.87-.03.16.02.31.06.45.11.05.02.06.03,0,.04.21.03.27.1.36.16.05-.01.09.01.14.04.27.16.53.36.73.59.51.59.74,1.38.65,2.13-.02.2-.07.4-.14.57-.03.09-.08.15-.12.21-.03.04-.05.1-.06.18,0,.03-.01.05-.02.08-.03.01-.04.07-.06.13-.02.06-.04.12-.08.18.02-.06.03-.12.05-.18-.08.08-.16.22-.25.34-.07.09-.15.17-.24.3,0,.04.06.01.1-.02.15-.1.29-.22.42-.35,0,0,0,.02-.02.04-.06.09-.12.18-.19.27-.03.04-.06.07-.07.06-.05-.01-.12.06-.21.16-.07.07-.14.14-.22.21-.11.1-.23.18-.36.26-.07.04-.12.08-.14.12-.14.05-.28.09-.42.12-.22.05-.44.08-.67.07-.01,0-.02,0-.03,0h0s-.02,0-.02,0c0,0,.01,0,.01,0,0,0,.01,0,.03,0,.17.03.33.04.52.03.52-.02,1.1-.23,1.57-.59,0,0-.01.02-.03.04l-.15.12c-.11.08-.23.16-.33.22-.23.12-.47.19-.72.24-.08.02-.16.03-.26.04-.02,0-.04,0-.07,0,0,0,0,0-.03,0-.01,0-.03,0-.07,0,0,0-.01,0-.03,0-.01,0-.02,0-.03,0-.01,0-.02,0-.04,0-.01,0-.01,0-.03,0-.01,0,0,0-.04,0h-.02s.02,0,.03,0c0,0,0,0,.03,0,0,0,.02,0,.03,0,0,0,0,0,.03,0,.01,0,.02,0,.03,0,0,0,.01,0,.03,0,.02,0,.03,0,.07,0,.01,0,.01,0,.03,0,.02,0,.04,0,.07,0,0,0,0,.01,0,.02-.05.01-.1.02-.17.04.03,0,.04,0,.05,0,.15,0,.29,0,.45-.03.24-.03.48-.1.72-.19,0,0,0,0-.02.02-.22.1-.44.17-.67.21l-.03.02s.09,0,.13-.02c.51-.1,1.07-.37,1.53-.82.19-.19.37-.4.52-.71,0-.02.02-.03.03-.04.02-.04.05-.07.06-.12.06-.16.11-.28.16-.39-.01.06-.03.12-.05.22-.02.05-.03.09-.06.15-.06.12-.12.24-.2.37-.11.17-.15.25-.2.35.07-.08.14-.16.21-.24v-.03s-.04.01-.04.01c.02-.04.03-.07.05-.1.07-.12.13-.23.2-.37.02-.05.04-.1.08-.19.04-.09.03-.18.06-.3.03-.05.05-.1.08-.16,0,.05,0,.07-.01.09v.03s0-.02.01-.03c.16-.53.2-1.09.11-1.65-.09-.55-.3-1.08-.67-1.56-.2-.25-.45-.47-.79-.62-.17-.08-.35-.14-.52-.2,0,0,0,0,.03,0,.34.09.68.24,1,.45-.04-.05-.08-.09-.16-.13-.07-.04-.15-.08-.24-.15.08.04.13.06.2.09-1.1-.94-2.71-1.11-3.93-.5-.29.24-.52.5-.71.77,0,0,0,0,0-.02.07-.14.22-.3.27-.41.04-.04.08-.08.14-.13-.05.03-.07.04-.11.07-.41.28-.76.63-1.02,1.06-.35.58-.52,1.28-.48,1.94.01.19.04.39.08.58.04.15.08.3.14.46.08.19.17.38.29.56,0,.01,0,.02.02.04l.03.03s0-.02-.02-.04c0,0,0,0-.01-.03,0,0,0,0,.02.01.04.06.1.13.1.16-.01-.01-.03-.03-.07-.07.03.05.05.07.07.11,0-.01,0-.02.03,0,.17.21.36.4.58.58.05.04.1.07.13.09l.13.09h.01s-.04-.04-.03-.04c.2.12.41.22.63.3.04.01.09.03.14.04,0-.01-.02-.02-.04-.02-.43-.15-.84-.4-1.18-.73-.15-.15-.29-.32-.4-.5.01.01.02.02.04.04.02.03.05.07.07.1.18.23.39.44.61.61.49.37,1.08.58,1.68.61.11,0,.22.01.35-.02-.1,0-.16-.01-.28-.02-.33-.02-.6-.11-.96-.22-.16-.05-.31-.13-.45-.21-.38-.22-.71-.52-.96-.88-.3-.43-.48-.94-.53-1.47-.01-.13-.02-.25-.01-.38h0c0,.12.02.23.02.33.05.51.22,1.01.48,1.42.28.43.65.79,1.13,1.02.12.06.25.11.4.14,0-.05-.09-.09-.19-.15-.23-.12-.45-.27-.65-.45-.07-.06-.14-.13-.19-.2-.03-.05-.07-.1-.16-.16,0,0-.02-.02-.03-.03-.16-.2-.3-.43-.37-.65,0,0,0,0,.02.02.21.46.54.87.98,1.14-.21-.17-.42-.38-.62-.63.06.05.11.09.18.13-.08-.09-.14-.18-.2-.26-.09-.14-.17-.29-.23-.45-.01-.03-.03-.07,0-.05,0,0,0,0,.02.02l.05.1s.01.02.02.03l.02.03s-.02-.03-.02-.03c0,0,0,0-.01-.04-.19-.45-.28-.95-.22-1.48.01-.15.05-.29.09-.41,0-.02.03-.06.04-.06.02,0,.02.07.02.13,0-.05.02-.07.02-.07Z"/>
    </g>
    <path class="cls-2" d="M11.48,4.76h0s0,.02.02.03c.09.2.27.32.31.35.01,0,.03.02.06.03.01,0,.04.01.05.02,0,0,.03,0,.05.01h0s0,0,0,0c0,0,.01,0,.01,0h0s0,0,0,0h0s0,0-.02,0c0,0,0,0-.01,0,0,0,0-.01.01-.01h.04s0-.01.02,0c.06,0,.13,0,.19,0,.05-.01.07-.01.1-.02.01,0,.02,0,0,.01.04-.03.06-.02.08-.03,0-.01.01-.02.02-.03.06-.03.12-.07.16-.12.12-.12.19-.29.18-.47,0-.05,0-.09-.01-.14,0-.02,0-.04,0-.06,0-.01,0-.03-.03-.04h-.02s0-.03-.02-.04c-.01,0-.03-.02-.03-.03.02,0,.03.01.04.02,0-.03-.03-.06-.06-.09-.02-.02-.04-.04-.08-.06-.01,0,0,.02,0,.03.02.04.04.07.05.11,0,0,0,0,0,0l-.05-.04s-.01-.01,0-.02c0-.01,0-.03-.03-.04-.02,0-.04-.02-.06-.03-.03-.01-.06-.02-.08-.03-.01,0-.03,0-.04,0-.02-.01-.05-.02-.07-.03-.04-.01-.08-.02-.12-.02h0s0,0,0,0h0s0,0,0,0h0s.06.03.09.05c.08.04.15.1.2.17h0s-.02-.02-.02-.02c0,0,0,0-.05-.03-.03-.02-.06-.04-.09-.06-.01,0-.02-.01-.03-.02,0,0,0,0,0,0h0s0,0,0,0h0s0,0,0,0h0s0,0,0,0c0,0,0,0,0,0h0s0,0,0,0h0s0,0,0,0h0s0,0,0,0h0s0,0,0,0h0s0,0,0,0h0s-.01,0-.03,0c0,0,0,0,0,0l.05.04s.05.05.06.07h0s-.04-.04-.06-.05h0s.01.02.01.02c.05.05.08.09.12.14.01.02.02.04.05.07h0s0,.02,0,.02c.01.01.02.02.01.04,0,0,0,0-.02-.01h0s0-.02-.02-.04c0-.01-.02-.02-.03-.02v.03s0,0,0,0c0,0,0,0,.01,0h0s.02.04.02.04c0,0,0,0,0,.02,0,0,.02,0,.03.02v.02s-.01,0-.01,0h0s0,0,0,0c0,.04,0,.09,0,.13-.01.04-.03.08-.06.11-.01.02-.02.04-.03.09,0,.02,0,.05-.02.07h0c.02-.05.02-.1.02-.14,0,0,0,0,0,.01,0,0,0,.02,0,.03v-.03c-.07.08-.19.12-.3.09-.04.02-.09.03-.15.03h0s.06,0,.08-.03c0,0,.01,0,.02,0,0,0,0,0-.01,0-.04-.02-.08-.05-.12-.08-.05-.05-.09-.12-.11-.19,0-.02,0-.05,0-.07,0-.02,0-.04,0-.06,0-.03,0-.05.02-.08h0s0-.01,0-.01h0s0,0,0,0h0s0-.03.01-.03c0,0,0,0,0,.02,0,0,0-.01,0-.02,0,0,0,0,0,0,.01-.04.03-.07.06-.11v-.02s.03-.02.03-.02h0s-.01,0-.01,0c.02-.03.05-.06.08-.08l.02-.02h0c-.07.04-.13.1-.17.16-.02.03-.03.06-.05.09,0,0,0,0,0-.01v-.02s.05-.08.08-.12c.07-.08.16-.14.27-.17.02,0,.04,0,.07-.02-.02,0-.04,0-.06,0-.06.01-.12.02-.18.06-.04.03-.05.04-.07.06-.06.06-.1.12-.13.19-.03.08-.05.16-.04.24,0,.02,0,.04,0,.06h0s-.01-.03-.01-.05c-.01-.08,0-.16.03-.24.03-.08.09-.16.16-.23.01-.01.03-.03.06-.06-.01-.01-.03,0-.05,0-.05.03-.09.06-.13.11-.02.02,0,0-.04.04,0,0-.02.02-.02.04,0,0,0,0,0,0-.03.07-.04.08-.06.14h0c.02-.11.07-.2.15-.29-.05.04-.09.09-.12.15,0-.02,0-.04,0-.06-.01.03-.03.05-.04.07-.02.04-.03.07-.04.11,0,0,0,.02-.01,0,0,0,0,0,0,0v-.02s0,0,0,0h0s0,0,0,0c0,0,0,0,0,0-.04.11-.05.23-.02.35.02.07.01.05.02.09,0,0,0,.01,0,.02,0,0-.02,0-.03-.02,0,.01,0,.02,0,.02Z"/>
    <g>
      <path class="cls-1" d="M4.42,16.2c-.61,0-1.22-.12-1.79-.33-.42-.16-.79-.41-1.11-.72-.31-.31-.56-.69-.72-1.11-.21-.57-.32-1.18-.33-1.79-.05-.96-.06-1.32-.06-3.85s0-2.89.06-3.85c-.01-.63.08-1.27.29-1.87.16-.42.41-.79.72-1.11.31-.31.69-.56,1.11-.72.59-.21,1.21-.32,1.83-.33.96,0,1.32-.06,3.85-.06s2.89,0,3.85.06c.62,0,1.24.11,1.83.33.42.16.79.41,1.11.72.31.31.56.69.72,1.11.21.59.32,1.21.33,1.83,0,.96.06,1.32.06,3.85s0,2.89-.06,3.85c0,.61-.12,1.22-.33,1.79-.16.42-.41.79-.72,1.11-.31.31-.69.56-1.11.72-.58.23-1.2.35-1.83.37-.96.05-1.32.06-3.85.06s-2.89,0-3.85-.06Z"/>
      <path class="cls-2" d="M1.64,2.13s0,.02-.03.06c.05-.07.15-.2.29-.33.45-.45,1.05-.67,1.67-.78.31-.06.61-.08.9-.08.32,0,.62,0,.9-.01,1.13,0,1.99-.02,2.36-.02.21,0,.53,0,.98,0,.24,0,.39,0,.71,0,.29,0,.54.01.7.01-.04,0-.07,0-.08,0,0,0,0,0,0,0,.06,0,.1,0,.16,0,.03,0,.07,0,.11,0,0,0,0,0,0,0-.05,0-.07,0-.14,0-.07,0-.14,0-.25,0-.05,0-.1,0-.21,0-.09-.01-.02-.03.14-.04.2-.02.4-.03.59-.05.1,0,.18,0,.27,0,.92.03,1.85-.06,2.65.15.47.12.84.28,1.19.56.11.09.15.13.01.05.48.35.56.58.69.84.08.08.14.21.19.34.34.87.3,1.81.31,2.81.03,2.43,0,4.93-.14,7.26-.1.62-.29,1.17-.61,1.57-.16.21-.32.34-.49.46-.14.1-.17.13-.43.31-.06.04-.12.08-.2.12-.07,0-.23.09-.4.16-.16.07-.35.14-.54.17.18-.06.33-.11.51-.19-.32.08-.79.18-1.25.21-.38.02-.77.02-1.24.06-.07.04.11.04.27.05.57.02,1.14.07,1.64,0-.03,0-.06.02-.13.03-.31.06-.63.08-.97.09-.15,0-.27,0-.29,0-.07-.04-.39-.03-.83-.01-.32.02-.61.03-.92.05-.45.02-.89.05-1.34.07-.23.01-.44.02-.53.05-.45-.01-.86-.02-1.28-.04-.66-.01-1.33-.03-2.02-.04-.04,0-.06,0-.1,0h0s-.05,0-.05,0c.02,0,.04,0,.03,0,.02,0,.04,0,.09,0,.5.04,1.02.07,1.49.11.81.04,1.57.08,2.33.12.82.01,1.63.02,2.45.03-.04,0-.08,0-.14.02h-.54c-.37.01-.74.02-1.09.03-.71,0-1.39-.03-2.1-.06-.23-.01-.45-.02-.73-.04-.05,0-.11,0-.19,0-.02,0-.03,0-.09,0-.05,0-.1,0-.19,0-.02,0-.04,0-.09,0-.03,0-.04,0-.1,0-.03,0-.05,0-.11,0-.02,0-.04,0-.09,0-.03,0-.04,0-.1,0-.03,0-.05,0-.07,0,.01,0,.02,0,.08,0,.02,0,.04,0,.1,0,.02,0,.03,0,.09,0,.02,0,.03,0,.09,0,.03,0,.04,0,.09,0,.02,0,.04,0,.1,0,.05,0,.1,0,.18,0,.03,0,.04,0,.1,0,.04,0,.08,0,.19.01,0,0,.01.01-.03.02-.14,0-.28,0-.49,0,.08.01.11.02.14.02.41.03.82.06,1.21.09.64.05,1.31.09,1.96.12,0,0-.02,0-.07,0-.61,0-1.22-.04-1.84-.07-.04,0-.07,0-.1.01.12.01.24.02.35.03,1.36.11,2.87.09,4.49.11.67.02,1.44-.04,2.29-.4.05-.02.09-.03.13-.05.11-.05.21-.09.33-.16.4-.25.68-.51.91-.74-.11.14-.23.27-.42.45-.11.09-.22.17-.36.26-.32.2-.67.34-1.04.45-.52.15-.75.18-1.05.25.28-.02.55-.06.82-.12l.06-.03s-.07,0-.1,0c.13-.04.21-.06.29-.09.34-.1.69-.24,1.04-.45.14-.09.28-.19.46-.34.2-.18.35-.38.53-.65.1-.12.19-.25.29-.41-.05.12-.08.17-.12.23-.01.02-.02.04-.03.06.02-.03.03-.05.05-.07.42-.67.57-1.4.65-2.13.04-.72.04-1.37.06-2.07.04-1.36.06-2.72.02-4.17-.03-.8-.03-1.53-.18-2.5-.1-.48-.25-.95-.47-1.4,0,0,0,0,.04.06.21.43.35.87.45,1.34.09.48.11.94.17,1.39.01-.16,0-.3-.02-.5-.03-.19-.04-.42-.06-.72.04.21.05.39.07.55-.02-.93-.17-1.86-.71-2.73-.52-.84-1.43-1.43-2.34-1.62-.45-.11-.92-.17-1.37-.17h-1.28c-.85,0-1.71-.01-2.56-.01-.92.11-1.8.21-2.62.31,0,0,0,0,.05-.01.38-.06.95-.12,1.19-.19.14-.01.27-.03.47-.05-.15,0-.24,0-.33,0-.63.02-1.25.03-1.87.05-.61.03-1.28,0-1.95.16-.88.17-1.81.67-2.34,1.46-.56.79-.68,1.76-.68,2.65v.09s0-.01,0-.01v1.47c.01.43.01.85.02,1.29,0,.56,0,1.13.03,1.71,0,.02,0,.05,0,.11,0,.04,0,.08,0,.12,0-.03,0-.06,0-.13,0-.02,0-.03,0-.09,0,0,0-.01.01.06.01.21.03.45.01.52,0-.05,0-.11-.02-.26,0,.16,0,.24.01.36,0-.02.01-.03.03.02.03.75.06,1.5.1,2.27,0,.15.02.3.02.43,0,.15.02.3.04.45v.03c0-.08,0-.15,0-.15.1.65.28,1.3.64,1.82.08.11.16.22.26.31-.02-.03-.04-.06-.07-.1-.42-.49-.63-1.12-.75-1.77-.11-.65-.09-1.33-.13-2-.02-.63-.04-1.25-.06-1.81,0,.04,0,.08.02.16,0,.11.01.23.01.34.03.83.06,1.66.1,2.49.04.87.22,1.76.72,2.44.5.69,1.27,1.1,2.12,1.23.31.06.62.09.99.07-.26,0-.52-.03-.8-.08-.96-.16-1.7-.5-2.34-1.39-.27-.39-.41-.84-.52-1.3-.14-.6-.12-1.25-.16-1.89-.03-.65-.05-1.29-.08-1.92-.07-1.51-.03-2.99-.05-4.49,0-.1,0-.2,0-.3H.48c0-.25,0-.5.02-.75v.03c-.01.24-.01.49,0,.72h0c0,.06,0,.12,0,.17.02,1.45,0,2.91.05,4.34.03.74.05,1.48.08,2.24.03.76.02,1.52.26,2.23.11.38.27.73.54,1.04,0-.07-.16-.31-.28-.6-.29-.71-.36-1.47-.36-2.32,0-.29-.01-.57-.02-.85,0-.18.01-.38-.03-.69,0-.05,0-.09,0-.12-.03-.79-.07-1.59-.04-2.29,0,0,0,0,0,.06.02,1.56.09,3.11.18,4.72-.02-.84-.05-1.76-.08-2.8.03.24.05.43.08.69-.01-.4-.02-.74-.03-1.04-.02-.55-.03-1.09-.02-1.62,0-.1,0-.24.02-.14,0,.01,0,.02,0,.09,0,.11,0,.21,0,.34,0,.04,0,.06,0,.12v.12s0-.1,0-.12c0-.03,0-.05,0-.13,0-1.12.01-2.24.02-3.43v-.04c-.02-.43.03-.88.13-1.33.09-.44.26-.76.49-1.06.04-.05.12-.14.14-.14.02,0-.08.15-.15.29.07-.12.12-.17.13-.17Z"/>
    </g>
  </g>
</svg>