<?xml version="1.0" encoding="UTF-8"?>
<svg id="Layer_2" data-name="Layer 2" xmlns="http://www.w3.org/2000/svg" viewBox="0 0 18.28 20.78">
  <defs>
    <style>
      .cls-1 {
        fill: #151515;
      }
    </style>
  </defs>
  <g id="Layer_1-2" data-name="Layer 1">
    <path class="cls-1" d="M9.79.58c.23,0,.46-.02.7-.02.61,0,1.24,0,1.79-.01.07,0,.15,0,.23,0,.05.01.15-.02.18.03,0,.07.01.15.02.23.02.12.06.32.11.5.02.08.05.2.08.3.07.24.07.23.02.03-.03-.1-.07-.25-.1-.44-.02-.09-.04-.2-.05-.31-.02-.12-.02-.16-.03-.25-.02-.04.03-.15-.04-.14-.06,0-.12,0-.18,0-.18,0-.37,0-.57,0-.45,0-.93,0-1.43,0-.38,0-.83,0-.72,0,0,0,0,0-.02,0-.44.04.93.06.47.12.39,0,.8,0,1.23-.01.28,0,.56,0,.84,0h.22s.08-.02.09,0v.09s.07.46.14.74c.08.3.18.59.3.88-.13-.27-.23-.53-.31-.79-.04-.13-.08-.27-.11-.41-.02-.11-.04-.22-.07-.34.01.09.02.17.04.25.02.12.04.24.07.35.05.23.12.44.19.64.15.41.34.77.55,1.1.13.19,0,.02-.25-.43-.12-.23-.25-.53-.37-.9-.05-.18-.11-.38-.15-.6-.02-.11-.04-.22-.05-.33l-.02-.15c.03-.11-.08-.08-.16-.08-.18,0-.37,0-.56,0-.44,0-.9,0-1.37,0-.39,0-.8,0-.72,0,.03,0,.07,0,.04.02,0,0,0,0-.03,0-.03,0-.06,0-.1.01,0,0-.02,0-.03,0,0,0,.41,0,.84,0,.44,0,.89,0,1.33,0h.58c.06,0,.17-.03.14.07v.09s.04.25.04.25c.03.18.07.36.12.54.1.35.22.68.37.98.3.61.65,1.07,1.04,1.46.38.34.72.56.96.7.24.13.35.2.37.2.01,0-.12-.06-.36-.2-.24-.14-.58-.37-.96-.7-.4-.4-.74-.85-1.04-1.47-.15-.3-.27-.63-.37-.98-.05-.18-.09-.36-.12-.54l-.04-.25v-.09c.02-.1-.09-.06-.15-.07h-.58c-.44,0-.89,0-1.33,0-.43,0-.83,0-.84,0,0,0,.02,0,.04,0,.26,0,.52-.02.8-.03.42,0,.85,0,1.28-.01.2,0,.41,0,.62,0,.07.01.21-.05.18.08v.1s.05.26.05.26c.04.19.08.38.13.57.11.38.26.75.45,1.11.3.53.62.98,1.08,1.38.43.36.89.65,1.36.87.41.19.58.25.51.24-.07-.01-.38-.09-.87-.33-.42-.21-.82-.47-1.18-.77-.4-.36-.65-.71-.89-1.1-.37-.62-.62-1.3-.73-2.01l-.03-.23s-.02-.03-.04-.03h-.74c-.47.01-.91.02-1.39.02-.09,0-.2.03-.24,0h0c-.13.02-.22.01-.34.02.03,0,.39,0,.81,0,.45,0,.89,0,1.34,0,.18,0,.37,0,.55,0,.02,0,.05,0,.04.02l.03.22c.03.17.06.34.1.5.08.33.19.63.32.91.25.56.57,1.02.86,1.37.66.74,1.14.92,1.09.92-.26-.19-.58-.39-1.01-.83-.42-.45-.66-.84-.88-1.27-.17-.34-.3-.69-.4-1.06-.05-.19-.09-.38-.12-.58l-.03-.17s.02,0-.06,0h-.68s-.11.02-.11.02c.26,0,.52,0,.79,0,.06,0,.02,0,.03,0,.02.14.03.18.03.19,0-.02,0-.07-.02-.16,0-.07,0-.02,0-.04h0c-.11,0-.23,0-.37,0-.45,0-.97,0-1.51,0-.31,0-.68,0-.5,0h.41c-.54,0,2.62-.04,2,0l.02.14c.02.15.05.3.08.45.07.3.16.58.27.86.23.56.54,1.09.94,1.55.67.76,1.46,1.21,2.34,1.56.22.08.44.15.67.21l.34.08.26.04s.04,0,.03.02v.37s0,1.7,0,1.7v.18s0,.03,0,.03c-.06,0,.05.01-.32-.03-.53-.07-1.06-.19-1.57-.35-.25-.08-.51-.18-.75-.29-.12-.05-.24-.13-.35-.19l-.51-.29-.94-.54-.24-.13c-.07-.02-.2-.16-.16,0v.54s0,1.75,0,1.75c0,.76,0,1.53,0,2.3,0,.77,0,1.54,0,2.31v1.16c-.01.34-.06.71-.14,1.06-.29,1.27-1.02,2.41-1.99,3.19-.97.79-2.18,1.23-3.39,1.26-2.03.12-4.05-.98-5.11-2.7-.52-.85-.86-1.86-.84-2.86v-.77c.02-.22.06-.49.12-.73.12-.49.3-.96.53-1.4.92-1.73,2.76-2.9,4.7-3.01.24-.01.48-.01.73,0h.12s.03.01.02.03l-.02,1.24-.02,1.27c-.04.07.19-.03-.7,0-1.59.1-3.03,1.47-3.1,3.13-.17,1.59,1.01,3.2,2.62,3.54.79.18,1.65.08,2.39-.33.36-.2.69-.47.96-.79.13-.15.26-.36.35-.49.12-.19.22-.4.28-.62.04-.13.06-.25.08-.4v-.32c0-.21,0-.43.01-.65,0-.43,0-.91,0-1.48-.04.22-.05,1.03-.07,1.64v.6c0,.18-.06.49-.14.7-.07.22-.23.48-.33.62-.13.2-.28.38-.44.54-.66.67-1.64,1.02-2.6.93-1.06-.1-1.95-.64-2.51-1.55-.36-.57-.53-1.3-.46-1.94.04-.88.52-1.77,1.21-2.31.35-.28.76-.48,1.18-.59.21-.06.44-.09.66-.11.11,0,.22,0,.33,0,.11,0,.25.02.25.02.06,0,.13.04.17.03v-.18s.02-1.09.02-1.09v-1.17s.02-.36.02-.36c.03-.09-.09-.05-.14-.08l-.22-.02h-.3c-.2,0-.4,0-.6.02-.4.04-.8.12-1.19.25-.78.25-1.53.67-2.15,1.24-1.09.99-1.85,2.44-1.9,4,0,.34,0,.7.02,1.05.04.35.13.73.26,1.13-.11-.34-.19-.7-.24-1.09-.03-.37-.01-.82-.02-1.28.12-1.36.76-2.73,1.82-3.72.61-.57,1.34-1.01,2.12-1.27.39-.13.8-.23,1.21-.27.21-.02.41-.04.62-.04h.31s.24.02.24.02c.06.01.15,0,.12.08v.46s-.02,1.33-.02,1.33v.9s-.03.03-.06.02l-.08-.02h-.07s-.19-.02-.19-.02c-.13,0-.26,0-.38,0-1.55.09-2.95,1.41-3.03,3.03-.19,1.64,1.14,3.33,2.88,3.5,1.26.2,2.65-.51,3.26-1.57.12-.18.17-.28.16-.23-.53,1.1-1.76,1.9-3.01,1.86-1.26.02-2.46-.74-2.99-1.84-.27-.51-.38-1.14-.33-1.7.03-.56.22-1.16.55-1.63.64-.97,1.82-1.55,2.97-1.47l.18.02h.03s.06.02.06.02c.02-.01,0-.08.01-.11l.02-1.44v-1.12s-.03-.01-.05-.02h-.18c-.23-.03-.46-.03-.69-.01-2.29.11-4.44,1.75-5.15,3.97-.17.56-.31,1.1-.26,1.7,0,.29-.01.61.02.87.04.29.1.57.18.85.32,1.11.97,2.12,1.85,2.86,1.18,1,2.74,1.49,4.28,1.33,1.53-.13,2.98-.9,3.95-2.08.09-.11.13-.16.12-.13-.06.08-.11.15-.21.27-.05.06-.1.11-.15.18,0,0,0,0,.02-.01.06-.07.11-.13.2-.23.1-.12.21-.25.34-.43.07-.11.14-.21.25-.39.11-.18.05-.02-.13.29-.22.37-.49.73-.79,1.04-.16.15-.3.27-.45.39-1.59,1.3-3.92,1.65-5.82.92-1.07-.41-1.93-1.07-2.6-1.94-.21-.28-.29-.41-.03-.11-.89-1.21-.93-1.8-1.08-2.53-.09-.26-.1-.6-.09-.98-.11-2.24,1.32-4.44,3.29-5.38.92-.45,1.95-.66,2.96-.6l.26.02s.16-.02.13.07v.58s-.03,1.61-.03,1.61v.6c-.01.05,0,.12-.02.16-.05-.02-.11-.03-.16-.05-.02-.02-.47-.06-.73-.02-.3.03-.59.09-.87.2-1.12.42-1.98,1.52-2.03,2.74-.19,1.68,1.21,3.3,2.88,3.41,1.77.21,3.55-1.27,3.47-2.97.02-.65.05-1.25.07-1.87.02-.4.02-.88,0-1.49,0-.2,0-.4-.02-.65.02-.19,0-.66,0-1.13-.01-.46-.03-.96-.03-1.46.02.48.04.88.06,1.39.03-.86.02-2.1.01-3.29,0-.92,0-1.81-.03-2.94-.04-.18-.05.25-.05.63-.03,1.31-.06,2.63-.1,3.98,0-.07,0-.14-.01-.33,0-.79-.01-1.58-.02-2.38,0-.35,0-.63.01-.69.04-.16.04-.92.03-1.95v-.25s0-.03,0-.03v-.06s-.02-.13-.02-.13l-.05-.38c0-.07-.02-.12-.05-.15,0-.13.01-.24.02-.36,0-.19,0-.38.01-.57,0,0,0-.02,0-.03h0s0-.01,0-.01c0,0,0,.01,0,0,0,0,0,.01,0,.03l-.09.42c-.04.21-.06.43-.09.65l-.04.34-.02.17v.09s-.02.62-.02.62c0-.08,0-.17-.01-.34v-.38c0-.1,0-.22,0-.31.02-.2.04-.39.06-.59,0-.07.02-.13.02-.2,0-.02,0-.03,0-.05,0,0,0-.01,0-.02,0-.02,0-.03,0-.05,0,0,0-.01,0-.02,0,0,0-.01,0-.03,0,0,0-.02,0-.03,0,0,0-.01,0-.03,0,0,0-.01,0-.03v-.02s0,.01-.01.02c0,0,0,.02,0,.03,0,0,0,.01,0,.02,0,0,0,.01,0,.03,0,0,0,.01,0,.03,0,0,0,.01,0,.03,0,.01,0,.03,0,.05,0,0,0,.01,0,.03,0,.02,0,.03,0,.05,0,0-.01,0-.02,0,0-.04,0-.08,0-.14,0,.02-.02.03-.02.04l-.08.34c-.04.18-.07.36-.11.55,0,0,0,0,0-.02l.06-.52v-.03s-.04.1-.04.1c-.04.19-.07.39-.09.6l-.02.16v.08s-.01.04-.01.04c0,.02,0-.02,0,.14-.01.92-.02,1.85-.03,2.79-.02,1.6-.03,3.17-.01,5.22,0,.11,0,.19,0,.29,0,.25,0,.47-.02.77,0,.98-.01,1.78-.03,2.47,0-.37,0-.73-.01-1.28,0-.29,0-.58,0-.92,0-.78.01-1.55.02-2.42,0-1.18,0-1.7-.03-2.34-.01.61-.02,1.2-.03,1.79,0,.05,0,.1,0,.15.01-.07.02-.13.03-.21,0,.28,0,.45,0,.65,0,.78-.01,1.56-.02,2.41,0,.35-.01.7-.02,1.17,0,.47.02,1.12.02,1.73,0,.36-.03.57-.18.83.08-.18.1-.28.12-.39,0-.05,0-.06,0-.1,0,.04,0,.08-.02.11-.06.28-.16.43-.37.73-.17.23-.38.43-.62.58-.48.31-1.08.41-1.64.32-1.13-.17-2.04-1.29-1.9-2.44.01-.17.04-.34.09-.51.03-.13.11-.3.19-.45.32-.56.88-.98,1.52-1.12.16-.03.32-.05.48-.05.08,0,.16,0,.24.01.12,0,.36.05.55.12l.63.21c.15.09.07-.09.1-.17v-.29s.01-1.09.01-1.09c0-.84.02-1.69.03-2.55,0-.2,0-.4,0-.59v-.15s0-.05,0-.07h-.07s-.3-.06-.3-.06c-.2-.03-.4-.06-.6-.08l-.38-.02c-.46-.02-.92.02-1.38.1-1.96.33-3.84,1.6-4.81,3.64-.49,1.02-.73,2.25-.6,3.37,0,0,0,0-.02-.16-.21-2.18.88-4.48,2.78-5.84-.34.21-.63.45-.98.81-.35.37-.69.8-1.05,1.4.25-.45.46-.76.74-1.09-.74.82-1.27,1.83-1.53,2.9-.14.52-.2,1.11-.17,1.64-.01.52.02,1.11.17,1.63.51,2.14,2.13,3.96,4.17,4.73,2.04.79,4.43.5,6.22-.72,1.8-1.21,2.93-3.32,2.96-5.46-.09-2.16-.18-4.21-.26-6.16,0,0,0-.02.01.1.05.9.1,2.24.16,2.8.01.32.02.64.04,1.11,0-.36,0-.56,0-.78,0-.74,0-1.47,0-2.21v-1.03s0-.18,0-.18c0-.06-.02-.16.05-.09l.51.29c.33.2.7.33,1.06.46.37.13.74.23,1.12.3.19.04.38.07.58.1.22.03.33.04.66.07l.59.03h.15c.06.01.1.01.09-.05v-.3s0-.99,0-.99c0-.5,0-1-.01-1.51v-.72s0-.45,0-.45l-.46-.04c-.36-.04-.48-.06-.67-.1-.18-.04-.36-.09-.54-.14-.71-.23-1.37-.59-1.94-1.08-.51-.48-.94-1.15-1.18-1.85-.13-.38-.21-.66-.25-1.15-.05-.26.08-.69-.32-.56h-.74c-.55.02-1.1.03-1.66.04l-.22.02c-.12,0-.24.02-.36.03-.07,0,.25.01.6.02.45,0,.9,0,1.34,0,.23,0,.46,0,.69,0,.25.02.65-.11.55.27.02.39.06.62.12.87.05.25.13.47.21.68.16.42.35.77.53,1.02.35.51.57.7.39.52-.03-.04-.07-.09-.16-.2-.06-.07-.11-.14-.17-.21.04.06.09.12.17.24.03.04.06.08.13.16,0,0,.01.02-.1-.1-.32-.37-.61-.85-.65-1.01.06.11.11.23.31.52-.2-.32-.28-.48-.39-.72,0,.04.01.06-.05-.04-.17-.4-.29-.81-.36-1.24-.02-.1-.03-.24-.04-.36v-.19s.02-.16-.07-.13h-.73c-.44.02-.89.03-1.34.03h-.34s-.07,0-.07,0h-.08s-.08.02-.12.02h-.13s0,.01,0,.01c.02,0,.04,0,.04.02"/>
  </g>
</svg>