<?xml version="1.0" encoding="UTF-8"?>
<svg id="Layer_2" data-name="Layer 2" xmlns="http://www.w3.org/2000/svg" viewBox="0 0 15.86 18.26">
  <g id="Layer_1-2" data-name="Layer 1">
    <path d="M15.84,12.46l-.16-.04c-.06-.07.2-.26.16-.38l-.07-.03-.05-.08s-.09.02-.12.05l-.04.04s-.06.04-.07.02c0,0,0-.02.03-.05l.07-.08c.05-.05.11-.11.08-.13h-.04s.02-.06,0-.07l-.08.06s.11-.14.07-.18h-.01s-.05-.01-.08.02l-.11.14s-.03.03-.04.02h-.02c-.02-.14.13-.25.1-.27v-.02c-.24,0-.29.04-.75.52l-.3.31c-.3.32-.72.74-1.29,1.33l-1.23,1.17v-.27c-.01-.78-.02-1.85-.03-3.3l.11-7.67-2.02-2.06-.09-.11s-.05-.05-.1-.05c-.04-.07-.33-.35-.78-.79-.19-.19-.39-.39-.57-.56-.77.01-1.66.02-2.42.04-.64,0-1.17.03-1.41.04h-.14c-.32-.01-.79-.01-1.18-.02-.35,0-.67.04-.8.19,0,.02-.04.04-.07.04-.18,0-.28.07-.42.11-.11.02-.18.04-.18.06,0,.01.07.01.18.03l.04.02-.04.02h-.11s-.06,0-.06.02h.03c.07.03.29.01.29.05h0s-.29.02-.29.02c-.07,0-.1,0-.13.04t-.04.03l-.11-.03c-.1,0-.17.13-.28.13h-.03l-.03.03s.03.04.07.04h.03s.07,0,.08.02c-.07.05-.29.04-.39.05h-.04s.47.09.58.18h-.67c-.11.01-.22.01-.22.05-.03.01-.1.03-.1.05l.04.04s.11.03.18.03l.38-.04h.11c.11.03.15.05.15.07s-.11.02-.22.02h-.21c-.18,0-.17.06-.35.06h-.18c-.07,0-.1.08-.2.11-.04,0-.08,0-.08-.01l.07-.08-.03-.02c-.08.02-.18.08-.18.15l.04.04s-.07.02-.07.03v.02c.08.05.26.07.5.07l.57-.03.29.02.11.07s-.07.03-.18.03h-.11s-.03.02-.03.02c0,.04.07.08.11.07l.43.02.39-.03c.28.04.57.05.85.05l.46-.03c.07-.02.11-.02.18-.02.11,0,.21.02.32.03.21-.02.46-.04.67-.04.11,0,.22,0,.32.01l.22.02.71-.03c.07-.02.14-.04.21-.04.14,0,.32.03.5.03l.35-.02s.11,0,.14.01l.25.02.33-.02.06-.03h0s.02.04.02.04l.11.11c.42.43,1.19,1.22,1.37,1.4l.08.06.09.11.07.09c.05.05.1.05.17.12l.03.03c.07.11.16.21.25.31l.24.24.02.03v.03s0,.01,0,.01c0,0-.01,0-.01.01v.07s-.03.14-.03.14l.03.5c0,.07,0,.17-.02.25,0,.1-.05.18-.05.32l.02.1v.15s-.01.07.01.1l-.02.11.04.03-.02.11-.02.04h.04v.21s0,.07-.02.11l-.03.14.02.21v.22s.01.32.01.32l-.04.17v.15s.03.67.03.67l-.02.57.02.53c0,.22-.01.39-.05.43v.04s.06.07.06.1l-.02.07.02.29-.06.43.02.39-.02.1.02.14.02.11c0,.11-.03.22-.03.29s.02.14.06.21v.07s0,.32,0,.32q0,.07.02.07h.02v-.15s0-.1.01-.1l.02.03v.39c-.05.08-.06.15-.06.18v.18c0,.07,0,.11.04.11h.03c-.01.07-.01.1-.01.17l.02.36c0-.11.05-.15.05-.22v-.28s0-.11-.02-.11t.02-.03l-.03-.29v-.53s.03-.11.03-.11c.01,0,.03.25.04.57l.02-.29c0-.1,0-.14.02-.14,0,0,.01.14.02.32v.14q-.02.11-.04.11l-.02-.14c.02.61.04,1.49.1,1.55.03,0,.03.04.03.08v.14s0,.03,0,.03c.08,0,.12.23.15.41-.01-.01-.03-.02-.07-.01-.01-.04-.19-.21-.43-.44-.52-.49-1.35-1.26-1.58-1.46l-.06-.05c-.13-.13-.29-.33-.45-.48-.14-.14-.3-.24-.45-.19-.02.02-.04.02-.06,0-.07-.07-.16-.06-.24-.08-.06-.03-.1-.05-.11-.03-.02.01.01.04.04.09v.03s-.02,0-.02,0l-.04-.04s-.03-.03-.04-.02v.03s.11.11.09.13l-.02.02-.11-.11s-.04-.04-.08-.03t-.04,0l-.02-.07s-.16.03-.2,0l-.02-.02h-.04s-.01.05.01.07h.01s.03.04.02.05c-.07.01-.14-.08-.2-.11.02.05.11.24.1.34l-.28-.26c-.04-.05-.08-.09-.11-.06-.03,0-.07-.02-.08,0v.04s.01.07.04.09l.18.13.03.05c.03.06.03.08.02.1-.02,0-.06-.03-.1-.07l-.08-.09c-.07-.06-.11-.03-.18-.09l-.07-.07s-.1.01-.17-.01c-.01-.01-.02-.02-.01-.04l.08-.02v-.03s-.13-.01-.18.04v.04s-.05-.02-.06,0h-.01c-.01.08.05.16.15.25l.24.21.11.12v.1s-.06,0-.11-.05l-.04-.04h-.03s-.02.08,0,.1l.16.17.17.14c.09.14.19.26.31.37l.2.17s.05.02.08.05c.04.04.07.1.1.15.1.07.22.15.3.24.05.04.09.08.12.13l.07.1.3.26s.09.03.12.06c.05.05.1.15.17.22l.16.12s.04.04.04.07l.09.11.32.25.08.11.13.12c.25.23.66.7.76.79l.05.03.05.07s.02.04.05.07c.05.05.1.05.18.12l.02.03c.16.23.38.44.59.65l.42.44.08.07.02.03.2-.16.37-.4c.05-.06.13-.14.19-.18.09-.06.16-.08.27-.19l.08-.1.11-.1s.06-.06.07-.1l.1-.07v-.05l.05-.03h.03l-.03-.02.08-.09s.03-.03.06-.03l.08-.03.07-.1.09-.08.11-.14.1-.05.07-.04.23-.3.25-.21.19-.22c.08-.09.16-.15.21-.14h.01s-.01-.08,0-.09l.04-.02.1-.13.22-.12.13-.17.06-.03.04-.07.03-.06s.11-.06.13-.09c.03-.03.04-.07.05-.12v-.04s.15-.12.15-.12t.01-.04v-.02s-.07.06-.07.06c0,.02-.04.05-.05.03v-.02l.03-.03.13-.12c.06,0,.1-.02.11-.03l.07-.08s.04-.04.02-.06l-.03-.03s.05-.03.08-.06l.13-.16s-.1.02-.13.05l-.11.12s-.04.04-.02.06t-.03,0l-.1.12-.22.21-.05.03s.09-.13.19-.26l-.12.11s-.04.04-.06.04c.01-.03.05-.09.1-.14l.06-.06q.05-.03.07-.02l-.05.07c.22-.24.57-.61.55-.68-.02-.02-.01-.04.01-.05l.06-.05v-.02c-.07-.08.04-.25.09-.33l.04-.04c.09-.09-.02-.14.04-.19l.05-.03c.06-.06.06-.14.09-.2.04-.04.04-.07.01-.09ZM1.8,1.34s-.11-.02-.11-.04l.07-.02c.07,0,.11.02.11.04l-.07.02ZM7.74,1.6c-.73.02-1.53.04-2.3.07-.53,0-1.06-.01-1.56-.04l.64-.02,3.05-.04c.1,0,.16-.01.19,0,.01.01.01.02.01.03h-.03ZM8.13,2l-.19-.22c-.08-.06-.11-.08-.13-.09v-.04s0-.01,0-.01t.1.07l.36.34v.04s-.09-.05-.14-.09ZM8.67,2.52l-.23-.23-.04-.06.06.04.11.13.12.09.04.06-.06-.03ZM10.13,12.14s0,.11-.02.11c-.04-.18-.04-.46-.04-.67v-.32c0-.29-.02-.68.04-.68l.02.03c0,.39-.02.79-.03,1.14l.03.39ZM10.14,4.06l.05.05c.07.06.04.06.04.08h-.03s-.06-.11-.06-.13ZM10.27,12.28l-.03-.11v-.39c-.01-.1-.01-.21.02-.25l.03.5c0,.1,0,.24-.02.25ZM10.45,14.61l-.02-.1v-.15s.05.11.05.11c0,.07-.01.14-.03.14ZM6.46,12.94s-.03-.05-.02-.06h.04s.03.06.02.08l-.04-.02ZM8.73,15.58c-.34-.3-.71-.64-1.06-.96-.22-.21-.42-.43-.6-.64l.27.23,1.24,1.18c.12.11.19.18.19.21l-.04-.02ZM9.14,15.95s-.06-.01-.09-.04l-.11-.12-.11-.09-.02-.03.02-.02.11.09.2.19v.02ZM9.35,16.2l-.13-.12-.02-.04h.04s.06.09.06.09l.07.04.02.04h-.04ZM10.47,17.46s-.08-.14-.08-.15l.05.04c.05.05.09.11.09.14l-.06-.03ZM11.27,15.39s.01-.07.03-.07c0,0,.01.02.01.04l-.04.03ZM14.55,14.44s.08-.09.11-.09l-.02.07-.15.16s-.08.08-.12.07l.18-.21ZM14.76,14.48c-.04.09-.15.21-.23.29l-.13.13c-.11.12-.26.28-.3.24v-.03c.15-.16.33-.29.47-.43l.14-.17s.04-.05.05-.03ZM15.19,12.41s-.04.02-.06.01c0-.02.1-.13.13-.16l.05-.06s.09-.08.11-.06v.03l-.18.16-.05.08ZM15.43,13.36l-.07.04.02-.07s.07-.04.08-.03l-.03.06Z"/>
  </g>
</svg>