<?xml version="1.0" encoding="UTF-8"?>
<svg id="Layer_2" data-name="Layer 2" xmlns="http://www.w3.org/2000/svg" viewBox="0 0 405.91 126.69">
  <defs>
    <style>
      .cls-1 {
        fill: #a67c52;
      }
    </style>
  </defs>
  <g id="Layer_1-2" data-name="Layer 1">
    <path class="cls-1" d="M376.85,63.25c0,8.33,2.45,15.85,8.17,21.03,3.44,3.12,8.8,5.37,13.46,6.5,3.94.95,6.68,4.51,6.68,8.56l.74,18.72c0,4.88-4.7,8.44-9.58,8.44h-24.09l-44.11-1.22h-122l-120.33,1.22H9.58c-4.9.36-9.12,1.19-8.83-8.83v-18.33c0-4.05,2.75-7.61,6.68-8.56,5.49-1.33,12.1-3.05,15.82-7.05,4.7-5.05,5.82-13.03,5.82-20.47,0-8.66-2.58-16.55-8.71-21.75-3.31-2.8-8.48-6.3-12.93-5.78-4.08.48-7.77-1.71-7.41-9.44L.75,8.83C.75,3.95,4.71,0,9.58,0l85.78,1.28,125.78-1.28,107.11,2.17h41.33l26.76-2.17c4.88,0,8.83,3.95,8.83,8.83v18.33c0,4.05-2.75,7.61-6.68,8.56-4.38,1.06-9.17,2.4-12.49,5.22-6.1,5.19-9.15,13.67-9.15,22.3Z"/>
  </g>
</svg>